<?xml version="1.0" encoding="utf-8"?>
<!-- Generator: Adobe Illustrator 27.5.0, SVG Export Plug-In . SVG Version: 6.00 Build 0)  -->
<svg version="1.1" xmlns="http://www.w3.org/2000/svg" xmlns:xlink="http://www.w3.org/1999/xlink" x="0px" y="0px"
	 viewBox="0 0 3710 3710" style="enable-background:new 0 0 3710 3710;" xml:space="preserve">
<g id="Background">
	<g>
		<g>
			<rect style="fill:#FFFFFF;" width="3710" height="3710"/>
		</g>
	</g>
</g>
<g id="Illustration">
	<g>
		<linearGradient id="SVGID_1_" gradientUnits="userSpaceOnUse" x1="3579.4187" y1="4029.729" x2="1133.1134" y2="991.5711">
			<stop  offset="0" style="stop-color:#B37CFF"/>
			<stop  offset="1" style="stop-color:#F895E7"/>
		</linearGradient>
		<path style="opacity:0.3;fill:url(#SVGID_1_);" d="M2922.055,2820.696c-57.047,58.56-111.025,96.325-153.672,126.162
			c-501.304,350.727-1094.48,248.492-1220.547,223.525c-186.161-36.868-546.006-108.133-806.167-406.452
			c-393.602-451.332-332.313-1162.394-27.008-1631.776c55.845-85.858,350.834-562.389,950.399-638.81
			c362.85-46.249,785.817,47.03,1092.118,297.253C3400.132,1315.841,3354.36,2376.922,2922.055,2820.696z"/>
		<g>
			
				<linearGradient id="SVGID_00000080887765695849921060000012697548871592880263_" gradientUnits="userSpaceOnUse" x1="-1018.2626" y1="1644.3402" x2="186.8937" y2="1644.3402" gradientTransform="matrix(0.6945 -1.1188 0.8496 0.5275 107.3932 193.1962)">
				<stop  offset="0" style="stop-color:#B37CFF"/>
				<stop  offset="1" style="stop-color:#F895E7"/>
			</linearGradient>
			<path style="fill:url(#SVGID_00000080887765695849921060000012697548871592880263_);" d="M969.756,472.648
				c-89.775,246.908-563.88,1693.902,486.79,2115.536c0,0,516.306-920.511-454.341-2128.179
				C993.712,449.44,975.621,456.517,969.756,472.648z"/>
			<path style="opacity:0.86;fill:#FFFFFF;" d="M1025.174,696.692c-3.987,78.152-5.014,156.557-4.721,234.867
				c0.404,78.329,2.504,156.649,6.337,234.877c7.724,156.438,22.245,312.606,46.318,467.317
				c24.229,154.593,57.746,308.063,107.714,456.253c12.612,36.982,26.047,73.687,40.968,109.777
				c14.945,36.074,31.085,71.637,48.657,106.466c35.293,69.542,76.743,136.054,125.994,196.3l0.029,0.037
				c2.342,2.864,1.918,7.084-0.947,9.426c-2.863,2.341-7.082,1.917-9.424-0.947l-0.018-0.021
				c-49.766-61.387-91.399-128.865-126.733-199.195c-17.589-35.223-33.712-71.141-48.616-107.539
				c-14.878-36.413-28.247-73.403-40.776-110.65c-49.636-149.236-82.614-303.361-106.272-458.458
				c-23.498-155.209-37.399-311.711-44.49-468.408c-3.519-78.358-5.298-156.788-5.38-235.216
				c0.031-78.437,1.375-156.842,5.697-235.236c0.087-1.565,1.424-2.763,2.989-2.677c1.563,0.086,2.762,1.424,2.675,2.989
				L1025.174,696.692z"/>
		</g>
		<g>
			
				<linearGradient id="SVGID_00000072965098413942188170000003973404619300735897_" gradientUnits="userSpaceOnUse" x1="818.0038" y1="31.114" x2="1601.6754" y2="3761.938" gradientTransform="matrix(0.9968 0.0801 -0.0801 0.9968 -150.9284 41.6404)">
				<stop  offset="0" style="stop-color:#A737D5"/>
				<stop  offset="1" style="stop-color:#EF497A"/>
			</linearGradient>
			<path style="fill:url(#SVGID_00000072965098413942188170000003973404619300735897_);" d="M1199.615,2085.716
				c0,0-844.295-297.451-713.194-1364.859c2.186-17.796,30.273-27.635,46.327-16.243
				C682.192,810.656,1193.903,1235.577,1199.615,2085.716z"/>
			<path style="opacity:0.71;fill:#FFFFFF;" d="M634.135,935.305c40.549,84.289,81.002,168.618,120.985,253.176
				c19.996,42.277,39.905,84.596,59.414,127.099l29.279,63.75c9.75,21.254,19.223,42.635,28.842,63.95
				c38.199,85.38,76.625,170.669,113.255,256.757c36.893,85.965,73.175,172.22,106.816,259.547c0.495,1.286-0.146,2.73-1.431,3.226
				c-1.258,0.484-2.672-0.135-3.199-1.362l-27.534-64.48l-28.005-64.277c-18.845-42.776-37.466-85.646-56.66-128.272
				l-57.332-127.982l-57.829-127.767l-57.965-127.71c-19.457-42.51-38.495-85.213-57.713-127.835
				c-38.397-85.261-76.73-170.566-115.755-255.541c-0.618-1.34-0.033-2.927,1.307-3.545
				C631.934,933.426,633.503,933.997,634.135,935.305z"/>
		</g>
		<g>
			
				<linearGradient id="SVGID_00000139283471025683324090000005621646933405719945_" gradientUnits="userSpaceOnUse" x1="2910.6023" y1="1329.6226" x2="778.8123" y2="2952.7825">
				<stop  offset="0" style="stop-color:#2B3582"/>
				<stop  offset="1" style="stop-color:#150E42"/>
			</linearGradient>
			<path style="fill:url(#SVGID_00000139283471025683324090000005621646933405719945_);" d="M614.482,1326.953l2409.577-40.719
				c97.011-1.639,174.875,81.566,169.11,180.708l-82.939,1426.3c-4.539,78.06-67.325,139.208-143.714,139.963L650.33,3056.11
				c-57.21,0.566-104.477-45.562-106.656-104.085l-55.416-1488.61C485.516,1389.747,542.473,1328.17,614.482,1326.953z"/>
			
				<linearGradient id="SVGID_00000145760902089402296660000003063242097699523975_" gradientUnits="userSpaceOnUse" x1="2686.8035" y1="1189.9518" x2="117.6589" y2="4046.0417">
				<stop  offset="0" style="stop-color:#FDF53F"/>
				<stop  offset="1" style="stop-color:#D93C65"/>
			</linearGradient>
			<path style="fill:url(#SVGID_00000145760902089402296660000003063242097699523975_);" d="M651.418,1363.288l2346.688-38.74
				c94.479-1.56,170.311,77.601,164.697,171.926l-80.775,1356.986c-4.42,74.267-65.568,132.443-139.963,133.162L686.33,3008.415
				c-55.717,0.539-101.75-43.348-103.872-99.027l-53.969-1416.269C525.818,1423.031,581.289,1364.446,651.418,1363.288z"/>
			<path style="opacity:0.47;fill:#FFFFFF;" d="M698.626,1436.127l2241.53-36.302c90.245-1.462,162.679,72.717,157.317,161.104
				l-77.155,1271.568c-4.223,69.592-62.63,124.106-133.691,124.78l-2154.652,20.421c-53.22,0.504-97.191-40.62-99.218-92.794
				l-51.551-1327.119C578.654,1492.11,631.64,1437.212,698.626,1436.127z"/>
			<g>
				<path style="opacity:0.53;fill:#FFFFFF;" d="M1360.225,1619.871l-657.153,1.73c-1.365,0.004-2.474-1.1-2.478-2.465l-0.141-53.44
					c-0.004-1.365,1.1-2.474,2.464-2.478l657.153-1.73c1.365-0.004,2.474,1.1,2.478,2.465l0.141,53.441
					C1362.693,1618.759,1361.589,1619.868,1360.225,1619.871z"/>
				<path style="opacity:0.53;fill:#FFFFFF;" d="M1774.775,1620.049l-227.576,0.599c-1.31,0.003-2.374-1.055-2.377-2.365
					l-0.141-53.641c-0.003-1.309,1.055-2.374,2.365-2.377l227.576-0.599c1.309-0.004,2.374,1.055,2.377,2.365l0.141,53.64
					C1777.143,1618.981,1776.085,1620.046,1774.775,1620.049z"/>
				<path style="opacity:0.53;fill:#FFFFFF;" d="M2280.073,1618.719l-451.283,1.188c-2.082,0.005-3.774-1.678-3.779-3.759
					l-0.134-50.844c-0.005-2.082,1.678-3.774,3.759-3.779l451.282-1.188c2.082-0.005,3.774,1.678,3.779,3.759l0.134,50.844
					C2283.838,1617.021,2282.155,1618.713,2280.073,1618.719z"/>
				<path style="opacity:0.53;fill:#FFFFFF;" d="M873.592,1723.759l-169.95,0.448c-2.082,0.005-3.774-1.678-3.779-3.759
					l-0.134-50.844c-0.005-2.082,1.678-3.774,3.759-3.779l169.95-0.448c2.082-0.005,3.774,1.678,3.779,3.759l0.134,50.844
					C877.357,1722.061,875.674,1723.753,873.592,1723.759z"/>
				<path style="opacity:0.53;fill:#FFFFFF;" d="M1361.806,1722.578l-476.568,1.255c-1.365,0.004-2.474-1.1-2.478-2.465
					l-0.141-53.441c-0.004-1.365,1.1-2.474,2.465-2.478l476.568-1.255c1.365-0.004,2.474,1.1,2.478,2.465l0.141,53.441
					C1364.274,1721.465,1363.17,1722.574,1361.806,1722.578z"/>
				<path style="opacity:0.53;fill:#FFFFFF;" d="M1776.912,1722.754l-227.576,0.599c-1.309,0.003-2.374-1.055-2.377-2.365
					l-0.141-53.64c-0.004-1.31,1.055-2.374,2.365-2.377l227.576-0.599c1.31-0.004,2.374,1.055,2.377,2.365l0.141,53.64
					C1779.281,1721.686,1778.222,1722.75,1776.912,1722.754z"/>
				<path style="opacity:0.53;fill:#FFFFFF;" d="M2655.983,1720.439l-664.608,1.75c-2.082,0.005-3.774-1.678-3.779-3.759
					l-0.134-50.844c-0.005-2.082,1.678-3.774,3.759-3.779l664.608-1.75c2.082-0.005,3.774,1.678,3.779,3.759l0.134,50.844
					C2659.748,1718.742,2658.065,1720.434,2655.983,1720.439z"/>
				<path style="opacity:0.53;fill:#FFFFFF;" d="M873.732,1826.319l-169.95,0.448c-2.082,0.005-3.774-1.678-3.779-3.759
					l-0.134-50.844c-0.005-2.082,1.678-3.774,3.759-3.779l169.95-0.447c2.082-0.005,3.774,1.678,3.779,3.759l0.134,50.844
					C877.497,1824.621,875.814,1826.313,873.732,1826.319z"/>
				<path style="opacity:0.53;fill:#FFFFFF;" d="M1361.845,1825.139l-476.568,1.255c-1.365,0.004-2.474-1.1-2.478-2.465
					l-0.141-53.44c-0.004-1.365,1.1-2.474,2.465-2.478l476.568-1.255c1.365-0.004,2.474,1.1,2.478,2.465l0.141,53.44
					C1364.313,1824.026,1363.21,1825.135,1361.845,1825.139z"/>
				<path style="opacity:0.53;fill:#FFFFFF;" d="M1777.013,1825.314l-227.576,0.599c-1.309,0.003-2.374-1.055-2.377-2.365
					l-0.141-53.64c-0.004-1.31,1.055-2.374,2.365-2.377l227.576-0.599c1.31-0.004,2.374,1.055,2.377,2.365l0.141,53.64
					C1779.381,1824.246,1778.322,1825.311,1777.013,1825.314z"/>
				<path style="opacity:0.53;fill:#FFFFFF;" d="M2942.211,1822.246l-868.313,2.286c-2.082,0.005-3.774-1.678-3.779-3.759
					l-0.134-50.844c-0.006-2.082,1.677-3.774,3.759-3.779l868.313-2.286c2.082-0.005,3.774,1.678,3.779,3.759l0.134,50.844
					C2945.976,1820.549,2944.292,1822.241,2942.211,1822.246z"/>
				<path style="opacity:0.53;fill:#FFFFFF;" d="M875.429,1929.025l-169.95,0.447c-2.082,0.005-3.774-1.678-3.779-3.759
					l-0.134-50.844c-0.005-2.082,1.678-3.774,3.759-3.779l169.95-0.448c2.082-0.005,3.774,1.678,3.779,3.759l0.134,50.844
					C879.194,1927.327,877.51,1929.019,875.429,1929.025z"/>
				<path style="opacity:0.53;fill:#FFFFFF;" d="M1364.647,1927.842l-476.568,1.255c-1.365,0.004-2.474-1.1-2.478-2.465
					l-0.141-53.441c-0.004-1.365,1.1-2.474,2.465-2.478l476.568-1.255c1.365-0.004,2.474,1.1,2.478,2.465l0.141,53.441
					C1367.115,1926.729,1366.011,1927.839,1364.647,1927.842z"/>
				<path style="opacity:0.53;fill:#FFFFFF;" d="M1779.15,1928.018l-227.576,0.599c-1.309,0.003-2.374-1.055-2.377-2.365
					l-0.141-53.64c-0.003-1.31,1.055-2.374,2.365-2.377l227.576-0.599c1.309-0.004,2.374,1.055,2.377,2.365l0.141,53.64
					C1781.518,1926.951,1780.459,1928.015,1779.15,1928.018z"/>
				<path style="opacity:0.53;fill:#FFFFFF;" d="M2947.085,1924.943l-868.313,2.286c-2.082,0.005-3.774-1.678-3.779-3.759
					l-0.134-50.844c-0.005-2.082,1.678-3.774,3.76-3.779l868.313-2.286c2.082-0.005,3.774,1.678,3.779,3.759l0.134,50.844
					C2950.85,1923.246,2949.167,1924.938,2947.085,1924.943z"/>
				<path style="opacity:0.53;fill:#FFFFFF;" d="M875.171,2035.601l-169.95,0.448c-2.082,0.005-3.774-1.678-3.779-3.759
					l-0.134-50.844c-0.005-2.082,1.678-3.774,3.759-3.779l169.95-0.447c2.082-0.005,3.774,1.678,3.779,3.759l0.134,50.844
					C878.936,2033.903,877.253,2035.595,875.171,2035.601z"/>
				<path style="opacity:0.53;fill:#FFFFFF;" d="M1363.972,2034.42l-476.568,1.255c-1.365,0.004-2.474-1.1-2.478-2.465l-0.141-53.44
					c-0.004-1.365,1.1-2.474,2.465-2.478l476.568-1.255c1.365-0.004,2.474,1.1,2.478,2.465l0.141,53.44
					C1366.44,2033.307,1365.337,2034.416,1363.972,2034.42z"/>
				<path style="opacity:0.53;fill:#FFFFFF;" d="M1778.726,2034.595l-227.576,0.599c-1.31,0.003-2.374-1.055-2.377-2.365
					l-0.141-53.64c-0.003-1.309,1.055-2.374,2.365-2.377l227.576-0.599c1.31-0.004,2.374,1.055,2.377,2.365l0.141,53.64
					C1781.094,2033.527,1780.035,2034.592,1778.726,2034.595z"/>
				<path style="opacity:0.53;fill:#FFFFFF;" d="M2945.628,2031.523l-868.313,2.286c-2.082,0.005-3.774-1.678-3.779-3.759
					l-0.134-50.844c-0.006-2.082,1.677-3.774,3.759-3.779l868.313-2.286c2.082-0.005,3.774,1.678,3.779,3.759l0.134,50.844
					C2949.393,2029.825,2947.71,2031.517,2945.628,2031.523z"/>
				<path style="opacity:0.53;fill:#FFFFFF;" d="M876.868,2138.306l-169.95,0.448c-2.082,0.005-3.774-1.678-3.779-3.76
					l-0.134-50.844c-0.005-2.082,1.678-3.774,3.759-3.779l169.95-0.448c2.082-0.005,3.774,1.678,3.779,3.76l0.134,50.844
					C880.633,2136.609,878.95,2138.301,876.868,2138.306z"/>
				<path style="opacity:0.53;fill:#FFFFFF;" d="M1366.774,2137.123l-476.568,1.255c-1.365,0.004-2.474-1.1-2.478-2.465
					l-0.141-53.44c-0.004-1.365,1.1-2.474,2.465-2.478l476.568-1.255c1.365-0.004,2.474,1.1,2.478,2.465l0.141,53.44
					C1369.242,2136.01,1368.138,2137.12,1366.774,2137.123z"/>
				<path style="opacity:0.53;fill:#FFFFFF;" d="M1780.863,2137.3l-227.576,0.599c-1.309,0.003-2.374-1.055-2.377-2.365
					l-0.141-53.64c-0.003-1.31,1.055-2.374,2.365-2.377l227.576-0.599c1.309-0.003,2.374,1.055,2.377,2.365l0.141,53.64
					C1783.232,2136.232,1782.173,2137.296,1780.863,2137.3z"/>
				<path style="opacity:0.53;fill:#FFFFFF;" d="M2359.222,2135.777l-529.069,1.393c-2.082,0.006-3.774-1.677-3.779-3.759
					l-0.134-50.844c-0.005-2.082,1.678-3.774,3.759-3.779l529.07-1.393c2.082-0.005,3.774,1.678,3.779,3.76l0.134,50.844
					C2362.987,2134.079,2361.304,2135.771,2359.222,2135.777z"/>
				<path style="opacity:0.53;fill:#FFFFFF;" d="M1367.168,2239.683l-660.76,1.74c-1.365,0.003-2.474-1.1-2.478-2.465l-0.141-53.441
					c-0.004-1.365,1.1-2.474,2.464-2.478l660.76-1.74c1.365-0.004,2.474,1.1,2.478,2.465l0.141,53.44
					C1369.636,2238.571,1368.533,2239.68,1367.168,2239.683z"/>
				<path style="opacity:0.53;fill:#FFFFFF;" d="M1780.964,2239.86l-227.576,0.599c-1.309,0.003-2.374-1.055-2.377-2.365
					l-0.141-53.64c-0.003-1.31,1.055-2.374,2.365-2.377l227.576-0.599c1.309-0.003,2.374,1.055,2.377,2.365l0.141,53.64
					C1783.332,2238.792,1782.273,2239.856,1780.964,2239.86z"/>
				<path style="opacity:0.53;fill:#FFFFFF;" d="M2612.824,2237.67l-661.465,1.741c-2.082,0.005-3.774-1.678-3.779-3.76
					l-0.134-50.844c-0.005-2.082,1.678-3.774,3.759-3.779l661.465-1.741c2.082-0.005,3.774,1.678,3.779,3.759l0.134,50.844
					C2616.589,2235.972,2614.906,2237.664,2612.824,2237.67z"/>
				<path style="opacity:0.53;fill:#FFFFFF;" d="M872.024,2343.59l-162.855,0.429c-2.082,0.005-3.774-1.678-3.779-3.76
					l-0.134-50.844c-0.005-2.082,1.678-3.774,3.759-3.779l162.854-0.429c2.082-0.006,3.774,1.677,3.779,3.759l0.134,50.844
					C875.789,2341.892,874.106,2343.584,872.024,2343.59z"/>
				<path style="opacity:0.53;fill:#FFFFFF;" d="M1369.615,2342.388l-476.568,1.254c-1.365,0.004-2.474-1.1-2.478-2.465
					l-0.141-53.44c-0.004-1.365,1.1-2.474,2.465-2.478l476.568-1.255c1.365-0.004,2.474,1.1,2.478,2.465l0.141,53.44
					C1372.083,2341.275,1370.979,2342.384,1369.615,2342.388z"/>
				<path style="opacity:0.53;fill:#FFFFFF;" d="M1783.101,2342.564l-227.576,0.599c-1.31,0.003-2.374-1.055-2.377-2.365
					l-0.141-53.64c-0.003-1.31,1.055-2.374,2.365-2.377l227.576-0.599c1.31-0.003,2.374,1.055,2.377,2.365l0.141,53.64
					C1785.469,2341.497,1784.41,2342.561,1783.101,2342.564z"/>
				<path style="opacity:0.53;fill:#FFFFFF;" d="M2952.214,2339.486l-898.063,2.365c-2.082,0.005-3.774-1.678-3.779-3.76
					l-0.134-50.844c-0.005-2.082,1.678-3.774,3.76-3.779l898.062-2.365c2.082-0.006,3.774,1.677,3.779,3.759l0.134,50.844
					C2955.979,2337.789,2954.296,2339.481,2952.214,2339.486z"/>
				<path style="opacity:0.53;fill:#FFFFFF;" d="M875.831,2650.085l-169.95,0.448c-2.082,0.005-3.774-1.678-3.779-3.76
					l-0.134-50.844c-0.005-2.082,1.678-3.774,3.759-3.779l169.95-0.448c2.082-0.005,3.774,1.677,3.779,3.759l0.134,50.844
					C879.596,2648.387,877.913,2650.079,875.831,2650.085z"/>
				<path style="opacity:0.53;fill:#FFFFFF;" d="M1365.97,2648.904l-476.568,1.255c-1.365,0.004-2.474-1.1-2.478-2.465l-0.141-53.44
					c-0.004-1.365,1.1-2.474,2.465-2.478l476.568-1.255c1.365-0.004,2.474,1.1,2.478,2.465l0.141,53.44
					C1368.438,2647.791,1367.335,2648.9,1365.97,2648.904z"/>
				<path style="opacity:0.53;fill:#FFFFFF;" d="M1779.827,2649.078l-227.576,0.599c-1.309,0.003-2.374-1.055-2.377-2.365
					l-0.141-53.64c-0.003-1.31,1.055-2.374,2.365-2.377l227.576-0.599c1.309-0.004,2.374,1.055,2.377,2.365l0.141,53.64
					C1782.195,2648.01,1781.136,2649.074,1779.827,2649.078z"/>
				<path style="opacity:0.53;fill:#FFFFFF;" d="M2358.186,2647.555l-529.07,1.393c-2.082,0.005-3.774-1.678-3.779-3.76
					l-0.134-50.844c-0.005-2.082,1.678-3.774,3.759-3.779l529.069-1.393c2.082-0.006,3.774,1.677,3.779,3.759l0.134,50.844
					C2361.95,2645.858,2360.267,2647.55,2358.186,2647.555z"/>
				<path style="opacity:0.53;fill:#FFFFFF;" d="M1366.364,2751.464l-660.76,1.74c-1.365,0.003-2.474-1.1-2.478-2.465l-0.141-53.441
					c-0.004-1.365,1.1-2.474,2.465-2.478l660.76-1.74c1.365-0.003,2.474,1.1,2.478,2.465l0.141,53.441
					C1368.832,2750.351,1367.729,2751.46,1366.364,2751.464z"/>
				<path style="opacity:0.53;fill:#FFFFFF;" d="M1779.927,2751.638l-227.576,0.599c-1.309,0.003-2.374-1.055-2.377-2.365
					l-0.141-53.64c-0.003-1.31,1.055-2.374,2.365-2.377l227.576-0.599c1.309-0.003,2.374,1.055,2.377,2.365l0.141,53.64
					C1782.295,2750.571,1781.236,2751.635,1779.927,2751.638z"/>
				<path style="opacity:0.53;fill:#FFFFFF;" d="M2611.428,2749.449l-661.465,1.741c-2.082,0.006-3.774-1.678-3.779-3.759
					l-0.134-50.844c-0.005-2.082,1.678-3.774,3.759-3.779l661.466-1.742c2.082-0.005,3.774,1.678,3.779,3.76l0.134,50.844
					C2615.193,2747.752,2613.51,2749.444,2611.428,2749.449z"/>
				<path style="opacity:0.53;fill:#FFFFFF;" d="M870.988,2855.368l-162.855,0.429c-2.082,0.005-3.774-1.678-3.779-3.76
					l-0.134-50.844c-0.005-2.082,1.678-3.774,3.759-3.779l162.854-0.429c2.082-0.005,3.774,1.678,3.779,3.76l0.134,50.844
					C874.753,2853.671,873.069,2855.363,870.988,2855.368z"/>
				<path style="opacity:0.53;fill:#FFFFFF;" d="M1368.811,2854.168l-476.568,1.255c-1.365,0.003-2.474-1.1-2.478-2.465
					l-0.141-53.441c-0.004-1.365,1.1-2.474,2.465-2.478l476.568-1.255c1.365-0.004,2.474,1.1,2.478,2.465l0.141,53.44
					C1371.279,2853.055,1370.176,2854.164,1368.811,2854.168z"/>
				<path style="opacity:0.53;fill:#FFFFFF;" d="M1782.064,2854.343l-227.576,0.599c-1.31,0.003-2.374-1.055-2.377-2.365
					l-0.141-53.64c-0.003-1.31,1.055-2.374,2.365-2.377l227.576-0.599c1.31-0.003,2.374,1.055,2.377,2.365l0.141,53.64
					C1784.433,2853.275,1783.374,2854.339,1782.064,2854.343z"/>
				<path style="opacity:0.53;fill:#FFFFFF;" d="M2950.818,2851.266l-898.063,2.365c-2.082,0.005-3.774-1.678-3.779-3.759
					l-0.134-50.844c-0.006-2.082,1.677-3.774,3.759-3.779l898.062-2.365c2.082-0.006,3.774,1.677,3.779,3.759l0.134,50.844
					C2954.583,2849.568,2952.899,2851.26,2950.818,2851.266z"/>
				<path style="opacity:0.53;fill:#FFFFFF;" d="M870.307,2448.055l-162.854,0.429c-2.082,0.005-3.774-1.678-3.779-3.76
					l-0.134-50.844c-0.005-2.082,1.678-3.774,3.759-3.779l162.855-0.429c2.082-0.005,3.774,1.678,3.779,3.76l0.134,50.844
					C874.072,2446.357,872.389,2448.049,870.307,2448.055z"/>
				<path style="opacity:0.53;fill:#FFFFFF;" d="M1366.208,2446.857l-476.568,1.255c-1.365,0.004-2.474-1.1-2.478-2.465
					l-0.141-53.44c-0.004-1.365,1.1-2.474,2.465-2.478l476.568-1.255c1.365-0.003,2.474,1.1,2.478,2.465l0.141,53.441
					C1368.676,2445.745,1367.573,2446.854,1366.208,2446.857z"/>
				<path style="opacity:0.53;fill:#FFFFFF;" d="M1780.66,2447.031l-227.576,0.599c-1.309,0.003-2.374-1.055-2.377-2.365
					l-0.141-53.64c-0.003-1.309,1.055-2.374,2.365-2.377l227.576-0.599c1.309-0.003,2.374,1.055,2.377,2.365l0.141,53.64
					C1783.029,2445.963,1781.97,2447.028,1780.66,2447.031z"/>
				<path style="opacity:0.53;fill:#FFFFFF;" d="M2945.565,2443.964l-898.062,2.364c-2.082,0.006-3.774-1.677-3.779-3.759
					l-0.134-50.844c-0.005-2.082,1.678-3.774,3.759-3.779l898.063-2.365c2.082-0.005,3.774,1.678,3.779,3.76l0.134,50.844
					C2949.33,2442.267,2947.647,2443.959,2945.565,2443.964z"/>
				<path style="opacity:0.53;fill:#FFFFFF;" d="M871.947,2550.761l-162.855,0.429c-2.082,0.005-3.774-1.678-3.779-3.76
					l-0.134-50.844c-0.006-2.082,1.678-3.774,3.759-3.779l162.855-0.429c2.082-0.005,3.774,1.678,3.779,3.76l0.134,50.844
					C875.712,2549.063,874.029,2550.755,871.947,2550.761z"/>
				<path style="opacity:0.53;fill:#FFFFFF;" d="M1369.01,2549.561l-476.568,1.254c-1.365,0.004-2.474-1.1-2.478-2.464
					l-0.141-53.441c-0.003-1.365,1.1-2.474,2.465-2.478l476.568-1.255c1.365-0.004,2.474,1.1,2.478,2.465l0.141,53.44
					C1371.478,2548.448,1370.375,2549.557,1369.01,2549.561z"/>
				<path style="opacity:0.53;fill:#FFFFFF;" d="M1782.798,2549.736l-227.576,0.599c-1.309,0.003-2.374-1.055-2.377-2.365
					l-0.141-53.64c-0.003-1.31,1.055-2.374,2.365-2.377l227.576-0.599c1.31-0.003,2.374,1.055,2.377,2.365l0.141,53.64
					C1785.166,2548.668,1784.107,2549.732,1782.798,2549.736z"/>
				<path style="opacity:0.53;fill:#FFFFFF;" d="M2950.596,2546.661l-898.062,2.365c-2.082,0.005-3.774-1.678-3.779-3.76
					l-0.134-50.844c-0.006-2.082,1.677-3.774,3.759-3.779l898.063-2.364c2.082-0.006,3.774,1.677,3.779,3.759l0.134,50.844
					C2954.361,2544.964,2952.678,2546.656,2950.596,2546.661z"/>
				<path style="opacity:0.53;fill:#FFFFFF;" d="M1470.772,2923.043l-18.664,0.049c-0.764,0.002-1.385-0.616-1.387-1.38
					l-3.781-1435.997c-0.002-0.764,0.616-1.385,1.38-1.387l18.664-0.049c0.764-0.002,1.385,0.616,1.387,1.38l3.781,1435.997
					C1472.154,2922.42,1471.536,2923.042,1470.772,2923.043z"/>
			</g>
		</g>
		<g>
			<g>
				
					<linearGradient id="SVGID_00000046326527820288278500000007064413559097886646_" gradientUnits="userSpaceOnUse" x1="1445.6588" y1="3049.4431" x2="1440.8716" y2="3123.6438">
					<stop  offset="0" style="stop-color:#2B3582"/>
					<stop  offset="1" style="stop-color:#150E42"/>
				</linearGradient>
				<path style="fill:url(#SVGID_00000046326527820288278500000007064413559097886646_);" d="M2080.635,3182.81H790.779
					c-11.531,0-20.879,9.348-20.879,20.879c0,11.531,9.347,20.878,20.879,20.878h1289.856c11.531,0,20.879-9.348,20.879-20.878
					C2101.514,3192.158,2092.167,3182.81,2080.635,3182.81z"/>
				
					<linearGradient id="SVGID_00000142170386115685151430000012528688405085151625_" gradientUnits="userSpaceOnUse" x1="1447.5347" y1="2844.4895" x2="1430.7793" y2="3208.3137">
					<stop  offset="0" style="stop-color:#2B3582"/>
					<stop  offset="1" style="stop-color:#150E42"/>
				</linearGradient>
				<path style="fill:url(#SVGID_00000142170386115685151430000012528688405085151625_);" d="M1897.939,2970.529H973.476
					c-27.87,0-50.463,22.594-50.463,50.463v161.818h1025.389v-161.818C1948.402,2993.122,1925.809,2970.529,1897.939,2970.529z"/>
				
					<linearGradient id="SVGID_00000167396989474961942460000015392130262720487339_" gradientUnits="userSpaceOnUse" x1="1445.3683" y1="2745.5823" x2="1431.0067" y2="3049.5664">
					<stop  offset="0" style="stop-color:#2B3582"/>
					<stop  offset="1" style="stop-color:#150E42"/>
				</linearGradient>
				<path style="fill:url(#SVGID_00000167396989474961942460000015392130262720487339_);" d="M1829.544,2880.361h-787.673
					c-27.87,0-50.463,22.594-50.463,50.463v39.705h888.599v-39.705C1880.007,2902.954,1857.414,2880.361,1829.544,2880.361z"/>
				
					<linearGradient id="SVGID_00000063612543231843577090000005497074845681727619_" gradientUnits="userSpaceOnUse" x1="1451.8773" y1="2532.4746" x2="1430.3013" y2="2827.3486">
					<stop  offset="0" style="stop-color:#CB236D"/>
					<stop  offset="1" style="stop-color:#4C246D"/>
				</linearGradient>
				<path style="fill:url(#SVGID_00000063612543231843577090000005497074845681727619_);" d="M1672.979,2880.361h-474.544v-253.316
					c0-6.993,5.669-12.661,12.661-12.661h449.222c6.993,0,12.661,5.669,12.661,12.661V2880.361z"/>
			</g>
			<g>
				<g>
					
						<linearGradient id="SVGID_00000116234416949275598240000000423634439010265777_" gradientUnits="userSpaceOnUse" x1="-1236.4954" y1="1000.1885" x2="-1132.3281" y2="1000.1885" gradientTransform="matrix(0.7357 -0.6774 0.6774 0.7357 1203.8007 712.3969)">
						<stop  offset="0" style="stop-color:#2B3582"/>
						<stop  offset="1" style="stop-color:#150E42"/>
					</linearGradient>
					<path style="fill:url(#SVGID_00000116234416949275598240000000423634439010265777_);" d="M661.865,1853.457
						c-11.563,10.646-12.568,28.555-2.27,40.429l649.363,758.283c10.74,12.383,29.589,13.441,41.647,2.338l55.247-50.868
						l-715.161-776.723L661.865,1853.457z"/>
					
						<linearGradient id="SVGID_00000073689482691373858260000013131321151208622750_" gradientUnits="userSpaceOnUse" x1="-1166.0353" y1="911.9684" x2="-913.4047" y2="911.9684" gradientTransform="matrix(0.7357 -0.6774 0.6774 0.7357 1203.8007 712.3969)">
						<stop  offset="0" style="stop-color:#2B3582"/>
						<stop  offset="1" style="stop-color:#150E42"/>
					</linearGradient>
					<path style="fill:url(#SVGID_00000073689482691373858260000013131321151208622750_);" d="M750.787,1609.835
						c-22.106-23.042-58.581-24.172-82.072-2.543l-58.239,53.623c-23.49,21.629-25.37,58.073-4.228,82.002l774.811,883.549
						l162.415-149.542c13.172-12.127,13.771-32.722,1.328-45.596L750.787,1609.835z"/>
					
						<linearGradient id="SVGID_00000082363486386347285510000010386214571298302610_" gradientUnits="userSpaceOnUse" x1="-860.2051" y1="380.4404" x2="-1093.2568" y2="1060.7643" gradientTransform="matrix(0.7357 -0.6774 0.6774 0.7357 1203.8007 712.3969)">
						<stop  offset="0" style="stop-color:#53D8FF"/>
						<stop  offset="1" style="stop-color:#3840F7"/>
					</linearGradient>
					<path style="fill:url(#SVGID_00000082363486386347285510000010386214571298302610_);" d="M806.355,1794.967l-6.092,5.609
						c-18.862,17.367-20.073,46.735-2.707,65.596l408.874,444.071c17.366,18.861,46.734,20.073,65.596,2.707l6.092-5.609
						c18.861-17.366,20.073-46.735,2.707-65.596l-408.875-444.071C854.584,1778.812,825.216,1777.6,806.355,1794.967z"/>
					
						<rect x="1027.522" y="1705.717" transform="matrix(0.7357 -0.6773 0.6773 0.7357 -1116.5375 1246.8043)" style="opacity:0.39;fill:#FFFFFF;" width="23.337" height="696.483"/>
				</g>
				<g>
					
						<linearGradient id="SVGID_00000042000325129921103870000011866353563856211600_" gradientUnits="userSpaceOnUse" x1="-1281.9341" y1="1517.7544" x2="-867.9669" y2="1517.7544" gradientTransform="matrix(0.7357 -0.6774 0.6774 0.7357 1203.8007 712.3969)">
						<stop  offset="0" style="stop-color:#53D8FF"/>
						<stop  offset="1" style="stop-color:#3840F7"/>
					</linearGradient>
					
						<circle style="fill:url(#SVGID_00000042000325129921103870000011866353563856211600_);" cx="1441.087" cy="2557.18" r="206.997"/>
					
						<ellipse transform="matrix(0.7071 -0.7071 0.7071 0.7071 -1386.1151 1767.9828)" style="opacity:0.39;fill:#FFFFFF;" cx="1441.087" cy="2557.18" rx="158.118" ry="158.118"/>
				</g>
			</g>
			<g>
				<g>
					
						<linearGradient id="SVGID_00000180354593165062928590000012073537188058164629_" gradientUnits="userSpaceOnUse" x1="-1520.4969" y1="116.3147" x2="-1491.7809" y2="-84.6979" gradientTransform="matrix(0.5261 -0.8505 0.8505 0.5261 1835.9585 136.0775)">
						<stop  offset="0" style="stop-color:#2B3582"/>
						<stop  offset="1" style="stop-color:#150E42"/>
					</linearGradient>
					<path style="fill:url(#SVGID_00000180354593165062928590000012073537188058164629_);" d="M748.347,1717.399l51.286,31.727
						c11.194,6.925,25.896,3.23,32.486-8.165l396.973-696.507c6.318-10.926,2.807-24.896-7.926-31.536l-26.76-16.554
						L748.347,1717.399z"/>
					
						<linearGradient id="SVGID_00000023997636459860034600000012353822302269498788_" gradientUnits="userSpaceOnUse" x1="-1916.856" y1="-167.4417" x2="-927.3609" y2="-167.4417" gradientTransform="matrix(0.5261 -0.8505 0.8505 0.5261 1835.9585 136.0775)">
						<stop  offset="0" style="stop-color:#2B3582"/>
						<stop  offset="1" style="stop-color:#150E42"/>
					</linearGradient>
					<path style="fill:url(#SVGID_00000023997636459860034600000012353822302269498788_);" d="M1178.401,819.842l54.064,33.446
						c21.806,13.49,28.819,41.943,15.779,64.022l-476.883,814.327l-150.77-93.272c-12.227-7.564-15.826-23.714-7.968-35.754
						l501.445-768.307C1128.004,812.779,1156.594,806.352,1178.401,819.842z"/>
					
						<linearGradient id="SVGID_00000065066969096445561530000003272009200787571859_" gradientUnits="userSpaceOnUse" x1="-1399.562" y1="-369.4185" x2="-1458.9575" y2="-21.5305" gradientTransform="matrix(0.5261 -0.8505 0.8505 0.5261 1835.9585 136.0775)">
						<stop  offset="0" style="stop-color:#53D8FF"/>
						<stop  offset="1" style="stop-color:#3840F7"/>
					</linearGradient>
					<path style="fill:url(#SVGID_00000065066969096445561530000003272009200787571859_);" d="M1031.821,1025.405l-266.653,431.033
						c-11.798,19.071-5.902,44.094,13.169,55.892c19.071,11.798,44.094,5.902,55.892-13.169l266.653-431.033
						c11.798-19.07,5.902-44.094-13.169-55.892C1068.643,1000.438,1043.619,1006.334,1031.821,1025.405z"/>
					
						<rect x="923.655" y="968.256" transform="matrix(-0.8504 -0.5261 0.5261 -0.8504 1062.4196 2826.6204)" style="opacity:0.39;fill:#FFFFFF;" width="18.74" height="588.054"/>
				</g>
				<g>
					
						<linearGradient id="SVGID_00000077301883098595881350000011723289588053206403_" gradientUnits="userSpaceOnUse" x1="-2074.7864" y1="-139.1509" x2="-1742.3586" y2="-139.1509" gradientTransform="matrix(0.5261 -0.8505 0.8505 0.5261 1835.9585 136.0775)">
						<stop  offset="0" style="stop-color:#53D8FF"/>
						<stop  offset="1" style="stop-color:#3840F7"/>
					</linearGradient>
					
						<circle style="fill:url(#SVGID_00000077301883098595881350000011723289588053206403_);" cx="713.511" cy="1686.111" r="166.225"/>
					
						<ellipse transform="matrix(0.7071 -0.7071 0.7071 0.7071 -983.2782 998.3788)" style="opacity:0.39;fill:#FFFFFF;" cx="713.511" cy="1686.111" rx="126.974" ry="126.973"/>
				</g>
			</g>
			<g>
				
					<linearGradient id="SVGID_00000054263716372935214350000012694159174980550543_" gradientUnits="userSpaceOnUse" x1="2940.7361" y1="245.2295" x2="3526.9336" y2="245.2295" gradientTransform="matrix(0.8544 0.5197 -0.5197 0.8544 -1162.999 -912.0317)">
					<stop  offset="0" style="stop-color:#2B3582"/>
					<stop  offset="1" style="stop-color:#150E42"/>
				</linearGradient>
				<path style="fill:url(#SVGID_00000054263716372935214350000012694159174980550543_);" d="M1736.055,1108.923l-25.934,42.634
					c-10.461,17.196-29.379,24.921-42.569,17.381L1180.74,893.824l72.324-118.896c5.865-9.642,16.573-13.747,23.705-9.088
					l455.146,297.289C1744.676,1071.375,1746.515,1091.727,1736.055,1108.923z"/>
			</g>
			<g>
				
					<linearGradient id="SVGID_00000042718810709166538260000009252549030747590272_" gradientUnits="userSpaceOnUse" x1="3163.2129" y1="60.7581" x2="2737.176" y2="465.2541" gradientTransform="matrix(0.8544 0.5197 -0.5197 0.8544 -1162.999 -912.0317)">
					<stop  offset="0" style="stop-color:#53D8FF"/>
					<stop  offset="1" style="stop-color:#3840F7"/>
				</linearGradient>
				
					<circle style="fill:url(#SVGID_00000042718810709166538260000009252549030747590272_);" cx="1246.198" cy="840.439" r="130.48"/>
				<circle style="opacity:0.39;fill:#FFFFFF;" cx="1246.198" cy="840.439" r="99.669"/>
			</g>
			
				<linearGradient id="SVGID_00000127745185827908016440000000532626276409116312_" gradientUnits="userSpaceOnUse" x1="4063.4321" y1="146.6797" x2="3711.3435" y2="142.4376" gradientTransform="matrix(0.8544 0.5197 -0.5197 0.8544 -1162.999 -912.0317)">
				<stop  offset="0" style="stop-color:#53D8FF"/>
				<stop  offset="1" style="stop-color:#3840F7"/>
			</linearGradient>
			<polygon style="fill:url(#SVGID_00000127745185827908016440000000532626276409116312_);" points="1818.368,1121.059 
				1927.384,1042.357 2078.436,1226.074 2055.536,1253.115 1918.964,1106.61 1834.598,1168.363 			"/>
			<g>
				<g style="opacity:0.3;">
					
						<linearGradient id="SVGID_00000077294543108047520660000003601435518835032248_" gradientUnits="userSpaceOnUse" x1="1706.8059" y1="-5161.7949" x2="2577.0481" y2="-5161.7949" gradientTransform="matrix(-0.2368 0.9715 -0.9715 -0.2368 -1920.8091 -1989.8759)">
						<stop  offset="0" style="stop-color:#B37CFF"/>
						<stop  offset="1" style="stop-color:#F895E7"/>
					</linearGradient>
					<path style="fill:url(#SVGID_00000077294543108047520660000003601435518835032248_);" d="M2351.589,827.081
						c1.826-7.492,9.057-12.547,16.864-11.487c17.077,2.313,34.307,5.406,51.211,9.186c8.224,1.84,13.401,9.995,11.562,18.218
						c-0.024,0.098-0.047,0.194-0.071,0.289c-1.963,8.054-10.023,13.088-18.149,11.27c-16.06-3.593-32.427-6.528-48.648-8.728
						c-8.348-1.13-14.203-8.817-13.07-17.168C2351.359,828.124,2351.463,827.597,2351.589,827.081z M2480.478,859.513
						c0.141-0.579,0.319-1.158,0.532-1.732c2.943-7.895,11.73-11.911,19.625-8.968c16.215,6.048,32.333,12.848,47.903,20.213
						c7.617,3.602,10.863,12.659,7.272,20.315c-3.605,7.616-12.702,10.867-20.313,7.267c-14.8-7-30.111-13.459-45.524-19.203
						C2482.651,874.675,2478.672,866.921,2480.478,859.513z M2599.021,919.517c0.402-1.65,1.09-3.261,2.075-4.763
						c4.63-7.039,14.087-8.999,21.129-4.372c14.434,9.481,28.636,19.712,42.21,30.406c6.616,5.219,7.744,14.808,2.543,21.426
						c-5.214,6.617-14.809,7.755-21.426,2.542c-12.889-10.156-26.372-19.867-40.081-28.874
						C2599.93,932.243,2597.536,925.608,2599.021,919.517z M2701.19,1004.54c0.665-2.727,2.09-5.302,4.267-7.388
						c6.083-5.829,15.741-5.62,21.57,0.461c11.954,12.483,23.513,25.63,34.355,39.078c5.277,6.559,4.249,16.159-2.304,21.452
						c-6.558,5.287-16.163,4.255-21.453-2.304c-10.295-12.771-21.272-25.261-32.636-37.118
						C2701.25,1014.814,2699.997,1009.436,2701.19,1004.54z M2781.833,1110.21c0.932-3.825,3.335-7.287,6.976-9.469
						c7.227-4.335,16.598-1.989,20.928,5.237c8.866,14.785,17.225,30.16,24.835,45.694c3.714,7.563,0.59,16.705-6.982,20.413
						c-7.565,3.706-16.703,0.581-20.416-6.986c-7.232-14.766-15.178-29.379-23.603-43.43
						C2781.423,1118.084,2780.916,1113.973,2781.833,1110.21z M2837.089,1231.078c1.208-4.953,4.866-9.189,10.066-10.896
						c8.007-2.627,16.624,1.731,19.255,9.735c5.385,16.405,10.136,33.25,14.111,50.06c1.938,8.204-3.137,16.419-11.339,18.358
						c-8.195,1.94-16.416-3.137-18.355-11.335c-3.779-15.974-8.288-31.974-13.406-47.563
						C2836.497,1236.629,2836.438,1233.75,2837.089,1231.078z M2739.979,1782.808c0.5-2.052,1.436-4.029,2.824-5.798
						c10.123-12.891,19.819-26.399,28.814-40.147c4.613-7.049,14.069-9.026,21.115-4.413c7.053,4.611,9.029,14.066,4.415,21.118
						c-9.473,14.479-19.683,28.708-30.341,42.284c-5.204,6.628-14.796,7.781-21.421,2.577
						C2740.523,1794.616,2738.606,1788.441,2739.979,1782.808z M2864.167,1361.103c1.499-6.149,6.756-10.955,13.409-11.575
						c8.392-0.782,15.825,5.385,16.608,13.773c1.604,17.195,2.479,34.668,2.6,51.937c0.02,8.423-6.718,15.306-15.148,15.365
						c-8.424,0.059-15.302-6.724-15.364-15.151c-0.112-16.399-0.944-32.991-2.466-49.319
						C2863.646,1364.398,2863.776,1362.703,2864.167,1361.103z M2809.741,1669.692c0.239-0.978,0.573-1.949,1.019-2.896
						c6.985-14.839,13.417-30.179,19.129-45.587c2.932-7.9,11.71-11.931,19.609-9.003c7.897,2.931,11.969,11.714,9.002,19.609
						c-6.013,16.212-12.781,32.353-20.127,47.969c-3.588,7.624-12.679,10.898-20.3,7.31
						C2811.398,1683.955,2808.059,1676.594,2809.741,1669.692z M2861.521,1493.916c1.823-7.48,9.036-12.534,16.835-11.491
						c8.352,1.116,14.216,8.79,13.106,17.143c-2.285,17.099-5.339,34.33-9.085,51.21c-0.02,0.105-0.046,0.213-0.071,0.317
						c-1.96,8.042-10.002,13.074-18.12,11.276c-8.229-1.825-13.419-9.969-11.592-18.197c3.554-16.036,6.452-32.402,8.621-48.649
						C2861.292,1494.98,2861.393,1494.44,2861.521,1493.916z"/>
					
						<linearGradient id="SVGID_00000157283049708546901960000017810551907749371296_" gradientUnits="userSpaceOnUse" x1="2619.3511" y1="-5390.9966" x2="2670.175" y2="-5390.9966" gradientTransform="matrix(-0.2368 0.9715 -0.9715 -0.2368 -1920.8091 -1989.8759)">
						<stop  offset="0" style="stop-color:#B37CFF"/>
						<stop  offset="1" style="stop-color:#F895E7"/>
					</linearGradient>
					<path style="fill:url(#SVGID_00000157283049708546901960000017810551907749371296_);" d="M2666.472,1860.735
						c0.711-2.918,2.287-5.659,4.71-7.801c5.895-5.209,11.773-10.63,17.488-16.107c6.077-5.833,15.739-5.634,21.568,0.446
						c5.836,6.078,5.644,15.744-0.449,21.571c-6.006,5.765-12.192,11.464-18.393,16.948c-6.31,5.58-15.956,4.989-21.533-1.32
						C2666.421,1870.58,2665.329,1865.425,2666.472,1860.735z"/>
				</g>
				<g style="opacity:0.3;">
					
						<linearGradient id="SVGID_00000124144750843954856270000013392465367586577542_" gradientUnits="userSpaceOnUse" x1="2883.1489" y1="-5002.6294" x2="2918.0249" y2="-5002.6294" gradientTransform="matrix(-0.2368 0.9715 -0.9715 -0.2368 -1920.8091 -1989.8759)">
						<stop  offset="0" style="stop-color:#B37CFF"/>
						<stop  offset="1" style="stop-color:#F895E7"/>
					</linearGradient>
					<path style="fill:url(#SVGID_00000124144750843954856270000013392465367586577542_);" d="M2225.387,2008.309
						c1.744-7.154,8.466-12.185,16.041-11.578c7.839,0.632,15.824,1.109,23.729,1.417c8.421,0.329,14.979,7.421,14.651,15.839
						c-0.331,8.454-7.424,14.979-15.839,14.651c-8.323-0.327-16.733-0.828-24.987-1.491c-8.398-0.676-14.658-8.032-13.985-16.431
						C2225.063,2009.892,2225.198,2009.088,2225.387,2008.309z"/>
					
						<linearGradient id="SVGID_00000108294759328876694300000003099763236261458339_" gradientUnits="userSpaceOnUse" x1="2029.1083" y1="-4605.9272" x2="2925.4775" y2="-4605.9272" gradientTransform="matrix(-0.2368 0.9715 -0.9715 -0.2368 -1920.8091 -1989.8759)">
						<stop  offset="0" style="stop-color:#B37CFF"/>
						<stop  offset="1" style="stop-color:#F895E7"/>
					</linearGradient>
					<path style="fill:url(#SVGID_00000108294759328876694300000003099763236261458339_);" d="M1695.147,1275.87
						c1.662-6.82,3.448-13.638,5.353-20.451c2.272-8.113,10.689-12.852,18.803-10.582c8.114,2.269,12.871,10.735,10.586,18.802
						c-4.398,15.725-8.149,31.592-11.179,47.344c-1.607,8.278-9.588,13.691-17.861,12.1c-8.279-1.592-13.696-9.592-12.102-17.865
						C1690.62,1295.474,1692.775,1285.6,1695.147,1275.87z M1727.449,1179.516c0.202-0.828,0.477-1.653,0.828-2.463
						c6.758-15.622,14.256-31.132,22.283-46.095c3.981-7.423,13.23-10.214,20.651-6.234c7.426,3.985,10.232,13.253,6.232,20.657
						c-7.623,14.212-14.742,28.946-21.17,43.79c-3.344,7.732-12.326,11.287-20.055,7.943
						C1729.294,1194.117,1725.721,1186.606,1727.449,1179.516z M1679.084,1384.917c1.703-6.988,8.182-12,15.624-11.605
						c8.417,0.448,14.873,7.631,14.429,16.046c-0.857,16.094-1.033,32.444-0.519,48.603c0.253,8.422-6.346,15.465-14.766,15.731
						c-8.425,0.265-15.467-6.347-15.733-14.769c-0.539-17.015-0.352-34.236,0.547-51.185
						C1678.719,1386.769,1678.863,1385.826,1679.084,1384.917z M1792.308,1065.908c0.459-1.882,1.289-3.703,2.498-5.365
						c10.017-13.742,20.744-27.222,31.879-40.064c5.52-6.364,15.152-7.049,21.516-1.53c6.37,5.522,7.059,15.151,1.532,21.52
						c-10.572,12.193-20.758,24.992-30.27,38.045c-4.96,6.811-14.507,8.305-21.313,3.342
						C1793.003,1078.106,1790.888,1071.735,1792.308,1065.908z M1686.654,1515.406c1.397-5.732,6.074-10.376,12.263-11.431
						c8.307-1.417,16.188,4.17,17.605,12.477c2.704,15.88,6.13,31.869,10.177,47.524c2.109,8.157-2.791,16.482-10.954,18.589
						c-8.156,2.106-16.474-2.795-18.583-10.952c-4.263-16.481-7.87-33.314-10.719-50.036
						C1686.082,1519.462,1686.176,1517.368,1686.654,1515.406z M1722.674,1641.077c1.117-4.582,4.337-8.585,9.033-10.513
						c7.796-3.197,16.708,0.531,19.905,8.327c6.133,14.95,12.967,29.816,20.31,44.182c3.846,7.497,0.876,16.686-6.636,20.529
						c-7.504,3.835-16.692,0.862-20.531-6.64c-7.729-15.12-14.919-30.763-21.371-46.496
						C1722.115,1647.372,1721.938,1644.1,1722.674,1641.077z M1785.235,1755.906c0.85-3.485,2.923-6.684,6.1-8.897
						c6.91-4.818,16.42-3.119,21.237,3.794c9.247,13.27,19.15,26.292,29.446,38.708c5.375,6.484,4.486,16.097-2.01,21.481
						c-6.488,5.375-16.101,4.478-21.481-2.01c-10.83-13.067-21.259-26.773-30.988-40.734
						C1784.935,1764.51,1784.235,1760.011,1785.235,1755.906z M1871.344,1854.352c0.589-2.415,1.775-4.717,3.573-6.68
						c5.691-6.213,15.339-6.633,21.55-0.942c11.918,10.922,24.434,21.453,37.206,31.308c6.67,5.147,7.902,14.737,2.764,21.397
						c-5.147,6.673-14.729,7.907-21.399,2.76c-13.454-10.379-26.637-21.471-39.182-32.967
						C1871.606,1865.33,1870.069,1859.583,1871.344,1854.352z M1977.005,1931.521c0.331-1.358,0.859-2.692,1.587-3.965
						c4.181-7.313,13.503-9.852,20.813-5.669c13.997,8.003,28.519,15.515,43.174,22.326c7.642,3.552,10.939,12.647,7.402,20.264
						c-3.55,7.642-12.626,10.956-20.267,7.403c-15.426-7.171-30.717-15.078-45.45-23.506
						C1978.223,1944.92,1975.435,1937.959,1977.005,1931.521z M2096.956,1983.558c0.074-0.304,0.161-0.608,0.253-0.911
						c2.49-8.048,11.034-12.555,19.082-10.064c11.362,3.515,22.964,6.72,34.498,9.532c4.174,1.017,8.355,1.984,12.528,2.907
						c8.229,1.819,13.427,9.962,11.606,18.188c-1.677,8.366-9.958,13.422-18.182,11.607c-4.395-0.97-8.783-1.988-13.178-3.059
						c-12.13-2.957-24.341-6.332-36.29-10.03C2099.526,1999.335,2095.062,1991.331,2096.956,1983.558z"/>
					
						<linearGradient id="SVGID_00000153704106062874035590000015446214456786104714_" gradientUnits="userSpaceOnUse" x1="1939.7611" y1="-4417.0029" x2="1989.9369" y2="-4417.0029" gradientTransform="matrix(-0.2368 0.9715 -0.9715 -0.2368 -1920.8091 -1989.8759)">
						<stop  offset="0" style="stop-color:#B37CFF"/>
						<stop  offset="1" style="stop-color:#F895E7"/>
					</linearGradient>
					<path style="fill:url(#SVGID_00000153704106062874035590000015446214456786104714_);" d="M1880.873,969.137
						c0.718-2.947,2.317-5.707,4.767-7.855c6.215-5.441,12.662-10.852,19.163-16.085c6.564-5.285,16.168-4.248,21.45,2.315
						c5.282,6.565,4.255,16.163-2.315,21.45c-6.175,4.972-12.298,10.113-18.2,15.277c-6.334,5.55-15.973,4.911-21.525-1.428
						C1880.812,978.924,1879.737,973.798,1880.873,969.137z"/>
				</g>
				<g>
					
						<linearGradient id="SVGID_00000049924405817370945090000017821977344436764569_" gradientUnits="userSpaceOnUse" x1="2060.7598" y1="-5351.9487" x2="3460.5869" y2="-2882.3308" gradientTransform="matrix(-0.2368 0.9715 -0.9715 -0.2368 -1920.8091 -1989.8759)">
						<stop  offset="0" style="stop-color:#CB236D"/>
						<stop  offset="1" style="stop-color:#4C246D"/>
					</linearGradient>
					<path style="fill:url(#SVGID_00000049924405817370945090000017821977344436764569_);" d="M2047.915,1031.046
						c-2.745,1.31-4.357,4.218-4.013,7.24l9.81,86.226c-31.629,25.339-59.447,55.903-81.959,91.013l-86.723-0.693
						c-3.043-0.025-5.764,1.884-6.779,4.752l-34.721,98.134c-1.014,2.869-0.096,6.064,2.282,7.958l67.864,54
						c-4.576,41.456-2.171,82.713,6.487,122.305l-61.854,60.872c-2.167,2.133-2.743,5.407-1.433,8.153l44.84,93.942
						c1.311,2.747,4.219,4.358,7.241,4.013l86.225-9.81c25.338,31.63,55.905,59.447,91.014,81.959l-0.693,86.725
						c-0.025,3.042,1.883,5.763,4.751,6.778l98.135,34.721c2.867,1.015,6.063,0.098,7.957-2.283l54-67.864
						c41.456,4.577,82.713,2.173,122.304-6.486l60.873,61.855c2.133,2.166,5.408,2.743,8.152,1.433l93.941-44.841
						c2.747-1.31,4.357-4.218,4.013-7.24l-9.811-86.226c31.631-25.337,59.448-55.903,81.959-91.013l86.725,0.694
						c3.041,0.024,5.763-1.883,6.779-4.751l34.719-98.135c1.016-2.868,0.099-6.063-2.282-7.957l-67.864-54
						c4.578-41.456,2.172-82.714-6.486-122.306l61.854-60.871c2.169-2.133,2.744-5.409,1.434-8.153l-44.841-93.942
						c-1.31-2.745-4.218-4.356-7.24-4.014l-86.225,9.81c-25.338-31.63-55.905-59.447-91.014-81.959l0.694-86.725
						c0.025-3.04-1.884-5.764-4.752-6.777l-98.133-34.72c-2.868-1.015-6.063-0.099-7.958,2.281l-54,67.864
						c-41.455-4.576-82.712-2.171-122.304,6.486l-60.872-61.853c-2.134-2.169-5.406-2.744-8.154-1.434L2047.915,1031.046z"/>
					<path style="opacity:0.56;fill:#FFFFFF;" d="M2190.117,1396.247c12.08-49.554,59.075-84.196,111.34-79.334
						c57.451,5.347,99.834,56.431,94.491,113.879c-2.583,27.834-15.861,52.987-37.367,70.829
						c-21.507,17.848-48.679,26.252-76.508,23.66c-57.452-5.347-99.834-56.431-94.491-113.878
						C2188.065,1406.223,2188.919,1401.159,2190.117,1396.247z M2369.681,1440.265c0.933-3.827,1.593-7.742,1.965-11.736
						c4.1-44.044-28.405-83.213-72.446-87.313c-44.047-4.098-83.23,28.389-87.315,72.448c-4.1,44.044,28.405,83.213,72.446,87.313
						c21.341,1.985,42.171-4.457,58.663-18.141C2356.396,1471.713,2365.629,1456.884,2369.681,1440.265z"/>
					<path style="opacity:0.56;fill:#FFFFFF;" d="M2042.783,1362.533c2.075-8.511,4.589-16.967,7.55-25.338l0,0
						c0.931-2.635,1.907-5.255,2.922-7.86c5.013-12.84,11.04-25.26,17.986-37.071c0.094-0.161,0.189-0.322,0.283-0.483
						c0.271-0.455,0.541-0.911,0.818-1.365c0.529-0.886,1.069-1.766,1.607-2.644c1.421-2.309,4.132-3.339,6.634-2.732
						c0.608,0.148,1.204,0.395,1.764,0.74c2.869,1.767,3.75,5.527,1.99,8.395c-9.101,14.763-16.668,30.605-22.495,47.089
						c-28.98,81.866-11.666,169.061,38.208,232.893c27.736,35.508,65.552,63.784,111.088,79.892
						c7.984,2.827,16.053,5.229,24.171,7.205c54.633,13.312,111.707,7.477,163.137-17.074
						c59.078-28.197,103.64-77.715,125.473-139.426c45.08-127.456-21.906-267.714-149.296-312.785
						c-7.854-2.78-15.821-5.151-23.864-7.108c-34.85-8.489-71.171-9.259-106.357-2.125c-0.91,0.183-1.811,0.156-2.656-0.052
						c-2.223-0.542-4.052-2.322-4.536-4.716c-0.66-3.307,1.456-6.527,4.771-7.194c36.941-7.489,75.075-6.685,111.662,2.228
						c8.442,2.055,16.802,4.544,25.048,7.458c133.75,47.319,204.038,194.661,156.737,328.362
						c-22.921,64.788-69.702,116.768-131.723,146.37c-53.992,25.775-113.909,31.898-171.264,17.927
						c-8.522-2.078-16.992-4.599-25.372-7.562c-64.791-22.925-116.773-69.704-146.376-131.722
						C2034.916,1479.831,2028.8,1419.898,2042.783,1362.533z"/>
				</g>
			</g>
			<g>
				
					<linearGradient id="SVGID_00000044880947703278349000000015529482648467872180_" gradientUnits="userSpaceOnUse" x1="3311.2117" y1="442.0182" x2="3710.9385" y2="92.6071" gradientTransform="matrix(0.8544 0.5197 -0.5197 0.8544 -1162.999 -912.0317)">
					<stop  offset="0" style="stop-color:#CB236D"/>
					<stop  offset="1" style="stop-color:#4C246D"/>
				</linearGradient>
				<path style="fill:url(#SVGID_00000044880947703278349000000015529482648467872180_);" d="M1796.334,1076.785l-47.513-28.652
					c-1.033-0.623-2.376-0.291-2.999,0.743l-86.182,142.913c-0.623,1.033-0.291,2.376,0.743,2.999l47.513,28.652
					c1.033,0.623,2.376,0.291,2.999-0.743l86.182-142.913C1797.699,1078.751,1797.367,1077.408,1796.334,1076.785z"/>
				
					<linearGradient id="SVGID_00000045613735116454552970000015728196517008010431_" gradientUnits="userSpaceOnUse" x1="4102.9214" y1="363.3892" x2="3750.8364" y2="359.147" gradientTransform="matrix(0.8544 0.5197 -0.5197 0.8544 -1162.999 -912.0317)">
					<stop  offset="0" style="stop-color:#53D8FF"/>
					<stop  offset="1" style="stop-color:#3840F7"/>
				</linearGradient>
				<polygon style="fill:url(#SVGID_00000045613735116454552970000015728196517008010431_);" points="1789.946,1251.11 
					1773.15,1384.514 2006.797,1428.985 2019.547,1395.923 1825.499,1346.318 1839.24,1242.673 				"/>
				
					<linearGradient id="SVGID_00000072959450245024361270000001665080215726912132_" gradientUnits="userSpaceOnUse" x1="3614.9858" y1="245.2448" x2="3711.2583" y2="245.2448" gradientTransform="matrix(0.8544 0.5197 -0.5197 0.8544 -1162.999 -912.0317)">
					<stop  offset="0" style="stop-color:#2B3582"/>
					<stop  offset="1" style="stop-color:#150E42"/>
				</linearGradient>
				<path style="fill:url(#SVGID_00000072959450245024361270000001665080215726912132_);" d="M1754.747,1247.637
					c22.425,18.372,53.728,24.698,82.878,13.907c43.724-16.186,66.048-64.753,49.862-108.478
					c-8.191-22.128-24.677-38.776-44.63-47.724L1754.747,1247.637z"/>
				
					<linearGradient id="SVGID_00000129912247005236301160000013027752139577352585_" gradientUnits="userSpaceOnUse" x1="3659.406" y1="169.8205" x2="3501.0479" y2="355.9604" gradientTransform="matrix(0.8544 0.5197 -0.5197 0.8544 -1162.999 -912.0317)">
					<stop  offset="0" style="stop-color:#CB236D"/>
					<stop  offset="1" style="stop-color:#4C246D"/>
				</linearGradient>
				<path style="fill:url(#SVGID_00000129912247005236301160000013027752139577352585_);" d="M1706.779,1218.022l-13.791,22.869
					c-2.487,4.125-0.925,9.627,3.49,12.289l42.402,25.57c4.415,2.662,10.01,1.476,12.497-2.648l109.956-182.339
					c2.488-4.125,0.926-9.627-3.489-12.289l-42.402-25.57c-4.415-2.662-10.01-1.477-12.497,2.649l-12.636,20.954L1706.779,1218.022z
					"/>
			</g>
		</g>
		<g>
			<g style="opacity:0.3;">
				
					<linearGradient id="SVGID_00000126306909625344334680000016368524543906410411_" gradientUnits="userSpaceOnUse" x1="3460.0422" y1="-4442.1626" x2="3955.4014" y2="-4442.1626" gradientTransform="matrix(0.0118 0.9999 -0.9999 0.0118 -1863.9955 -1551.5245)">
					<stop  offset="0" style="stop-color:#B37CFF"/>
					<stop  offset="1" style="stop-color:#F895E7"/>
				</linearGradient>
				<path style="fill:url(#SVGID_00000126306909625344334680000016368524543906410411_);" d="M2423.117,1868.514
					c-0.052-4.389,3.221-8.199,7.676-8.718c9.743-1.138,19.682-1.869,29.537-2.173c4.795-0.148,8.803,3.617,8.951,8.411
					c0.001,0.058,0.001,0.114,0.002,0.17c0.056,4.719-3.677,8.634-8.415,8.78c-9.364,0.289-18.803,0.984-28.059,2.064
					c-4.763,0.557-9.078-2.854-9.634-7.619C2423.138,1869.122,2423.121,1868.817,2423.117,1868.514z M2498.775,1868.179
					c-0.004-0.339,0.012-0.684,0.049-1.03c0.507-4.769,4.785-8.226,9.554-7.719c9.796,1.043,19.646,2.514,29.272,4.374
					c4.71,0.91,7.779,5.445,6.882,10.174c-0.911,4.709-5.468,7.788-10.174,6.878c-9.15-1.768-18.507-3.165-27.817-4.154
					C2502.116,1876.232,2498.826,1872.519,2498.775,1868.179z M2572.624,1884.51c-0.011-0.967,0.14-1.952,0.471-2.92
					c1.558-4.536,6.496-6.954,11.033-5.398c9.3,3.188,18.577,6.822,27.574,10.8c4.386,1.943,6.364,7.071,4.431,11.455
					c-1.94,4.386-7.07,6.37-11.455,4.431c-8.543-3.778-17.351-7.228-26.183-10.256
					C2574.925,1891.398,2572.667,1888.079,2572.624,1884.51z M2640.982,1916.951c-0.019-1.598,0.403-3.219,1.309-4.677
					c2.53-4.074,7.886-5.325,11.959-2.795c8.356,5.194,16.589,10.809,24.469,16.692c3.837,2.871,4.627,8.31,1.762,12.155
					c-2.869,3.842-8.311,4.631-12.155,1.762c-7.482-5.587-15.301-10.923-23.243-15.855
					C2642.467,1922.608,2641.016,1919.819,2640.982,1916.951z M2700.388,1963.821c-0.027-2.241,0.809-4.49,2.509-6.208
					c3.372-3.412,8.871-3.443,12.28-0.071c6.979,6.899,13.762,14.196,20.154,21.686c3.117,3.646,2.686,9.128-0.964,12.243
					c-3.648,3.113-9.129,2.681-12.245-0.966c-6.075-7.12-12.522-14.055-19.154-20.612
					C2701.275,1968.221,2700.414,1966.026,2700.388,1963.821z M2747.943,2022.66c-0.034-2.902,1.384-5.755,4.01-7.431
					c4.044-2.58,9.412-1.395,11.994,2.647c5.289,8.285,10.29,16.902,14.857,25.609c2.229,4.25,0.591,9.497-3.657,11.726
					c-4.245,2.228-9.495,0.591-11.724-3.656c-4.342-8.274-9.09-16.46-14.116-24.333
					C2748.401,2025.805,2747.961,2024.226,2747.943,2022.66z M2772.385,2340.625c-0.014-1.203,0.222-2.425,0.738-3.596
					c3.76-8.54,7.197-17.359,10.213-26.211c1.548-4.539,6.482-6.966,11.019-5.418c4.541,1.546,6.967,6.48,5.42,11.021
					c-3.177,9.323-6.796,18.613-10.753,27.606c-1.933,4.391-7.059,6.382-11.448,4.449
					C2774.354,2347.06,2772.424,2343.926,2772.385,2340.625z M2781.254,2090.531c-0.042-3.602,2.177-6.996,5.758-8.278
					c4.517-1.617,9.488,0.733,11.105,5.247c3.315,9.255,6.268,18.767,8.775,28.272c1.202,4.642-1.541,9.39-6.181,10.614
					c-4.637,1.224-9.389-1.544-10.614-6.183c-2.38-9.027-5.184-18.059-8.331-26.847
					C2781.433,2092.422,2781.265,2091.469,2781.254,2090.531z M2794.864,2268.389c-0.007-0.573,0.041-1.156,0.152-1.741
					c1.754-9.17,3.132-18.538,4.104-27.842c0.5-4.771,4.771-8.234,9.54-7.736c4.769,0.5,8.256,4.767,7.736,9.54
					c-1.024,9.789-2.475,19.647-4.318,29.297c-0.901,4.711-5.451,7.802-10.161,6.901
					C2797.793,2276.02,2794.912,2272.433,2794.864,2268.389z M2798.569,2164.142c-0.052-4.383,3.211-8.189,7.659-8.716
					c4.764-0.565,9.082,2.837,9.65,7.601c1.157,9.752,1.909,19.685,2.229,29.523c0.004,0.061,0.005,0.124,0.006,0.185
					c0.056,4.712-3.667,8.623-8.398,8.779c-4.795,0.157-8.809-3.6-8.964-8.396c-0.307-9.345-1.023-18.78-2.123-28.045
					C2798.593,2164.761,2798.573,2164.449,2798.569,2164.142z"/>
				
					<linearGradient id="SVGID_00000119796552763873423190000005376344957651483052_" gradientUnits="userSpaceOnUse" x1="3979.4834" y1="-4572.6548" x2="4008.4148" y2="-4572.6548" gradientTransform="matrix(0.0118 0.9999 -0.9999 0.0118 -1863.9955 -1551.5245)">
					<stop  offset="0" style="stop-color:#B37CFF"/>
					<stop  offset="1" style="stop-color:#F895E7"/>
				</linearGradient>
				<path style="fill:url(#SVGID_00000119796552763873423190000005376344957651483052_);" d="M2742.866,2393.987
					c-0.02-1.71,0.461-3.444,1.495-4.967c2.514-3.706,4.99-7.526,7.367-11.354c2.527-4.075,7.882-5.331,11.956-2.803
					c4.077,2.527,5.338,7.884,2.801,11.958c-2.497,4.028-5.102,8.045-7.746,11.946c-2.691,3.969-8.093,5.007-12.06,2.316
					C2744.23,2399.423,2742.899,2396.735,2742.866,2393.987z"/>
			</g>
			<g style="opacity:0.3;">
				
					<linearGradient id="SVGID_00000128450558787144823630000005841887987410287241_" gradientUnits="userSpaceOnUse" x1="4129.6606" y1="-4351.5889" x2="4149.5142" y2="-4351.5889" gradientTransform="matrix(0.0118 0.9999 -0.9999 0.0118 -1863.9955 -1551.5245)">
					<stop  offset="0" style="stop-color:#B37CFF"/>
					<stop  offset="1" style="stop-color:#F895E7"/>
				</linearGradient>
				<path style="fill:url(#SVGID_00000128450558787144823630000005841887987410287241_);" d="M2520.501,2537.714
					c-0.05-4.191,2.946-7.916,7.208-8.652c4.412-0.76,8.883-1.625,13.285-2.573c4.69-1.009,9.309,1.975,10.318,6.663
					c1.012,4.709-1.976,9.309-6.663,10.318c-4.636,0.996-9.344,1.909-13.989,2.71c-4.727,0.814-9.219-2.357-10.034-7.083
					C2520.546,2538.633,2520.507,2538.17,2520.501,2537.714z"/>
				
					<linearGradient id="SVGID_00000146476644343029712770000014485312811311253689_" gradientUnits="userSpaceOnUse" x1="3643.5271" y1="-4125.7603" x2="4153.7598" y2="-4125.7603" gradientTransform="matrix(0.0118 0.9999 -0.9999 0.0118 -1863.9955 -1551.5245)">
					<stop  offset="0" style="stop-color:#B37CFF"/>
					<stop  offset="1" style="stop-color:#F895E7"/>
				</linearGradient>
				<path style="fill:url(#SVGID_00000146476644343029712770000014485312811311253689_);" d="M2124.578,2208.781
					c-0.047-3.996-0.027-8.008,0.061-12.034c0.106-4.795,4.078-8.598,8.873-8.493c4.795,0.104,8.615,4.1,8.495,8.871
					c-0.202,9.293-0.028,18.573,0.528,27.687c0.284,4.792-3.352,8.905-8.138,9.197c-4.79,0.292-8.908-3.353-9.199-8.141
					C2124.853,2220.231,2124.645,2214.481,2124.578,2208.781z M2128.77,2151.083c-0.006-0.485,0.029-0.979,0.108-1.475
					c1.519-9.57,3.461-19.182,5.772-28.568c1.146-4.656,5.851-7.503,10.506-6.357c4.658,1.147,7.516,5.862,6.356,10.51
					c-2.195,8.915-4.037,18.046-5.483,27.14c-0.751,4.736-5.201,7.966-9.936,7.215
					C2131.851,2158.873,2128.819,2155.236,2128.77,2151.083z M2131.135,2271.183c-0.048-4.094,2.815-7.773,6.975-8.608
					c4.705-0.943,9.28,2.105,10.225,6.808c1.802,8.996,4.016,18.037,6.584,26.874c1.33,4.608-1.313,9.425-5.918,10.762
					c-4.608,1.337-9.426-1.313-10.763-5.92c-2.702-9.306-5.033-18.829-6.934-28.302
					C2131.195,2272.256,2131.141,2271.715,2131.135,2271.183z M2148.475,2079.268c-0.013-1.103,0.188-2.224,0.619-3.312
					c3.581-8.994,7.59-17.943,11.915-26.598c2.144-4.29,7.358-6.029,11.648-3.885c4.293,2.144,6.034,7.357,3.887,11.65
					c-4.106,8.218-7.914,16.716-11.314,25.258c-1.772,4.457-6.825,6.63-11.28,4.856
					C2150.583,2085.896,2148.516,2082.682,2148.475,2079.268z M2153.754,2342.068c-0.04-3.358,1.883-6.58,5.146-8.037
					c4.38-1.955,9.516,0.011,11.471,4.392c3.736,8.374,7.885,16.707,12.33,24.767c2.316,4.2,0.791,9.483-3.412,11.799
					c-4.2,2.314-9.48,0.788-11.795-3.412c-4.68-8.485-9.049-17.258-12.984-26.076
					C2154.012,2344.385,2153.768,2343.217,2153.754,2342.068z M2191.382,2406.274c-0.032-2.685,1.178-5.347,3.495-7.074
					c3.847-2.865,9.288-2.069,12.153,1.778c5.495,7.377,11.365,14.608,17.445,21.492c3.18,3.591,2.842,9.077-0.758,12.258
					c-3.596,3.175-9.082,2.835-12.26-0.759c-6.399-7.245-12.576-14.854-18.357-22.618
					C2191.963,2409.825,2191.402,2408.045,2191.382,2406.274z M2242.111,2460.751c-0.024-2.042,0.667-4.099,2.106-5.768
					c3.129-3.633,8.614-4.041,12.247-0.91c6.975,6.01,14.276,11.791,21.709,17.183c3.881,2.816,4.749,8.242,1.928,12.129
					c-2.818,3.881-8.246,4.746-12.13,1.928c-7.819-5.675-15.507-11.758-22.846-18.082
					C2243.162,2465.537,2242.139,2463.156,2242.111,2460.751z M2303.51,2502.864c-0.017-1.415,0.312-2.852,1.026-4.189
					c2.26-4.23,7.521-5.826,11.75-3.565c8.115,4.338,16.506,8.376,24.942,12.005c4.406,1.895,6.441,7.009,4.549,11.408
					c-1.895,4.407-7.004,6.442-11.41,4.547c-8.886-3.822-17.723-8.075-26.266-12.64
					C2305.206,2508.881,2303.546,2505.929,2303.51,2502.864z M2372.682,2530.482c-0.009-0.795,0.093-1.606,0.314-2.411
					c1.272-4.624,6.053-7.342,10.676-6.068c8.85,2.435,17.919,4.524,26.963,6.208c4.716,0.879,7.82,5.427,6.946,10.128
					c-0.877,4.716-5.414,7.826-10.129,6.948c-9.52-1.774-19.069-3.973-28.385-6.537
					C2375.248,2537.698,2372.727,2534.253,2372.682,2530.482z M2446.182,2542.22c-0.002-0.178,0.003-0.358,0.011-0.538
					c0.235-4.79,4.31-8.483,9.099-8.247c6.762,0.332,13.613,0.46,20.371,0.38c2.446-0.029,4.887-0.087,7.319-0.168
					c4.795-0.16,8.812,3.596,8.971,8.389c0.258,4.85-3.594,8.809-8.385,8.971c-2.561,0.086-5.125,0.146-7.699,0.176
					c-7.106,0.084-14.317-0.051-21.429-0.401C2449.83,2550.557,2446.236,2546.774,2446.182,2542.22z"/>
				
					<linearGradient id="SVGID_00000147926320732947271410000009100807241890526888_" gradientUnits="userSpaceOnUse" x1="3592.6653" y1="-4018.1948" x2="3621.2278" y2="-4018.1948" gradientTransform="matrix(0.0118 0.9999 -0.9999 0.0118 -1863.9955 -1551.5245)">
					<stop  offset="0" style="stop-color:#B37CFF"/>
					<stop  offset="1" style="stop-color:#F895E7"/>
				</linearGradient>
				<path style="fill:url(#SVGID_00000147926320732947271410000009100807241890526888_);" d="M2183.633,2013.387
					c-0.021-1.727,0.471-3.474,1.518-5.005c2.658-3.879,5.448-7.774,8.293-11.578c2.872-3.842,8.315-4.628,12.155-1.755
					c3.841,2.874,4.631,8.311,1.756,12.155c-2.702,3.614-5.352,7.315-7.876,10.997c-2.708,3.956-8.114,4.966-12.071,2.255
					C2184.983,2018.792,2183.666,2016.117,2183.633,2013.387z"/>
			</g>
			<g>
				
					<linearGradient id="SVGID_00000132058303704100613560000005968297316180307874_" gradientUnits="userSpaceOnUse" x1="3661.5271" y1="-4550.4155" x2="4458.3638" y2="-3144.6116" gradientTransform="matrix(0.0118 0.9999 -0.9999 0.0118 -1863.9955 -1551.5245)">
					<stop  offset="0" style="stop-color:#CB236D"/>
					<stop  offset="1" style="stop-color:#4C246D"/>
				</linearGradient>
				<path style="fill:url(#SVGID_00000132058303704100613560000005968297316180307874_);" d="M2284.495,2023.912
					c-1.328,1.11-1.806,2.942-1.189,4.56l17.598,46.161c-13.859,18.444-24.878,39.23-32.329,61.772l-47.919,11.876
					c-1.681,0.417-2.912,1.854-3.066,3.579l-5.274,59.021c-0.154,1.725,0.804,3.357,2.383,4.065l45.055,20.184
					c3.337,23.507,10.495,45.917,20.866,66.525l-25.503,42.31c-0.894,1.483-0.748,3.369,0.362,4.698l38.005,45.464
					c1.111,1.329,2.943,1.807,4.56,1.189l46.16-17.598c18.443,13.86,39.23,24.878,61.773,32.329l11.877,47.921
					c0.416,1.681,1.853,2.912,3.578,3.066l59.022,5.274c1.725,0.154,3.358-0.803,4.065-2.384l20.184-45.055
					c23.507-3.336,45.917-10.494,66.525-20.865l42.311,25.504c1.482,0.893,3.37,0.748,4.698-0.362l45.463-38.006
					c1.33-1.111,1.806-2.942,1.19-4.56l-17.599-46.161c13.86-18.443,24.879-39.23,32.329-61.772l47.921-11.876
					c1.68-0.417,2.912-1.853,3.067-3.578l5.273-59.022c0.155-1.725-0.802-3.357-2.383-4.065l-45.055-20.184
					c-3.335-23.507-10.495-45.917-20.865-66.526l25.503-42.309c0.895-1.483,0.749-3.371-0.362-4.699l-38.006-45.463
					c-1.11-1.328-2.941-1.806-4.56-1.19l-46.16,17.598c-18.443-13.86-39.23-24.878-61.773-32.329l-11.877-47.921
					c-0.416-1.68-1.854-2.912-3.579-3.066l-59.021-5.274c-1.725-0.154-3.357,0.803-4.066,2.383l-20.184,45.055
					c-23.506,3.336-45.917,10.495-66.525,20.865l-42.31-25.503c-1.483-0.894-3.369-0.749-4.699,0.362L2284.495,2023.912z"/>
				<path style="opacity:0.56;fill:#FFFFFF;" d="M2414.533,2205.192c-0.344-29.033,20.674-54.779,50.181-59.486
					c32.436-5.172,63.028,17.005,68.203,49.439c2.51,15.713-1.256,31.46-10.593,44.339c-9.336,12.882-23.132,21.357-38.844,23.862
					c-32.436,5.173-63.028-17.005-68.202-49.438C2414.812,2210.984,2414.567,2208.07,2414.533,2205.192z M2519.771,2204.082
					c-0.026-2.242-0.216-4.494-0.575-6.749c-3.965-24.867-27.426-41.871-52.291-37.906c-24.868,3.967-41.883,27.419-37.907,52.292
					c3.965,24.867,27.426,41.871,52.291,37.906c12.048-1.922,22.624-8.418,29.784-18.296
					C2516.891,2223.302,2519.887,2213.819,2519.771,2204.082z"/>
				<path style="opacity:0.56;fill:#FFFFFF;" d="M2328.524,2207.428c-0.059-4.986,0.133-10.005,0.582-15.039l0,0
					c0.141-1.584,0.309-3.167,0.5-4.747c0.949-7.789,2.517-15.49,4.678-22.984c0.029-0.102,0.059-0.204,0.088-0.306
					c0.085-0.289,0.17-0.579,0.258-0.868c0.167-0.563,0.34-1.125,0.513-1.686c0.458-1.474,1.807-2.425,3.272-2.444
					c0.356-0.004,0.72,0.047,1.077,0.158c1.832,0.569,2.849,2.518,2.284,4.348c-2.932,9.427-4.865,19.233-5.748,29.146
					c-4.408,49.24,17.465,94.874,53.99,123.022c20.314,15.659,45.163,25.906,72.55,28.351c4.802,0.43,9.591,0.614,14.347,0.556
					c32.008-0.382,62.655-11.667,87.544-32.475c28.591-23.9,46.164-57.504,49.48-94.62c6.841-76.655-49.923-144.528-126.54-151.374
					c-4.724-0.422-9.452-0.604-14.164-0.546c-20.417,0.245-40.554,4.955-58.948,13.862c-0.476,0.23-0.976,0.342-1.471,0.347
					c-1.303,0.015-2.563-0.708-3.168-1.959c-0.831-1.73-0.12-3.805,1.614-4.641c19.312-9.352,40.454-14.299,61.888-14.556
					c4.946-0.06,9.908,0.13,14.866,0.572c80.442,7.187,140.029,78.499,132.845,158.912c-3.481,38.966-21.93,74.242-51.945,99.332
					c-26.129,21.845-58.303,33.691-91.905,34.094c-4.993,0.059-10.02-0.134-15.06-0.583c-38.968-3.483-74.245-21.93-99.336-51.944
					C2340.766,2273.222,2328.922,2241.037,2328.524,2207.428z"/>
			</g>
		</g>
		<g>
			<g>
				
					<linearGradient id="SVGID_00000054961918772186832880000008583946474666003885_" gradientUnits="userSpaceOnUse" x1="865.6813" y1="2952.9607" x2="572.3901" y2="3317.843" gradientTransform="matrix(-0.7257 0.688 0.688 0.7257 947.3353 -369.8229)">
					<stop  offset="0" style="stop-color:#F9B776"/>
					<stop  offset="1" style="stop-color:#F47960"/>
				</linearGradient>
				<path style="fill:url(#SVGID_00000054961918772186832880000008583946474666003885_);" d="M2570.151,2441.645l-2.688-23.211
					c54.383-8.608,92.719-41.153,108.961-50.504c16.858,21.813,28.406,41.586,40.792,67.498
					C2649.751,2464.956,2570.151,2441.645,2570.151,2441.645z"/>
				
					<linearGradient id="SVGID_00000072983127567772705380000008482887224721384620_" gradientUnits="userSpaceOnUse" x1="-3363.4866" y1="3185.0266" x2="-3272.9338" y2="3185.0266" gradientTransform="matrix(-1 0 0 1 -146.3213 0)">
					<stop  offset="0" style="stop-color:#2B3582"/>
					<stop  offset="1" style="stop-color:#150E42"/>
				</linearGradient>
				<path style="fill:url(#SVGID_00000072983127567772705380000008482887224721384620_);" d="M3204.56,3153.118
					c0,0,10.063,15.861,12.594,60.269c0.236,4.137-3.042,7.662-7.186,7.662h-78.697c-3.166,0-5.426-3.105-4.412-6.104
					c4.612-13.649,18.555-46.925,49.667-65.94L3204.56,3153.118z"/>
				
					<linearGradient id="SVGID_00000055679077988230398010000002797409128982936499_" gradientUnits="userSpaceOnUse" x1="-3354.301" y1="3142.9475" x2="-3317.5757" y2="3142.9475" gradientTransform="matrix(-1 0 0 1 -146.3213 0)">
					<stop  offset="0" style="stop-color:#F9B776"/>
					<stop  offset="1" style="stop-color:#F47960"/>
				</linearGradient>
				<path style="fill:url(#SVGID_00000055679077988230398010000002797409128982936499_);" d="M3207.98,3123.028l-4.451,37.323
					c-0.384,3.22-2.908,5.798-6.129,6.169c-4.304,0.496-10.561,0.845-16.641-0.158c-5.527-0.912-9.504-5.834-9.504-11.436v-36.035
					L3207.98,3123.028z"/>
				
					<linearGradient id="SVGID_00000146460352582596950710000008954621867277125533_" gradientUnits="userSpaceOnUse" x1="-3170.9158" y1="3183.5789" x2="-3028.8352" y2="3183.5789" gradientTransform="matrix(-1 0 0 1 -146.3213 0)">
					<stop  offset="0" style="stop-color:#2B3582"/>
					<stop  offset="1" style="stop-color:#150E42"/>
				</linearGradient>
				<path style="fill:url(#SVGID_00000146460352582596950710000008954621867277125533_);" d="M3009.849,3149.004
					c0,0,15.063,23.413,14.74,55.55c-0.076,7.57-6.413,13.599-13.984,13.599h-122.225c-5.723,0-8.047-7.354-3.363-10.643
					c23.128-16.241,68.587-46.581,101.466-58.506H3009.849z"/>
				
					<linearGradient id="SVGID_00000127037091721560972060000013489462363580630701_" gradientUnits="userSpaceOnUse" x1="-3168.7573" y1="3126.6404" x2="-3132.2346" y2="3126.6404" gradientTransform="matrix(-1 0 0 1 -146.3213 0)">
					<stop  offset="0" style="stop-color:#F9B776"/>
					<stop  offset="1" style="stop-color:#F47960"/>
				</linearGradient>
				<path style="fill:url(#SVGID_00000127037091721560972060000013489462363580630701_);" d="M3022.436,3108.697l-9.494,46.095
					c-1.062,5.155-6.105,8.622-11.243,7.476c-3.123-0.697-6.808-2.033-10.745-4.494c-3.742-2.339-5.638-6.79-4.874-11.136
					l9.821-55.843L3022.436,3108.697z"/>
				
					<linearGradient id="SVGID_00000045583803939726475010000017902380233647765898_" gradientUnits="userSpaceOnUse" x1="-3377.1194" y1="2802.6738" x2="-3128.1318" y2="2802.6738" gradientTransform="matrix(-1 0 0 1 -146.3213 0)">
					<stop  offset="0" style="stop-color:#CB236D"/>
					<stop  offset="1" style="stop-color:#4C246D"/>
				</linearGradient>
				<path style="fill:url(#SVGID_00000045583803939726475010000017902380233647765898_);" d="M3190.541,2467.82
					c0,0,33.011,29.104,39.224,64.119c6.213,35.015-17.601,604.129-17.601,604.129s-33.01,5.492-50.027-4.819
					c0,0-20.183-369.351-35.524-454.698c0,0-80.453,382.598-102.745,451.729c0,0-31.802,3.869-42.057-2.183
					c0,0,21.074-495.955,47.555-584.128L3190.541,2467.82z"/>
				
					<linearGradient id="SVGID_00000093168089938996629540000013077968269988377237_" gradientUnits="userSpaceOnUse" x1="3193.0867" y1="2144.0989" x2="3127.782" y2="2867.4692">
					<stop  offset="0" style="stop-color:#CB236D"/>
					<stop  offset="1" style="stop-color:#4C246D"/>
				</linearGradient>
				<path style="fill:url(#SVGID_00000093168089938996629540000013077968269988377237_);" d="M3127.576,2664.546
					c1.592,0,3.045-1.069,3.464-2.68l13.668-52.434l29.115-18.676c1.665-1.069,2.15-3.286,1.082-4.951
					c-1.069-1.668-3.28-2.154-4.951-1.082l-30.294,19.434c-0.758,0.485-1.307,1.24-1.532,2.112l-14.02,53.789
					c-0.501,1.916,0.647,3.873,2.563,4.371C3126.974,2664.508,3127.275,2664.546,3127.576,2664.546z"/>
				
					<linearGradient id="SVGID_00000154404586887075412840000013961697293546261685_" gradientUnits="userSpaceOnUse" x1="-2964.6543" y1="1776.475" x2="-3038.9561" y2="2187.3201" gradientTransform="matrix(-1 0 0 1 -146.3213 0)">
					<stop  offset="0" style="stop-color:#53D8FF"/>
					<stop  offset="1" style="stop-color:#3840F7"/>
				</linearGradient>
				<path style="fill:url(#SVGID_00000154404586887075412840000013961697293546261685_);" d="M2864.776,2138.975
					c138.966-11.537,175.287,17.221,175.287,17.221l-66.782,105.43c0,0-136.548-2.697-234.39-78.109
					c18.312-19.721,31.029-41.515,39.185-58.484C2803.306,2135.518,2832.36,2141.666,2864.776,2138.975z"/>
				
					<linearGradient id="SVGID_00000057144139227680475930000000806795624994559899_" gradientUnits="userSpaceOnUse" x1="-2924.3965" y1="2057.2117" x2="-2788.6606" y2="2057.2117" gradientTransform="matrix(-1 0 0 1 -146.3213 0)">
					<stop  offset="0" style="stop-color:#F9B776"/>
					<stop  offset="1" style="stop-color:#F47960"/>
				</linearGradient>
				<path style="fill:url(#SVGID_00000057144139227680475930000000806795624994559899_);" d="M2647.156,1934.991
					c0.188-4.453,6.222-5.664,8.114-1.629l17.732,37.839c3.426,7.311,4.524,15.498,3.146,23.453l-6.22,22.024
					c-1.861,10.74,0.945,21.745,7.754,30.257c16.293,20.369,50.993,57.571,100.393,78.098
					c-8.156,16.969-20.873,38.763-39.185,58.484c-35.9-27.669-66.597-65.117-83.415-115.829
					c-8.058-2.475-13.442-10.062-13.122-18.485L2647.156,1934.991z"/>
				
					<linearGradient id="SVGID_00000060710597984686067640000017756663820038128304_" gradientUnits="userSpaceOnUse" x1="-3041.3772" y1="2021.5686" x2="-3115.6787" y2="2725.2502" gradientTransform="matrix(-1 0 0 1 -146.3213 0)">
					<stop  offset="0" style="stop-color:#53D8FF"/>
					<stop  offset="1" style="stop-color:#3840F7"/>
				</linearGradient>
				<path style="fill:url(#SVGID_00000060710597984686067640000017756663820038128304_);" d="M2819.032,2200.1
					c48.922-52.715,142.106-76.532,196.057-86.315c23.636-4.286,46.935,8.866,55.31,31.38
					c24.279,65.265,90.311,235.063,103.109,264.246c10.5,23.942,21.464,47.324,28.431,61.944c4.162,8.733,0.526,19.184-8.19,23.384
					c-45.391,21.879-127.068,46.633-160.18,56.29c-7.283,2.125-14.536-3.344-14.536-10.931c0-6.434-1.749-12.749-5.06-18.265
					l-125.406-208.979c-78.164,86.667-126.185,121.468-178.36,126.604c-17.216-17.536-45.509-54.632-36.249-72.252
					C2740.777,2332.235,2819.032,2200.1,2819.032,2200.1z"/>
				
					<linearGradient id="SVGID_00000173146098500517237430000016233752571351472524_" gradientUnits="userSpaceOnUse" x1="913.5329" y1="3007.3745" x2="620.2528" y2="3372.2429" gradientTransform="matrix(-0.7257 0.688 0.688 0.7257 947.3353 -369.8229)">
					<stop  offset="0" style="stop-color:#F9B776"/>
					<stop  offset="1" style="stop-color:#F47960"/>
				</linearGradient>
				<path style="fill:url(#SVGID_00000173146098500517237430000016233752571351472524_);" d="M2589.618,2438.593l-55.197,56.577
					l-80.716,20.56c3.073-11.93,55.11-42.839,55.11-42.839s38.357-49.229,50.462-60.736c10.054-9.557,22.34,6.281,26.215,11.923
					c0.79,1.151,1.231,1.877,1.231,1.877L2589.618,2438.593z"/>
				
					<linearGradient id="SVGID_00000070117712546589527900000016110935017155955847_" gradientUnits="userSpaceOnUse" x1="-2946.9961" y1="1866.2906" x2="-3231.0466" y2="2388.2058" gradientTransform="matrix(-1 0 0 1 -146.3213 0)">
					<stop  offset="0" style="stop-color:#F9B776"/>
					<stop  offset="1" style="stop-color:#F47960"/>
				</linearGradient>
				<path style="fill:url(#SVGID_00000070117712546589527900000016110935017155955847_);" d="M2940.881,2016.972l41.672,101.69
					c0,0-47.882,33.142-86.405,29.988l-20.797-91.438L2940.881,2016.972z"/>
				<g>
					
						<linearGradient id="SVGID_00000060030540305118317100000008224862611902278785_" gradientUnits="userSpaceOnUse" x1="-2783.0503" y1="2185.9939" x2="-2908.585" y2="2352.0662" gradientTransform="matrix(-0.817 -0.5767 -0.5767 0.817 1877.1066 -1428.4956)">
						<stop  offset="0" style="stop-color:#F9B776"/>
						<stop  offset="1" style="stop-color:#F47960"/>
					</linearGradient>
					<path style="fill:url(#SVGID_00000060030540305118317100000008224862611902278785_);" d="M2870.487,1947.646
						c-0.955,1.353-30.148,106.816-30.148,106.816l60.573,15.389l42.52-95.847
						C2943.432,1974.004,2886.466,1925.009,2870.487,1947.646z"/>
					
						<linearGradient id="SVGID_00000132803459982995638360000007781684652021880752_" gradientUnits="userSpaceOnUse" x1="-2878.9226" y1="2226.0547" x2="-2728.9695" y2="2226.0547" gradientTransform="matrix(-0.817 -0.5767 -0.5767 0.817 1877.1066 -1428.4956)">
						<stop  offset="0" style="stop-color:#2B3582"/>
						<stop  offset="1" style="stop-color:#150E42"/>
					</linearGradient>
					<path style="fill:url(#SVGID_00000132803459982995638360000007781684652021880752_);" d="M2920.622,1988.567l-18.432,52.208
						c-0.237,0.67-0.553,1.289-0.962,1.87c-2.501,3.554-12.003,15.15-23.275,4.704c-10.227-9.478-19.702-17.976-28.452-19.518
						c-3.928-0.692-7.734,1.705-8.797,5.55c-2.65,9.583-8.222,31.287-10.186,50.883c-0.398,3.977,2.347,7.57,6.273,8.316
						c11.831,2.247,36.915,6.287,57.855,4.811c2.837-0.2,5.334-1.903,6.518-4.489c5.771-12.61,23.453-50.872,30.029-60.772
						c6.173-9.292,21.304-9.031,27.651-8.469c2.08,0.184,4.126-0.486,5.697-1.863c5.552-4.867,16.118-17.291,1.255-32.165
						c-3.111-3.113-3.027-8.134,0.179-11.149c6.382-6.002,13.209-16.646,2.574-29.846c-10.809-13.418-25.078-11.283-33.819-8.092
						c-3.535,1.29-7.391-0.204-9.312-3.44c-1.094-1.842-3.002-3.236-6.311-2.951c-4.459,0.383-8.208-3.337-8.127-7.812
						c0.154-8.596-2.923-19.456-17.835-24.098c-26.46-8.235-42.961,17.328-44.595,36.403c-1.634,19.075,27.562,26.373,44.729,25.086
						c13.053-0.978,22.745,11.96,26.64,18.217C2921.153,1983.934,2921.4,1986.365,2920.622,1988.567z"/>
					
						<linearGradient id="SVGID_00000138536453782741740820000000024093820277756324_" gradientUnits="userSpaceOnUse" x1="-2966.9092" y1="2317.5095" x2="-2866.2202" y2="2214.2056" gradientTransform="matrix(-0.817 -0.5767 -0.5767 0.817 1877.1066 -1428.4956)">
						<stop  offset="0" style="stop-color:#F9B776"/>
						<stop  offset="1" style="stop-color:#F47960"/>
					</linearGradient>
					<path style="fill:url(#SVGID_00000138536453782741740820000000024093820277756324_);" d="M2924.293,2051.071
						c0,0,4.274-33.115,18.05-34.738c13.775-1.623,27.184,9.699,13.488,28.286
						C2938.795,2067.74,2924.293,2051.071,2924.293,2051.071z"/>
				</g>
			</g>
		</g>
	</g>
</g>
</svg>
