<?xml version="1.0" encoding="utf-8"?>
<!-- Generator: Adobe Illustrator 27.5.0, SVG Export Plug-In . SVG Version: 6.00 Build 0)  -->
<svg version="1.1" xmlns="http://www.w3.org/2000/svg" xmlns:xlink="http://www.w3.org/1999/xlink" x="0px" y="0px"
	 viewBox="0 0 3710 3710" style="enable-background:new 0 0 3710 3710;" xml:space="preserve">
<g id="Background">
	<g>
		<g>
			<rect style="fill:#FFFFFF;" width="3710" height="3710"/>
		</g>
	</g>
</g>
<g id="Illustration">
	<g>
		<linearGradient id="SVGID_1_" gradientUnits="userSpaceOnUse" x1="3580.7122" y1="4047.6724" x2="1112.4176" y2="982.2054">
			<stop  offset="0" style="stop-color:#DAE3FE"/>
			<stop  offset="1" style="stop-color:#E9EFFD"/>
		</linearGradient>
		<path style="fill:url(#SVGID_1_);" d="M2901.669,2838.763c-56.696,59.687-110.341,98.178-152.725,128.589
			c-498.214,357.474-1087.733,253.272-1213.023,227.825c-185.013-37.577-542.64-110.213-801.197-414.271
			C343.548,2320.89,404.46,1596.15,707.882,1117.738c55.501-87.51,348.672-573.208,944.541-651.099
			c360.613-47.139,780.973,47.935,1085.385,302.972C3376.798,1304.957,3331.309,2386.452,2901.669,2838.763z"/>
		<g>
			<path style="fill:#BDD0FB;" d="M1244.898,2929.164c-144.552,26.13-332.121-97.926-394.402-236.148
				c-64.093-142.244,47.324-204.442,42.698-403.416c-5.255-226.029-151.624-257.344-253.769-560.215
				c-23.046-68.333-156.41-463.776-1.835-541.289c142.922-71.669,551.765,118.548,627.55,370.46
				c54.039,179.626-101.039,258.401-37.293,467.596c55.933,183.554,193.826,183.622,250.001,360.673
				C1546.236,2602.369,1434.695,2894.855,1244.898,2929.164z"/>
			
				<linearGradient id="SVGID_00000078042130978213402280000017754365827233786282_" gradientUnits="userSpaceOnUse" x1="1109.3582" y1="1667.9133" x2="817.7216" y2="3082.7502" gradientTransform="matrix(-0.9998 0.0189 0.0189 0.9998 2039.0088 -19.8757)">
				<stop  offset="0" style="stop-color:#09005D"/>
				<stop  offset="1" style="stop-color:#1A0F91"/>
			</linearGradient>
			<path style="fill:url(#SVGID_00000078042130978213402280000017754365827233786282_);" d="M1238.199,3087.092
				c26.94-244.143-41.681-618.715-103.991-889.953c-67.46-293.661-142.248-532.821-142.995-535.203l-9.683,3.04
				c0.747,2.378,75.434,241.222,142.805,534.507c62.125,270.449,130.559,643.783,103.775,886.498L1238.199,3087.092z"/>
		</g>
		<g>
			<path style="fill:#91B3FA;" d="M1077.793,3055.408c135.762-74.03,178.061-320.237,98.617-398.496
				c-53.679-52.877-128.129,5.213-202.04-49.255c-94.368-69.544-28.475-205.119-104.898-377.894
				c-65.036-147.032-216.973-284.456-303.668-254.033c-90.751,31.846-134.629,256.245-54.1,389.275
				c52.369,86.511,130.085,89.341,148.463,170.375c21.325,94.027-72.279,138.858-71.066,230.384
				C591.282,2930.171,898.191,3153.344,1077.793,3055.408z"/>
			<path style="fill:#7D97F4;" d="M1004.991,3119.63c0.818-0.015,1.645-0.21,2.423-0.607c2.75-1.4,3.845-4.762,2.445-7.511
				c-188.845-371.128-250.351-804.645-250.951-808.98c-0.422-3.056-3.246-5.194-6.297-4.768c-3.055,0.422-5.191,3.241-4.768,6.297
				c0.602,4.354,62.372,439.733,252.06,812.516C1000.906,3118.549,1002.919,3119.67,1004.991,3119.63z"/>
			<path style="fill:#F0F0F0;" d="M618.625,2418.426c-0.977,0-1.941-0.423-2.604-1.24
				c-107.92-133.258-116.582-234.647-104.842-296.235c12.782-67.076,50.796-101.887,52.407-103.336
				c1.376-1.238,3.486-1.119,4.725,0.25c1.235,1.372,1.124,3.488-0.248,4.725c-0.379,0.343-38.131,35.022-50.391,100.036
				c-11.335,60.128-2.575,159.309,103.552,290.349c1.163,1.436,0.941,3.543-0.497,4.707
				C620.108,2418.182,619.363,2418.426,618.625,2418.426z"/>
			<path style="fill:#F0F0F0;" d="M1089.487,3023.142c-0.631,0-1.268-0.178-1.836-0.551c-1.542-1.016-1.97-3.091-0.954-4.635
				c84.539-128.517,112.573-226.573,83.33-291.445c-25.46-56.475-87.234-65.909-87.855-65.999c-1.83-0.261-3.101-1.956-2.839-3.785
				c0.265-1.827,1.974-3.094,3.787-2.838c0.657,0.093,66.051,10.082,93.008,69.873c30.247,67.095,2.039,167.314-83.839,297.872
				C1091.643,3022.613,1090.575,3023.142,1089.487,3023.142z"/>
		</g>
		<g>
			<path style="fill:#91B3FA;" d="M2219.425,896.892c0,0-896.391,676.723-918.599,676.723v1390.37
				c0,34.182,27.71,61.892,61.892,61.892h1731.349c24.277,0,43.957-19.68,43.957-43.957V1573.615L2219.425,896.892z"/>
			<g>
				<rect x="2621.674" y="911.671" style="fill:#7D97F4;" width="151.963" height="247.43"/>
				<path style="fill:#7D97F4;" d="M2823.72,951.763h-245.624v-55.587c0-11.264,9.131-20.395,20.395-20.395h194.187
					c17.144,0,31.043,13.898,31.043,31.043V951.763z"/>
				<path style="fill:#7D97F4;" d="M1244.506,1644.564l974.919-747.672l925.421,717.82c33.636,26.091,82.974,7.818,91.501-33.889
					l12.98-63.489L2219.425,732.783l-996.901,761.441c-17.85,13.634-24.326,37.551-15.796,58.328L1244.506,1644.564z"/>
			</g>
		</g>
		<g>
			
				<linearGradient id="SVGID_00000068679860815733478610000014157652818545786294_" gradientUnits="userSpaceOnUse" x1="2237.1914" y1="818.9179" x2="2201.5024" y2="1122.2762">
				<stop  offset="0" style="stop-color:#4F52FF"/>
				<stop  offset="1" style="stop-color:#4042E2"/>
			</linearGradient>
			<polygon style="fill:url(#SVGID_00000068679860815733478610000014157652818545786294_);" points="2334.1,1259.281 
				2046.116,1249.177 2046.116,1178.981 2158.362,1176.275 			"/>
			
				<linearGradient id="SVGID_00000087404437891538830660000018010513925174071695_" gradientUnits="userSpaceOnUse" x1="1651.3433" y1="764.8522" x2="1591.1177" y2="1028.0603">
				<stop  offset="0" style="stop-color:#4F52FF"/>
				<stop  offset="1" style="stop-color:#4042E2"/>
			</linearGradient>
			
				<rect x="1028.867" y="1178.981" style="fill:url(#SVGID_00000087404437891538830660000018010513925174071695_);" width="1025.012" height="132.961"/>
			
				<linearGradient id="SVGID_00000115492860995671637950000002089679476370144671_" gradientUnits="userSpaceOnUse" x1="3631.9734" y1="1792.2581" x2="2839.5098" y2="1968.361">
				<stop  offset="0" style="stop-color:#4F52FF"/>
				<stop  offset="1" style="stop-color:#4042E2"/>
			</linearGradient>
			<path style="fill:url(#SVGID_00000115492860995671637950000002089679476370144671_);" d="M2322.628,3173.306H1186.5V1244.151
				h1165.419c16.661,0,30.167,13.506,30.167,30.167v1839.531C2382.085,3146.686,2355.465,3173.306,2322.628,3173.306z"/>
			
				<linearGradient id="SVGID_00000142150808598671819700000014187311830886189216_" gradientUnits="userSpaceOnUse" x1="2686.0759" y1="1242.3003" x2="4126.5884" y2="6.5673">
				<stop  offset="0" style="stop-color:#4F52FF"/>
				<stop  offset="1" style="stop-color:#4042E2"/>
			</linearGradient>
			<path style="fill:url(#SVGID_00000142150808598671819700000014187311830886189216_);" d="M2122.961,3176.056H1016.906
				c-33.802,0-61.203-27.402-61.203-61.203V1284.105c0-20.547,16.657-37.203,37.203-37.203h1123.055
				c19.51,0,35.327,15.816,35.327,35.327v1865.501C2151.288,3163.374,2138.605,3176.056,2122.961,3176.056z"/>
			
				<linearGradient id="SVGID_00000126287243321541355920000009316065047269908633_" gradientUnits="userSpaceOnUse" x1="1571.618" y1="1036.1447" x2="1612.0004" y2="681.6747">
				<stop  offset="0" style="stop-color:#4F52FF"/>
				<stop  offset="1" style="stop-color:#4042E2"/>
			</linearGradient>
			<path style="fill:url(#SVGID_00000126287243321541355920000009316065047269908633_);" d="M2143.274,1187.995H967.657v-19.854
				c0-2.726,2.21-4.935,4.935-4.935h1167.062c2,0,3.62,1.621,3.62,3.62V1187.995z"/>
			
				<linearGradient id="SVGID_00000138547341478899283120000005013521642319844020_" gradientUnits="userSpaceOnUse" x1="2248.2856" y1="1114.5034" x2="2288.4358" y2="762.0716">
				<stop  offset="0" style="stop-color:#4F52FF"/>
				<stop  offset="1" style="stop-color:#4042E2"/>
			</linearGradient>
			<polygon style="fill:url(#SVGID_00000138547341478899283120000005013521642319844020_);" points="2338.867,1261.061 
				2338.867,1261.061 2143.274,1187.995 2135.302,1164.591 			"/>
			
				<linearGradient id="SVGID_00000060008705569629124990000002632192408465132472_" gradientUnits="userSpaceOnUse" x1="1688.4225" y1="1759.7859" x2="642.9532" y2="5527.5576">
				<stop  offset="0" style="stop-color:#09005D"/>
				<stop  offset="1" style="stop-color:#1A0F91"/>
			</linearGradient>
			<path style="fill:url(#SVGID_00000060008705569629124990000002632192408465132472_);" d="M1999.016,2930.76h-870.158
				c-11.862,0-21.478-9.616-21.478-21.478V1507.56c0-11.862,9.616-21.478,21.478-21.478h870.158
				c11.862,0,21.478,9.616,21.478,21.478v1401.722C2020.493,2921.144,2010.877,2930.76,1999.016,2930.76z"/>
			<g>
				<rect x="1176.431" y="1972.271" style="fill:#91B3FA;" width="193.648" height="51.892"/>
				
					<linearGradient id="SVGID_00000163779815476461108800000010817936099808244411_" gradientUnits="userSpaceOnUse" x1="1477.5507" y1="1968.8059" x2="1409.0129" y2="2215.8091">
					<stop  offset="0" style="stop-color:#FEBBBA"/>
					<stop  offset="1" style="stop-color:#FF928E"/>
				</linearGradient>
				
					<rect x="1363.521" y="1972.271" style="fill:url(#SVGID_00000163779815476461108800000010817936099808244411_);" width="211.738" height="51.892"/>
				
					<linearGradient id="SVGID_00000132060373805048384770000011207011491909336219_" gradientUnits="userSpaceOnUse" x1="1678.8341" y1="1633.6625" x2="1647.0481" y2="2361.3911">
					<stop  offset="0" style="stop-color:#FF928E"/>
					<stop  offset="1" style="stop-color:#FE7062"/>
				</linearGradient>
				
					<rect x="1557.042" y="1972.271" style="fill:url(#SVGID_00000132060373805048384770000011207011491909336219_);" width="211.738" height="51.892"/>
				
					<linearGradient id="SVGID_00000054242298501682055530000017325501218701152938_" gradientUnits="userSpaceOnUse" x1="1845.3727" y1="1547.4781" x2="1848.719" y2="2067.762">
					<stop  offset="0" style="stop-color:#E1473D"/>
					<stop  offset="1" style="stop-color:#E9605A"/>
				</linearGradient>
				
					<rect x="1750.563" y="1972.271" style="fill:url(#SVGID_00000054242298501682055530000017325501218701152938_);" width="195.417" height="51.892"/>
			</g>
			<g>
				<rect x="1172.268" y="1570.625" style="fill:#91B3FA;" width="193.648" height="51.892"/>
				
					<linearGradient id="SVGID_00000050628263619512231640000005356422091545338794_" gradientUnits="userSpaceOnUse" x1="1473.3873" y1="1567.1599" x2="1404.8497" y2="1814.1631">
					<stop  offset="0" style="stop-color:#FEBBBA"/>
					<stop  offset="1" style="stop-color:#FF928E"/>
				</linearGradient>
				
					<rect x="1359.358" y="1570.625" style="fill:url(#SVGID_00000050628263619512231640000005356422091545338794_);" width="211.738" height="51.892"/>
				
					<linearGradient id="SVGID_00000085947804436162901570000012803995639422211499_" gradientUnits="userSpaceOnUse" x1="1674.6708" y1="1232.0171" x2="1642.8848" y2="1959.7448">
					<stop  offset="0" style="stop-color:#FF928E"/>
					<stop  offset="1" style="stop-color:#FE7062"/>
				</linearGradient>
				
					<rect x="1552.879" y="1570.625" style="fill:url(#SVGID_00000085947804436162901570000012803995639422211499_);" width="211.738" height="51.892"/>
				
					<linearGradient id="SVGID_00000063621012437015798330000003359266819002233736_" gradientUnits="userSpaceOnUse" x1="1841.2094" y1="1145.833" x2="1844.5557" y2="1666.116">
					<stop  offset="0" style="stop-color:#E1473D"/>
					<stop  offset="1" style="stop-color:#E9605A"/>
				</linearGradient>
				
					<rect x="1746.4" y="1570.625" style="fill:url(#SVGID_00000063621012437015798330000003359266819002233736_);" width="195.417" height="51.892"/>
			</g>
			<g>
				<path style="fill:#FFFFFF;" d="M1337.3,1841.941h37.471v-98.368c0-4.818,0.137-9.858,0.405-15.123l-22.085,18.335
					c-1.428,1.16-2.856,1.987-4.284,2.475c-1.425,0.492-2.81,0.737-4.15,0.737c-2.32,0-4.391-0.513-6.221-1.539
					c-1.83-1.024-3.189-2.119-4.081-3.279l-13.119-17.399l60.761-50.99h34.262v165.151h32.119v29.979H1337.3V1841.941z"/>
				<path style="fill:#FFFFFF;" d="M1608.713,1774.353c0,17.043-1.83,31.809-5.489,44.3c-3.66,12.493-8.721,22.841-15.187,31.049
					c-6.473,8.211-14.145,14.321-23.022,18.335c-8.878,4.016-18.494,6.024-28.839,6.024c-10.351,0-19.925-2.008-28.708-6.024
					c-8.789-4.014-16.396-10.124-22.82-18.335c-6.424-8.208-11.443-18.556-15.057-31.049c-3.614-12.491-5.421-27.257-5.421-44.3
					c0-17.04,1.807-31.805,5.421-44.298c3.614-12.491,8.633-22.839,15.057-31.051c6.424-8.208,14.03-14.297,22.82-18.268
					c8.783-3.968,18.357-5.955,28.708-5.955c10.345,0,19.961,1.987,28.839,5.955c8.878,3.972,16.55,10.061,23.022,18.268
					c6.466,8.211,11.527,18.559,15.187,31.051C1606.884,1742.548,1608.713,1757.314,1608.713,1774.353z M1565.884,1774.353
					c0-13.47-0.849-24.512-2.542-33.124c-1.696-8.61-3.947-15.368-6.757-20.276c-2.81-4.906-6.002-8.275-9.57-10.104
					c-3.571-1.827-7.185-2.743-10.838-2.743c-3.66,0-7.254,0.917-10.776,2.743c-3.526,1.83-6.646,5.198-9.368,10.104
					c-2.722,4.908-4.908,11.667-6.558,20.276c-1.653,8.611-2.477,19.654-2.477,33.124c0,13.563,0.823,24.627,2.477,33.191
					c1.65,8.566,3.836,15.324,6.558,20.276s5.842,8.345,9.368,10.172c3.522,1.83,7.116,2.745,10.776,2.745
					c3.653,0,7.267-0.915,10.838-2.745c3.568-1.827,6.76-5.22,9.57-10.172c2.81-4.952,5.061-11.711,6.757-20.276
					C1565.034,1798.98,1565.884,1787.917,1565.884,1774.353z"/>
				<path style="fill:#FFFFFF;" d="M1706.142,1748.39c7.045,0,14.004,1.16,20.876,3.48c6.871,2.322,13.027,5.888,18.471,10.706
					c5.44,4.818,9.835,10.908,13.181,18.268c3.346,7.362,5.019,16.04,5.019,26.032c0,9.1-1.696,17.733-5.084,25.896
					c-3.392,8.165-8.188,15.303-14.39,21.415c-6.202,6.112-13.671,10.953-22.415,14.521c-8.744,3.568-18.425,5.354-29.041,5.354
					c-10.887,0-20.657-1.719-29.312-5.153c-8.656-3.434-15.994-8.231-22.013-14.388c-6.025-6.156-10.619-13.517-13.789-22.081
					c-3.166-8.566-4.751-17.979-4.751-28.241c0-9.724,1.876-19.405,5.62-29.041c3.751-9.636,9.279-19.45,16.599-29.445
					l43.895-59.288c1.964-2.678,4.908-4.929,8.835-6.759c3.924-1.828,8.384-2.743,13.383-2.743h36.938l-57.818,69.057
					c-0.892,0.984-1.764,1.987-2.607,3.011c-0.849,1.028-1.673,2.031-2.477,3.013c3.12-1.158,6.401-2.052,9.835-2.678
					C1698.532,1748.704,1702.215,1748.39,1706.142,1748.39z M1662.776,1809.82c0,4.818,0.582,9.147,1.742,12.982
					c1.16,3.838,2.944,7.139,5.355,9.904c2.405,2.768,5.437,4.886,9.097,6.359c3.66,1.472,7.986,2.207,12.985,2.207
					c4.28,0,8.273-0.802,11.979-2.408c3.699-1.606,6.891-3.815,9.567-6.625c2.679-2.812,4.797-6.11,6.358-9.904
					c1.562-3.792,2.339-7.917,2.339-12.38c0-4.996-0.732-9.456-2.205-13.383c-1.474-3.926-3.545-7.228-6.224-9.904
					c-2.676-2.676-5.911-4.728-9.704-6.156c-3.79-1.426-8.005-2.142-12.645-2.142c-4.195,0-8.031,0.735-11.508,2.209
					c-3.483,1.472-6.492,3.593-9.038,6.357c-2.542,2.766-4.529,6.068-5.953,9.904
					C1663.489,1800.676,1662.776,1805.002,1662.776,1809.82z"/>
			</g>
			<g>
				<path style="fill:#FFFFFF;" d="M1421.587,2236.083c0,17.043-1.83,31.809-5.483,44.3c-3.66,12.493-8.724,22.841-15.194,31.049
					c-6.469,8.211-14.141,14.321-23.016,18.335c-8.881,4.016-18.494,6.024-28.845,6.024c-10.351,0-19.918-2.008-28.708-6.024
					c-8.789-4.014-16.393-10.124-22.817-18.335c-6.427-8.208-11.446-18.556-15.056-31.049c-3.614-12.491-5.421-27.257-5.421-44.3
					c0-17.04,1.807-31.805,5.421-44.299c3.61-12.491,8.629-22.839,15.056-31.05c6.424-8.208,14.027-14.297,22.817-18.268
					c8.789-3.968,18.357-5.955,28.708-5.955c10.351,0,19.964,1.987,28.845,5.955c8.874,3.971,16.546,10.06,23.016,18.268
					c6.47,8.211,11.534,18.559,15.194,31.05C1419.757,2204.277,1421.587,2219.043,1421.587,2236.083z M1378.764,2236.083
					c0-13.47-0.849-24.512-2.542-33.124c-1.699-8.61-3.95-15.368-6.76-20.276c-2.813-4.906-6.002-8.275-9.57-10.104
					c-3.568-1.827-7.182-2.743-10.841-2.743s-7.247,0.917-10.773,2.743c-3.526,1.83-6.649,5.198-9.368,10.104
					c-2.725,4.908-4.908,11.667-6.558,20.276c-1.65,8.611-2.477,19.654-2.477,33.124c0,13.563,0.827,24.627,2.477,33.191
					c1.65,8.566,3.833,15.324,6.558,20.276c2.719,4.952,5.842,8.345,9.368,10.172c3.526,1.83,7.113,2.745,10.773,2.745
					s7.273-0.915,10.841-2.745c3.568-1.827,6.757-5.22,9.57-10.172c2.81-4.952,5.061-11.71,6.76-20.276
					C1377.914,2260.709,1378.764,2249.646,1378.764,2236.083z"/>
				<path style="fill:#FFFFFF;" d="M1434.97,2312.637c0-3.214,0.601-6.202,1.804-8.968c1.206-2.764,2.856-5.174,4.953-7.228
					c2.098-2.051,4.571-3.681,7.43-4.885c2.852-1.204,5.973-1.807,9.365-1.807c3.3,0,6.378,0.603,9.237,1.807
					c2.852,1.204,5.352,2.834,7.492,4.885c2.143,2.053,3.816,4.463,5.019,7.228c1.206,2.766,1.81,5.754,1.81,8.968
					c0,3.212-0.604,6.223-1.81,9.033c-1.202,2.81-2.875,5.243-5.019,7.295c-2.14,2.053-4.64,3.659-7.492,4.818
					c-2.859,1.158-5.937,1.74-9.237,1.74c-3.392,0-6.512-0.582-9.365-1.74c-2.859-1.158-5.333-2.764-7.43-4.818
					c-2.098-2.052-3.748-4.485-4.953-7.295C1435.571,2318.86,1434.97,2315.849,1434.97,2312.637z"/>
				<path style="fill:#FFFFFF;" d="M1640.002,2236.083c0,17.043-1.83,31.809-5.489,44.3c-3.659,12.493-8.721,22.841-15.187,31.049
					c-6.473,8.211-14.145,14.321-23.022,18.335c-8.878,4.016-18.494,6.024-28.839,6.024c-10.351,0-19.925-2.008-28.708-6.024
					c-8.79-4.014-16.396-10.124-22.82-18.335c-6.424-8.208-11.443-18.556-15.056-31.049c-3.614-12.491-5.421-27.257-5.421-44.3
					c0-17.04,1.807-31.805,5.421-44.299c3.614-12.491,8.633-22.839,15.056-31.05c6.424-8.208,14.03-14.297,22.82-18.268
					c8.783-3.968,18.356-5.955,28.708-5.955c10.345,0,19.961,1.987,28.839,5.955c8.878,3.971,16.55,10.06,23.022,18.268
					c6.466,8.211,11.528,18.559,15.187,31.05C1638.173,2204.277,1640.002,2219.043,1640.002,2236.083z M1597.173,2236.083
					c0-13.47-0.85-24.512-2.542-33.124c-1.696-8.61-3.947-15.368-6.757-20.276c-2.81-4.906-6.002-8.275-9.57-10.104
					c-3.571-1.827-7.185-2.743-10.838-2.743c-3.66,0-7.254,0.917-10.776,2.743c-3.526,1.83-6.646,5.198-9.368,10.104
					c-2.722,4.908-4.908,11.667-6.558,20.276c-1.653,8.611-2.477,19.654-2.477,33.124c0,13.563,0.823,24.627,2.477,33.191
					c1.65,8.566,3.836,15.324,6.558,20.276c2.722,4.952,5.842,8.345,9.368,10.172c3.522,1.83,7.116,2.745,10.776,2.745
					c3.653,0,7.267-0.915,10.838-2.745c3.568-1.827,6.76-5.22,9.57-10.172c2.81-4.952,5.061-11.71,6.757-20.276
					C1596.323,2260.709,1597.173,2249.646,1597.173,2236.083z"/>
				<path style="fill:#FFFFFF;" d="M1778.918,2155.782c0,2.857-0.448,5.444-1.336,7.763c-0.895,2.32-2.3,4.349-4.218,6.089
					c-1.918,1.74-4.44,3.078-7.561,4.016c-3.124,0.936-6.871,1.405-11.243,1.405h-46.574l-5.486,32.255
					c3.656-0.624,7.179-1.093,10.573-1.406c3.388-0.311,6.692-0.467,9.904-0.467c10.26,0,19.317,1.562,27.166,4.684
					c7.852,3.124,14.455,7.384,19.811,12.781c5.352,5.4,9.387,11.733,12.112,19.005c2.719,7.273,4.081,15.056,4.081,23.354
					c0,10.439-1.853,19.964-5.555,28.574c-3.702,8.611-8.858,16.038-15.458,22.282c-6.603,6.247-14.475,11.088-23.62,14.522
					s-19.164,5.153-30.047,5.153c-6.336,0-12.38-0.67-18.134-2.008c-5.754-1.338-11.152-3.145-16.193-5.421
					c-5.042-2.274-9.701-4.906-13.988-7.896c-4.28-2.988-8.162-6.177-11.642-9.569l12.851-17.131
					c1.336-1.784,2.895-3.145,4.682-4.083c1.784-0.936,3.702-1.405,5.754-1.405c2.679,0,5.195,0.737,7.561,2.209
					c2.366,1.472,4.953,3.078,7.763,4.818c2.81,1.74,6.09,3.325,9.835,4.751c3.751,1.428,8.388,2.142,13.919,2.142
					c5.535,0,10.26-0.915,14.187-2.745c3.927-1.826,7.117-4.326,9.57-7.494c2.454-3.166,4.238-6.87,5.355-11.108
					c1.111-4.238,1.673-8.766,1.673-13.584c0-9.456-2.679-16.662-8.031-21.614c-5.352-4.952-12.939-7.428-22.754-7.428
					c-8.744,0-17.311,1.652-25.695,4.952l-25.695-6.96l16.595-97.564h99.84V2155.782z"/>
			</g>
			<g>
				
					<linearGradient id="SVGID_00000171707660806216210550000013382484039478883506_" gradientUnits="userSpaceOnUse" x1="1472.1959" y1="2055.8169" x2="1308.0493" y2="2791.6445">
					<stop  offset="0" style="stop-color:#4F52FF"/>
					<stop  offset="1" style="stop-color:#4042E2"/>
				</linearGradient>
				<path style="opacity:0.42;fill:url(#SVGID_00000171707660806216210550000013382484039478883506_);" d="M1506.542,2856.719
					h-338.554c-6.29,0-11.39-5.099-11.39-11.389v-369.306c0-6.29,5.099-11.39,11.39-11.39h338.554c6.29,0,11.39,5.099,11.39,11.39
					v369.306C1517.932,2851.62,1512.833,2856.719,1506.542,2856.719z"/>
				<g>
					<rect x="1156.599" y="2464.633" style="fill:#91B3FA;" width="90.925" height="38.715"/>
					
						<linearGradient id="SVGID_00000080917341713934284610000011818010754436637348_" gradientUnits="userSpaceOnUse" x1="1299.0446" y1="2466.3667" x2="1257.9749" y2="2614.3782">
						<stop  offset="0" style="stop-color:#FEBBBA"/>
						<stop  offset="1" style="stop-color:#FF928E"/>
					</linearGradient>
					
						<rect x="1244.445" y="2464.633" style="fill:url(#SVGID_00000080917341713934284610000011818010754436637348_);" width="99.419" height="38.715"/>
					
						<linearGradient id="SVGID_00000121981833746348709750000010696611631870320827_" gradientUnits="userSpaceOnUse" x1="1396.2338" y1="2227.2588" x2="1373.8489" y2="2739.7507">
						<stop  offset="0" style="stop-color:#FF928E"/>
						<stop  offset="1" style="stop-color:#FE7062"/>
					</linearGradient>
					
						<rect x="1335.311" y="2464.633" style="fill:url(#SVGID_00000121981833746348709750000010696611631870320827_);" width="99.419" height="38.715"/>
					
						<linearGradient id="SVGID_00000008142085788048113920000017228843139548770694_" gradientUnits="userSpaceOnUse" x1="1469.9103" y1="2150.6587" x2="1472.3849" y2="2535.4209">
						<stop  offset="0" style="stop-color:#E1473D"/>
						<stop  offset="1" style="stop-color:#E9605A"/>
					</linearGradient>
					
						<rect x="1426.176" y="2464.633" style="fill:url(#SVGID_00000008142085788048113920000017228843139548770694_);" width="91.756" height="38.715"/>
				</g>
				<path style="fill:#7D97F4;" d="M1457.484,2738.62h-243.969c-14.038,0-25.418-11.38-25.418-25.418v-56.957
					c0-14.038,11.38-25.418,25.418-25.418h243.969c14.038,0,25.418,11.38,25.418,25.418v56.957
					C1482.902,2727.24,1471.522,2738.62,1457.484,2738.62z"/>
				<path style="fill:#7D97F4;" d="M1471.169,2603.52h-264.647c-8.328,0-15.079-6.751-15.079-15.079v-10.522
					c0-8.328,6.751-15.079,15.079-15.079h264.647c8.328,0,15.079,6.751,15.079,15.079v10.522
					C1486.248,2596.769,1479.496,2603.52,1471.169,2603.52z"/>
				<path style="fill:#7D97F4;" d="M1467.823,2817.656h-113.899c-8.328,0-15.079-6.751-15.079-15.079v-10.522
					c0-8.328,6.751-15.079,15.079-15.079h113.899c8.328,0,15.079,6.751,15.079,15.079v10.522
					C1482.902,2810.905,1476.151,2817.656,1467.823,2817.656z"/>
			</g>
			<g>
				
					<linearGradient id="SVGID_00000076565155755134668900000013366370050669990300_" gradientUnits="userSpaceOnUse" x1="1919.223" y1="2055.8169" x2="1755.0764" y2="2791.6445">
					<stop  offset="0" style="stop-color:#4F52FF"/>
					<stop  offset="1" style="stop-color:#4042E2"/>
				</linearGradient>
				<path style="opacity:0.42;fill:url(#SVGID_00000076565155755134668900000013366370050669990300_);" d="M1953.569,2856.719
					h-338.554c-6.29,0-11.39-5.099-11.39-11.389v-369.306c0-6.29,5.099-11.39,11.39-11.39h338.554c6.29,0,11.39,5.099,11.39,11.39
					v369.306C1964.959,2851.62,1959.86,2856.719,1953.569,2856.719z"/>
				<path style="fill:#7D97F4;" d="M1904.604,2741.966h-243.969c-14.038,0-25.418-11.38-25.418-25.418v-56.957
					c0-14.038,11.38-25.418,25.418-25.418h243.969c14.038,0,25.418,11.38,25.418,25.418v56.957
					C1930.022,2730.586,1918.642,2741.966,1904.604,2741.966z"/>
				<path style="fill:#7D97F4;" d="M1918.289,2606.866h-264.647c-8.328,0-15.079-6.751-15.079-15.079v-10.522
					c0-8.328,6.751-15.079,15.079-15.079h264.647c8.328,0,15.079,6.751,15.079,15.079v10.522
					C1933.368,2600.115,1926.617,2606.866,1918.289,2606.866z"/>
				<path style="fill:#7D97F4;" d="M1914.943,2821.001h-113.899c-8.328,0-15.079-6.751-15.079-15.079V2795.4
					c0-8.328,6.751-15.079,15.079-15.079h113.899c8.328,0,15.079,6.751,15.079,15.079v10.522
					C1930.022,2814.25,1923.271,2821.001,1914.943,2821.001z"/>
				<g>
					<rect x="1605.581" y="2464.633" style="fill:#91B3FA;" width="90.925" height="38.715"/>
					
						<linearGradient id="SVGID_00000120526266908883963300000003008181933485932448_" gradientUnits="userSpaceOnUse" x1="1748.0265" y1="2466.3667" x2="1706.9568" y2="2614.3782">
						<stop  offset="0" style="stop-color:#FEBBBA"/>
						<stop  offset="1" style="stop-color:#FF928E"/>
					</linearGradient>
					
						<rect x="1693.427" y="2464.633" style="fill:url(#SVGID_00000120526266908883963300000003008181933485932448_);" width="99.419" height="38.715"/>
					
						<linearGradient id="SVGID_00000134250934077194944900000010937148939616923297_" gradientUnits="userSpaceOnUse" x1="1845.2157" y1="2227.2588" x2="1822.8308" y2="2739.7507">
						<stop  offset="0" style="stop-color:#FF928E"/>
						<stop  offset="1" style="stop-color:#FE7062"/>
					</linearGradient>
					
						<rect x="1784.292" y="2464.633" style="fill:url(#SVGID_00000134250934077194944900000010937148939616923297_);" width="99.419" height="38.715"/>
					
						<linearGradient id="SVGID_00000046304841759178045160000008041678313806884506_" gradientUnits="userSpaceOnUse" x1="1918.8922" y1="2150.6587" x2="1921.3668" y2="2535.4209">
						<stop  offset="0" style="stop-color:#E1473D"/>
						<stop  offset="1" style="stop-color:#E9605A"/>
					</linearGradient>
					
						<rect x="1875.158" y="2464.633" style="fill:url(#SVGID_00000046304841759178045160000008041678313806884506_);" width="91.756" height="38.715"/>
				</g>
			</g>
		</g>
		<g>
			<path style="fill:#FFFFFF;" d="M2192.22,1335.418c-2.14,0-4.244-1.024-5.542-2.929c-2.078-3.055-1.284-7.218,1.771-9.296
				c31.387-21.343,70.449-47.906,112.838-48.018c0.088,0,0.18,0,0.268,0c24.117,0,46.029,8.642,67.228,17.002
				c16.733,6.6,32.541,12.835,49.407,15.207c24.238,3.405,44.738-5.496,66.414-14.927c9.75-4.241,19.833-8.626,30.544-12.011
				c42.581-13.452,79.575-16.305,109.959-8.474c15.958,4.111,29.682,11.652,42.954,18.945c15.119,8.309,29.401,16.158,46.773,19.34
				c62.346,11.426,148.715,3.684,191.028-40.319c2.565-2.665,6.8-2.743,9.462-0.185c2.663,2.562,2.745,6.798,0.183,9.461
				c-45.986,47.821-135.138,56.656-203.085,44.207c-19.507-3.574-35.419-12.318-50.809-20.774
				c-13.125-7.213-25.519-14.024-39.846-17.716c-27.92-7.192-62.431-4.408-102.588,8.278c-10.047,3.173-19.801,7.417-29.237,11.521
				c-22.428,9.757-45.636,19.847-73.616,15.908c-18.438-2.593-35.733-9.413-52.456-16.009
				c-20.951-8.263-40.745-16.069-62.313-16.069c-0.078,0-0.157,0-0.239,0c-38.288,0.103-75.468,25.386-105.342,45.702
				C2194.825,1335.044,2193.514,1335.418,2192.22,1335.418z"/>
			<path style="fill:#FFFFFF;" d="M2729.023,1396.63c-16.007,0-29.041-0.769-36.968-1.394
				c-28.257-2.225-53.861-13.511-78.625-24.424c-27.149-11.967-52.835-23.32-80.997-23.068
				c-27.149,0.191-51.233,9.191-76.729,18.721c-12.609,4.712-25.646,9.583-39.125,13.32c-52.132,14.458-103.977-4.307-143.32-22.268
				c-3.362-1.534-4.845-5.504-3.31-8.866c1.536-3.364,5.512-4.844,8.865-3.308c37.281,17.017,86.218,34.842,134.191,21.546
				c12.913-3.581,25.672-8.348,38.014-12.96c25.466-9.518,51.799-19.359,81.323-19.567c31.073-0.26,59.252,12.197,86.486,24.205
				c23.741,10.462,48.286,21.282,74.279,23.33c58.938,4.636,137.988-1.528,182.97-32.755c3.032-2.109,7.205-1.354,9.312,1.681
				c2.108,3.037,1.356,7.206-1.679,9.314C2839.521,1390.809,2773.048,1396.63,2729.023,1396.63z"/>
		</g>
		<g>
			<path style="fill:#FFFFFF;" d="M2379.102,1676.351c-2.14,0-4.244-1.024-5.542-2.929c-2.078-3.055-1.284-7.218,1.771-9.296
				c31.387-21.343,70.449-47.907,112.838-48.02c0.085,0,0.177,0,0.265,0c24.117,0,46.032,8.642,67.228,17.002
				c16.736,6.602,32.544,12.836,49.41,15.208c24.271,3.408,44.731-5.498,66.411-14.927c9.753-4.241,19.833-8.626,30.547-12.011
				c42.584-13.452,79.585-16.303,109.963-8.474c15.958,4.11,29.681,11.652,42.954,18.945c15.118,8.309,29.4,16.157,46.77,19.34
				c62.346,11.428,148.718,3.682,191.028-40.32c2.565-2.665,6.8-2.743,9.463-0.185c2.663,2.562,2.744,6.798,0.183,9.461
				c-45.983,47.819-135.135,56.661-203.085,44.208c-19.503-3.573-35.416-12.318-50.805-20.774
				c-13.122-7.213-25.519-14.024-39.846-17.716c-27.914-7.192-62.438-4.409-102.591,8.278c-10.047,3.173-19.804,7.417-29.24,11.523
				c-22.431,9.755-45.646,19.845-73.612,15.906c-18.438-2.593-35.733-9.414-52.459-16.01c-20.951-8.262-40.745-16.069-62.313-16.069
				c-0.078,0-0.154,0-0.235,0c-38.285,0.103-75.468,25.386-105.342,45.703C2381.706,1675.977,2380.396,1676.351,2379.102,1676.351z"
				/>
			<path style="fill:#FFFFFF;" d="M2915.911,1737.562c-16.01,0-29.048-0.77-36.974-1.394c-28.257-2.225-53.864-13.511-78.625-24.424
				c-27.146-11.965-52.691-23.279-80.997-23.068c-27.149,0.191-51.234,9.191-76.729,18.721
				c-12.609,4.712-25.646,9.585-39.124,13.321c-52.119,14.452-103.977-4.308-143.32-22.269c-3.362-1.534-4.846-5.504-3.31-8.866
				c1.532-3.364,5.512-4.846,8.865-3.308c37.281,17.017,86.218,34.842,134.191,21.547c12.916-3.581,25.675-8.35,38.013-12.962
				c25.467-9.516,51.802-19.358,81.323-19.567c31.113-0.265,59.245,12.199,86.486,24.205c23.738,10.462,48.286,21.282,74.279,23.329
				c58.955,4.636,137.984-1.524,182.97-32.755c3.036-2.109,7.208-1.356,9.312,1.681c2.107,3.037,1.356,7.206-1.679,9.314
				C3026.403,1731.741,2959.936,1737.562,2915.911,1737.562z"/>
		</g>
		<g>
			<g>
				<circle style="fill:#FFFFFF;" cx="1483.948" cy="749.836" r="212.799"/>
				<path style="fill:#91B3FA;" d="M1483.949,967.654c-120.105,0-217.818-97.713-217.818-217.818
					c0-120.105,97.713-217.818,217.818-217.818c120.105,0,217.818,97.713,217.818,217.818
					C1701.767,869.941,1604.054,967.654,1483.949,967.654z M1483.949,542.056c-114.57,0-207.78,93.21-207.78,207.78
					c0,114.57,93.21,207.78,207.78,207.78s207.78-93.21,207.78-207.78C1691.729,635.266,1598.519,542.056,1483.949,542.056z"/>
			</g>
			<g>
				<path style="fill:#7D97F4;" d="M1540.669,792.956c0,69.227-43.354,103.29-96.834,103.29c-53.48,0-96.834-34.063-96.834-103.29
					c0-55.382,61.975-145.566,86.764-179.423c4.989-6.813,15.152-6.813,20.141,0
					C1478.695,647.391,1540.669,737.575,1540.669,792.956z"/>
				
					<linearGradient id="SVGID_00000052789877008790217470000002210245897931231124_" gradientUnits="userSpaceOnUse" x1="1360.5248" y1="824.5157" x2="1500.556" y2="824.5157">
					<stop  offset="0" style="stop-color:#DAE3FE"/>
					<stop  offset="1" style="stop-color:#E9EFFD"/>
				</linearGradient>
				<path style="fill:url(#SVGID_00000052789877008790217470000002210245897931231124_);" d="M1445.071,880.034
					c-46.619,0-84.546-35.937-84.546-80.111c0-10.29,2.03-20.309,6.034-29.779c0.403-0.954,1.504-1.402,2.456-0.996
					c0.953,0.403,1.4,1.503,0.996,2.456c-3.807,9.006-5.738,18.534-5.738,28.32c0,42.106,36.245,76.362,80.798,76.362
					c19.218,0,37.839-6.486,52.435-18.263c0.806-0.649,1.986-0.523,2.635,0.282c0.65,0.805,0.523,1.985-0.282,2.635
					C1484.599,873.253,1465.142,880.034,1445.071,880.034z"/>
			</g>
			<g>
				
					<rect x="1578.532" y="606.932" transform="matrix(-1.836970e-16 1 -1 -1.836970e-16 2212.6533 -958.0135)" style="fill:#91B3FA;" width="13.603" height="40.776"/>
				
					<rect x="1571.525" y="636.669" transform="matrix(-1.836970e-16 1 -1 -1.836970e-16 2228.3765 -928.2766)" style="fill:#91B3FA;" width="13.604" height="26.762"/>
				
					<rect x="1588.842" y="642.082" transform="matrix(-1.836970e-16 1 -1 -1.836970e-16 2268.4236 -922.8638)" style="fill:#91B3FA;" width="13.604" height="61.396"/>
				
					<rect x="1565.519" y="688.135" transform="matrix(-1.836970e-16 1 -1 -1.836970e-16 2267.8306 -876.8105)" style="fill:#91B3FA;" width="13.603" height="14.75"/>
				
					<rect x="1590.222" y="686.162" transform="matrix(-1.836970e-16 1 -1 -1.836970e-16 2315.2637 -878.7839)" style="fill:#91B3FA;" width="13.603" height="64.156"/>
				
					<rect x="1580.133" y="718.98" transform="matrix(-1.836970e-16 1 -1 -1.836970e-16 2327.905 -845.9651)" style="fill:#91B3FA;" width="13.603" height="43.979"/>
				
					<rect x="1575.128" y="746.715" transform="matrix(-1.836970e-16 1 -1 -1.836970e-16 2345.6299 -818.2302)" style="fill:#91B3FA;" width="13.603" height="33.969"/>
				
					<rect x="1595.048" y="749.525" transform="matrix(-1.836970e-16 1 -1 -1.836970e-16 2388.2798 -815.4202)" style="fill:#91B3FA;" width="13.603" height="73.809"/>
				
					<rect x="1598.827" y="768.476" transform="matrix(-1.836970e-16 1 -1 -1.836970e-16 2414.7888 -796.4693)" style="fill:#91B3FA;" width="13.603" height="81.367"/>
				
					<rect x="1585.238" y="804.795" transform="matrix(-1.836970e-16 1 -1 -1.836970e-16 2423.9299 -760.1503)" style="fill:#91B3FA;" width="13.603" height="54.189"/>
				
					<rect x="1564.834" y="847.929" transform="matrix(-1.836970e-16 1 -1 -1.836970e-16 2426.2559 -717.0162)" style="fill:#91B3FA;" width="13.603" height="13.381"/>
				
					<rect x="1577.831" y="857.663" transform="matrix(-1.836970e-16 1 -1 -1.836970e-16 2461.9827 -707.283)" style="fill:#91B3FA;" width="13.603" height="39.374"/>
			</g>
		</g>
		<g>
			<g>
				<circle style="fill:#FFFFFF;" cx="961.93" cy="830.409" r="223.998"/>
				<path style="fill:#91B3FA;" d="M961.929,1059.425c-126.28,0-229.015-102.735-229.015-229.015s102.735-229.017,229.015-229.017
					s229.018,102.737,229.018,229.017S1088.209,1059.425,961.929,1059.425z M961.929,611.43
					c-120.745,0-218.978,98.234-218.978,218.979s98.232,218.978,218.978,218.978s218.981-98.232,218.981-218.978
					S1082.674,611.43,961.929,611.43z"/>
			</g>
			<g>
				<g>
					<path style="fill:#FFFFFF;" d="M958.154,897.092V651.419c0-14-11.454-25.455-25.455-25.455h-5.43
						c-14,0-25.455,11.455-25.455,25.455v245.486c-20.909,10.33-35.297,31.861-35.297,56.761c0,34.951,28.333,63.284,63.283,63.284
						c34.951,0,63.284-28.333,63.284-63.284C993.085,928.912,978.864,907.492,958.154,897.092z"/>
					<path style="fill:#91B3FA;" d="M929.8,1021.968c-37.661,0-68.299-30.64-68.299-68.303c0-25.123,13.442-47.757,35.295-59.801
						V651.419c0-16.803,13.671-30.474,30.475-30.474h5.427c16.805,0,30.475,13.671,30.475,30.474v242.655
						c21.624,12.099,34.929,34.653,34.929,59.592C998.103,991.328,967.464,1021.968,929.8,1021.968z M927.271,630.983
						c-11.269,0-20.438,9.169-20.438,20.436v248.605l-2.797,1.38c-20.046,9.904-32.498,29.93-32.498,52.261
						c0,32.127,26.136,58.265,58.262,58.265c32.129,0,58.265-26.138,58.265-58.265c0-22.166-12.325-42.126-32.161-52.09
						l-2.768-1.389V651.419c0-11.268-9.169-20.436-20.438-20.436H927.271z"/>
				</g>
				<path style="fill:#7D97F4;" d="M945.708,906.521V660.788c0-7.631-6.244-13.876-13.875-13.876h-4.061
					c-7.631,0-13.875,6.244-13.875,13.876v245.732c-20.191,6.673-34.766,25.684-34.766,48.11c0,27.985,22.686,50.672,50.672,50.672
					s50.672-22.687,50.672-50.672C980.474,932.204,965.898,913.193,945.708,906.521z"/>
			</g>
			<g>
				
					<linearGradient id="SVGID_00000120532498778209536440000013635461111258902417_" gradientUnits="userSpaceOnUse" x1="1081.4172" y1="700.5856" x2="1046.2856" y2="842.7853">
					<stop  offset="0" style="stop-color:#FEBBBA"/>
					<stop  offset="1" style="stop-color:#FF928E"/>
				</linearGradient>
				
					<circle style="fill:url(#SVGID_00000120532498778209536440000013635461111258902417_);" cx="1055.659" cy="804.844" r="55.007"/>
				<g>
					<g>
						<g>
							
								<linearGradient id="SVGID_00000054246909323782081000000016660936297342643131_" gradientUnits="userSpaceOnUse" x1="1109.433" y1="842.9221" x2="1113.1444" y2="842.9221">
								<stop  offset="0" style="stop-color:#FEBBBA"/>
								<stop  offset="1" style="stop-color:#FF928E"/>
							</linearGradient>
							<path style="fill:url(#SVGID_00000054246909323782081000000016660936297342643131_);" d="M1110.537,845.187
								c-0.213,0-0.429-0.061-0.619-0.19c-0.505-0.342-0.638-1.029-0.296-1.535c0.508-0.751,1.001-1.512,1.476-2.281
								c0.32-0.519,1.001-0.68,1.522-0.359c0.519,0.321,0.68,1.002,0.359,1.521c-0.491,0.794-1,1.58-1.525,2.357
								C1111.24,845.017,1110.892,845.187,1110.537,845.187z"/>
						</g>
						<g>
							
								<linearGradient id="SVGID_00000106834718597370773800000002061195518701898398_" gradientUnits="userSpaceOnUse" x1="987.8922" y1="848.337" x2="1108.3483" y2="848.337">
								<stop  offset="0" style="stop-color:#FEBBBA"/>
								<stop  offset="1" style="stop-color:#FF928E"/>
							</linearGradient>
							<path style="fill:url(#SVGID_00000106834718597370773800000002061195518701898398_);" d="M1054.573,874.915l-0.652-0.003
								c-0.61-0.006-1.1-0.506-1.094-1.117c0.006-0.611,0.48-1.103,1.117-1.094l0.63,0.003c1.604,0,3.228-0.059,4.825-0.174
								c0.614-0.029,1.139,0.414,1.183,1.023c0.044,0.609-0.414,1.138-1.023,1.183
								C1057.907,874.854,1056.23,874.915,1054.573,874.915z M1048.392,874.633c-0.033,0-0.067-0.002-0.101-0.005
								c-1.862-0.17-3.742-0.419-5.588-0.741c-0.602-0.105-1.005-0.677-0.9-1.279c0.105-0.601,0.675-1,1.279-0.9
								c1.788,0.311,3.608,0.553,5.41,0.717c0.608,0.056,1.056,0.594,1.001,1.201
								C1049.439,874.202,1048.957,874.633,1048.392,874.633z M1064.988,874.11c-0.536,0-1.006-0.39-1.091-0.935
								c-0.093-0.603,0.32-1.169,0.922-1.262c1.789-0.278,3.59-0.635,5.353-1.061c0.596-0.144,1.191,0.221,1.334,0.815
								c0.143,0.594-0.222,1.191-0.815,1.334c-1.822,0.44-3.682,0.809-5.532,1.096
								C1065.101,874.105,1065.044,874.11,1064.988,874.11z M1037.47,872.728c-0.092,0-0.186-0.011-0.278-0.036
								c-1.812-0.471-3.626-1.023-5.393-1.64c-0.576-0.201-0.88-0.832-0.679-1.408c0.201-0.577,0.833-0.879,1.408-0.679
								c1.71,0.597,3.467,1.131,5.22,1.587c0.591,0.153,0.946,0.757,0.792,1.348C1038.41,872.398,1037.962,872.728,1037.47,872.728z
								 M1075.766,871.508c-0.464,0-0.896-0.294-1.049-0.759c-0.192-0.58,0.123-1.205,0.702-1.396
								c1.721-0.569,3.439-1.218,5.105-1.927c0.564-0.24,1.211,0.023,1.45,0.584c0.239,0.562-0.023,1.211-0.584,1.45
								c-1.722,0.732-3.498,1.402-5.277,1.991C1075.998,871.489,1075.881,871.508,1075.766,871.508z M1027.007,869.072
								c-0.15,0-0.303-0.031-0.449-0.096c-1.711-0.76-3.411-1.602-5.052-2.499c-0.535-0.293-0.732-0.965-0.439-1.5
								c0.293-0.535,0.965-0.731,1.5-0.439c1.588,0.869,3.232,1.683,4.889,2.42c0.558,0.248,0.809,0.901,0.561,1.459
								C1027.835,868.827,1027.43,869.072,1027.007,869.072z M1085.968,867.168c-0.397,0-0.781-0.214-0.979-0.59
								c-0.284-0.54-0.078-1.208,0.463-1.494c1.601-0.844,3.189-1.766,4.72-2.74c0.516-0.328,1.198-0.176,1.526,0.339
								c0.328,0.516,0.176,1.198-0.339,1.526c-1.582,1.007-3.223,1.959-4.876,2.831
								C1086.318,867.127,1086.142,867.168,1085.968,867.168z M1017.287,863.752c-0.209,0-0.42-0.059-0.608-0.183
								c-1.562-1.03-3.099-2.14-4.571-3.296c-0.48-0.377-0.564-1.072-0.186-1.552c0.377-0.48,1.073-0.563,1.552-0.186
								c1.424,1.119,2.912,2.192,4.423,3.189c0.51,0.336,0.65,1.022,0.314,1.531
								C1017.998,863.577,1017.646,863.752,1017.287,863.752z M1095.322,861.214c-0.335,0-0.665-0.151-0.883-0.439
								c-0.368-0.487-0.271-1.18,0.215-1.548c0.261-0.197,0.52-0.396,0.778-0.598c1.173-0.915,2.33-1.882,3.439-2.872
								c0.456-0.406,1.154-0.366,1.561,0.089c0.406,0.456,0.367,1.154-0.089,1.561c-1.145,1.022-2.339,2.02-3.551,2.965
								c-0.268,0.209-0.536,0.416-0.805,0.619C1095.787,861.141,1095.553,861.214,1095.322,861.214z M1008.578,856.908
								c-0.269,0-0.539-0.098-0.752-0.295c-1.367-1.27-2.703-2.617-3.97-4.003c-0.412-0.451-0.381-1.15,0.07-1.562
								c0.452-0.412,1.151-0.379,1.562,0.07c1.226,1.342,2.519,2.645,3.843,3.874c0.447,0.416,0.473,1.115,0.058,1.563
								C1009.17,856.789,1008.874,856.908,1008.578,856.908z M1103.59,853.826c-0.274,0-0.547-0.101-0.761-0.304
								c-0.443-0.42-0.46-1.12-0.04-1.563c1.248-1.314,2.457-2.696,3.593-4.107c0.384-0.476,1.079-0.549,1.554-0.169
								c0.476,0.383,0.551,1.078,0.168,1.555c-1.173,1.458-2.422,2.887-3.712,4.244
								C1104.174,853.71,1103.882,853.826,1103.59,853.826z M1001.1,848.724c-0.33,0-0.656-0.147-0.874-0.428
								c-1.15-1.483-2.251-3.028-3.271-4.593c-0.333-0.511-0.189-1.196,0.322-1.529c0.511-0.334,1.196-0.189,1.53,0.322
								c0.988,1.514,2.054,3.01,3.167,4.446c0.374,0.483,0.286,1.177-0.196,1.551C1001.575,848.649,1001.337,848.724,1001.1,848.724
								z M995.041,839.439c-0.393,0-0.773-0.209-0.973-0.579c-0.893-1.649-1.727-3.353-2.478-5.066
								c-0.246-0.559,0.009-1.211,0.568-1.456c0.558-0.245,1.211,0.009,1.456,0.568c0.728,1.656,1.535,3.306,2.399,4.902
								c0.291,0.537,0.091,1.208-0.446,1.498C995.398,839.396,995.218,839.439,995.041,839.439z M990.582,829.288
								c-0.459,0-0.888-0.288-1.045-0.747c-0.607-1.768-1.149-3.586-1.611-5.404c-0.15-0.592,0.208-1.193,0.799-1.343
								c0.591-0.151,1.194,0.208,1.343,0.799c0.446,1.76,0.971,3.52,1.559,5.23c0.198,0.577-0.109,1.206-0.687,1.404
								C990.823,829.268,990.702,829.288,990.582,829.288z"/>
						</g>
						<g>
							
								<linearGradient id="SVGID_00000105427320829993137010000011175099848861446834_" gradientUnits="userSpaceOnUse" x1="986.3428" y1="816.0047" x2="988.9514" y2="816.0047">
								<stop  offset="0" style="stop-color:#FEBBBA"/>
								<stop  offset="1" style="stop-color:#FF928E"/>
							</linearGradient>
							<path style="fill:url(#SVGID_00000105427320829993137010000011175099848861446834_);" d="M987.845,818.477
								c-0.531,0-0.999-0.383-1.089-0.924c-0.154-0.924-0.289-1.851-0.404-2.778c-0.076-0.606,0.354-1.158,0.96-1.234
								c0.6-0.078,1.158,0.354,1.234,0.96c0.112,0.898,0.242,1.794,0.391,2.688c0.1,0.602-0.306,1.172-0.908,1.272
								C987.966,818.472,987.905,818.477,987.845,818.477z"/>
						</g>
					</g>
					<g>
						<g>
							
								<linearGradient id="SVGID_00000041999674615907763430000006843713385514890374_" gradientUnits="userSpaceOnUse" x1="999.1187" y1="762.3604" x2="1003.0217" y2="762.3604">
								<stop  offset="0" style="stop-color:#FEBBBA"/>
								<stop  offset="1" style="stop-color:#FF928E"/>
							</linearGradient>
							<path style="fill:url(#SVGID_00000041999674615907763430000006843713385514890374_);" d="M1000.223,764.557
								c-0.229,0-0.46-0.071-0.658-0.218c-0.49-0.364-0.593-1.056-0.228-1.546c0.556-0.749,1.13-1.489,1.72-2.219
								c0.384-0.475,1.081-0.548,1.554-0.165c0.475,0.384,0.549,1.08,0.165,1.554c-0.571,0.706-1.126,1.422-1.664,2.148
								C1000.895,764.403,1000.561,764.557,1000.223,764.557z"/>
						</g>
						<g>
							
								<linearGradient id="SVGID_00000095306628232686285330000016009084278682318229_" gradientUnits="userSpaceOnUse" x1="1004.4134" y1="763.1819" x2="1121.8788" y2="763.1819">
								<stop  offset="0" style="stop-color:#FEBBBA"/>
								<stop  offset="1" style="stop-color:#FF928E"/>
							</linearGradient>
							<path style="fill:url(#SVGID_00000095306628232686285330000016009084278682318229_);" d="M1120.772,791.333
								c-0.515,0-0.976-0.361-1.082-0.885c-0.356-1.75-0.787-3.505-1.281-5.215c-0.17-0.587,0.168-1.199,0.755-1.369
								c0.588-0.171,1.199,0.169,1.369,0.755c0.511,1.768,0.957,3.581,1.324,5.389c0.121,0.598-0.265,1.182-0.863,1.303
								C1120.919,791.326,1120.845,791.333,1120.772,791.333z M1117.741,780.853c-0.446,0-0.866-0.272-1.034-0.714
								c-0.633-1.667-1.343-3.329-2.109-4.938c-0.262-0.551-0.029-1.211,0.523-1.473c0.551-0.262,1.211-0.029,1.473,0.523
								c0.792,1.663,1.525,3.38,2.18,5.103c0.216,0.57-0.07,1.209-0.641,1.426C1118.005,780.83,1117.872,780.853,1117.741,780.853z
								 M1113.052,771.002c-0.381,0-0.752-0.197-0.957-0.551c-0.895-1.542-1.864-3.068-2.881-4.535
								c-0.348-0.502-0.222-1.191,0.28-1.538c0.501-0.348,1.19-0.222,1.538,0.28c1.049,1.515,2.05,3.092,2.974,4.684
								c0.307,0.528,0.127,1.205-0.401,1.511C1113.431,770.954,1113.241,771.002,1113.052,771.002z M1106.838,762.031
								c-0.32,0-0.638-0.139-0.856-0.406c-1.129-1.381-2.326-2.732-3.559-4.015c-0.423-0.44-0.409-1.14,0.031-1.563
								c0.439-0.423,1.14-0.409,1.563,0.031c1.273,1.326,2.51,2.721,3.677,4.148c0.386,0.472,0.316,1.169-0.156,1.556
								C1107.332,761.949,1107.085,762.031,1106.838,762.031z M1005.519,758.271c-0.274,0-0.548-0.101-0.763-0.305
								c-0.442-0.421-0.459-1.121-0.038-1.563c1.269-1.332,2.61-2.631,3.985-3.859c0.456-0.407,1.155-0.368,1.561,0.088
								c0.407,0.455,0.368,1.154-0.088,1.56c-1.331,1.19-2.629,2.447-3.857,3.736
								C1006.102,758.156,1005.81,758.271,1005.519,758.271z M1099.282,754.169c-0.261,0-0.522-0.092-0.732-0.278
								c-1.334-1.182-2.733-2.322-4.157-3.39c-0.488-0.367-0.587-1.06-0.221-1.548c0.366-0.487,1.059-0.587,1.547-0.221
								c1.473,1.104,2.918,2.283,4.297,3.504c0.457,0.405,0.499,1.103,0.094,1.56
								C1099.891,754.043,1099.587,754.169,1099.282,754.169z M1013.656,751c-0.334,0-0.664-0.151-0.881-0.437
								c-0.369-0.486-0.275-1.18,0.211-1.549c1.471-1.117,3.002-2.187,4.549-3.177c0.513-0.33,1.197-0.18,1.527,0.335
								c0.329,0.514,0.179,1.198-0.335,1.527c-1.497,0.959-2.979,1.994-4.403,3.076C1014.124,750.926,1013.889,751,1013.656,751z
								 M1090.561,747.63c-0.201,0-0.405-0.055-0.588-0.17c-1.51-0.951-3.076-1.85-4.653-2.673c-0.541-0.282-0.751-0.95-0.469-1.491
								c0.283-0.541,0.95-0.751,1.491-0.469c1.63,0.85,3.248,1.779,4.808,2.762c0.517,0.326,0.672,1.008,0.347,1.524
								C1091.288,747.446,1090.928,747.63,1090.561,747.63z M1022.844,745.117c-0.396,0-0.778-0.213-0.977-0.586
								c-0.287-0.539-0.083-1.208,0.457-1.495c1.627-0.866,3.31-1.675,5.001-2.405c0.561-0.243,1.211,0.016,1.453,0.576
								c0.242,0.561-0.016,1.211-0.576,1.453c-1.636,0.707-3.264,1.489-4.839,2.327
								C1023.197,745.075,1023.019,745.117,1022.844,745.117z M1080.894,742.587c-0.144,0-0.289-0.029-0.43-0.088
								c-1.641-0.694-3.332-1.329-5.024-1.887c-0.58-0.191-0.894-0.817-0.703-1.396c0.192-0.579,0.817-0.893,1.396-0.703
								c1.749,0.577,3.496,1.234,5.192,1.951c0.562,0.237,0.826,0.886,0.588,1.448
								C1081.734,742.334,1081.325,742.587,1080.894,742.587z M1032.859,740.793c-0.461,0-0.891-0.291-1.047-0.752
								c-0.195-0.578,0.114-1.205,0.693-1.401c1.742-0.589,3.533-1.116,5.324-1.563c0.59-0.148,1.192,0.212,1.341,0.804
								c0.148,0.593-0.212,1.193-0.804,1.341c-1.732,0.433-3.466,0.942-5.152,1.512
								C1033.095,740.774,1032.976,740.793,1032.859,740.793z M1070.541,739.166c-0.087,0-0.174-0.01-0.262-0.031
								c-1.734-0.422-3.505-0.778-5.264-1.059c-0.603-0.096-1.014-0.663-0.917-1.266c0.096-0.603,0.66-1.017,1.266-0.917
								c1.817,0.29,3.647,0.658,5.438,1.093c0.593,0.144,0.957,0.742,0.813,1.335
								C1071.491,738.827,1071.039,739.166,1070.541,739.166z M1043.441,738.146c-0.532,0-1-0.384-1.09-0.925
								c-0.099-0.602,0.308-1.171,0.91-1.271c1.821-0.301,3.673-0.53,5.506-0.682c0.612-0.06,1.142,0.402,1.193,1.01
								c0.05,0.608-0.402,1.143-1.01,1.193c-1.773,0.147-3.566,0.369-5.328,0.661C1043.561,738.141,1043.5,738.146,1043.441,738.146
								z M1059.769,737.448c-0.029,0-0.058-0.001-0.087-0.003c-1.727-0.135-3.477-0.203-5.203-0.203h-0.166
								c-0.61,0-1.105-0.495-1.105-1.105c0-0.611,0.495-1.105,1.105-1.105h0.166c1.783,0,3.592,0.071,5.375,0.209
								c0.609,0.048,1.064,0.58,1.016,1.188C1060.825,737.008,1060.341,737.448,1059.769,737.448z"/>
						</g>
						<g>
							
								<linearGradient id="SVGID_00000020358282663242346500000000983100314746625179_" gradientUnits="userSpaceOnUse" x1="1120.5431" y1="797.0504" x2="1123.0251" y2="797.0504">
								<stop  offset="0" style="stop-color:#FEBBBA"/>
								<stop  offset="1" style="stop-color:#FF928E"/>
							</linearGradient>
							<path style="fill:url(#SVGID_00000020358282663242346500000000983100314746625179_);" d="M1121.919,799.53
								c-0.572,0-1.056-0.44-1.101-1.019c-0.071-0.903-0.159-1.804-0.267-2.704c-0.072-0.606,0.361-1.156,0.967-1.228
								c0.605-0.067,1.156,0.36,1.228,0.967c0.111,0.929,0.202,1.861,0.275,2.793c0.048,0.609-0.407,1.14-1.016,1.188
								C1121.976,799.529,1121.947,799.53,1121.919,799.53z"/>
						</g>
					</g>
				</g>
			</g>
		</g>
		<g>
			<g>
				<circle style="fill:#FFFFFF;" cx="2006.506" cy="780.938" r="211.155"/>
				<path style="fill:#91B3FA;" d="M2006.505,997.111c-119.196,0-216.171-96.976-216.171-216.174
					c0-119.198,96.975-216.173,216.171-216.173c119.2,0,216.174,96.975,216.174,216.173
					C2222.679,900.135,2125.705,997.111,2006.505,997.111z M2006.505,574.802c-113.661,0-206.133,92.472-206.133,206.135
					c0,113.665,92.472,206.137,206.133,206.137c113.665,0,206.137-92.472,206.137-206.137
					C2212.642,667.274,2120.17,574.802,2006.505,574.802z"/>
			</g>
			<g>
				<path style="fill:#7D97F4;" d="M1830.841,849.911c-2.144,0-4.244-1.024-5.542-2.929c-2.078-3.057-1.284-7.218,1.771-9.296
					c14.635-9.949,34.674-23.575,56.066-23.632c0.046,0,0.091,0,0.137,0c12.227,0,23.049,4.269,33.517,8.397
					c7.829,3.088,15.223,6.004,22.902,7.084c10.681,1.501,19.611-2.395,29.975-6.904c4.761-2.07,9.678-4.21,14.991-5.888
					c21.055-6.649,39.441-8.033,54.651-4.117c8.074,2.083,14.85,5.806,21.405,9.407c6.999,3.846,13.609,7.478,21.385,8.902
					c29.005,5.318,69.071,1.853,88.473-18.324c2.565-2.665,6.8-2.743,9.463-0.185c2.663,2.562,2.745,6.798,0.183,9.461
					c-22.95,23.867-67.038,28.352-100.529,22.212c-9.91-1.815-17.795-6.148-25.421-10.338c-6.097-3.349-11.854-6.514-18.298-8.175
					c-12.746-3.279-28.649-1.965-47.28,3.919c-4.646,1.467-9.24,3.465-13.684,5.398c-11.198,4.873-22.81,9.909-37.177,7.884
					c-9.25-1.3-17.739-4.65-25.95-7.886c-9.77-3.854-19.138-7.446-28.711-7.464c-17.291,0.046-34.635,11.84-48.571,21.315
					C1833.445,849.537,1832.135,849.911,1830.841,849.911z"/>
				<path style="fill:#7D97F4;" d="M2088.162,879.261c-7.744,0-14.043-0.371-17.889-0.673c-14.141-1.112-26.695-6.646-38.837-11.998
					c-12.674-5.586-24.607-11.013-37.416-10.768c-12.403,0.088-23.673,4.3-35.605,8.758c-6.117,2.286-12.439,4.65-19.049,6.481
					c-26.081,7.236-51.704-2.008-71.113-10.868c-3.359-1.534-4.842-5.504-3.307-8.866c1.536-3.364,5.502-4.842,8.868-3.308
					c17.337,7.915,40.046,16.226,61.977,10.146c6.045-1.676,12.093-3.936,17.938-6.122c12.498-4.671,25.424-9.5,40.199-9.605
					c0.137-0.002,0.278-0.002,0.418-0.002c15.478,0,29.208,6.051,42.487,11.907c11.632,5.127,22.617,9.967,34.491,10.903
					c27.666,2.171,64.666-0.644,85.49-15.099c3.035-2.107,7.211-1.354,9.312,1.681c2.107,3.037,1.356,7.206-1.68,9.314
					C2142.487,876.384,2109.734,879.261,2088.162,879.261z"/>
			</g>
			<g>
				<path style="fill:#7D97F4;" d="M1896.35,735.221c-2.143,0-4.244-1.024-5.542-2.929c-2.078-3.057-1.284-7.218,1.771-9.296
					c12.883-8.76,30.528-20.756,49.485-20.807c0.039,0,0.082,0,0.124,0c10.848,0,20.386,3.763,29.61,7.401
					c6.8,2.681,13.217,5.213,19.833,6.143c9.083,1.271,16.811-2.083,25.754-5.974c4.182-1.818,8.505-3.699,13.191-5.179
					c18.556-5.86,34.795-7.077,48.244-3.609c7.166,1.844,13.138,5.127,18.915,8.301c6.055,3.328,11.773,6.471,18.435,7.692
					c25.146,4.61,59.846,1.639,76.595-15.777c2.565-2.665,6.796-2.743,9.462-0.185c2.663,2.56,2.745,6.796,0.183,9.461
					c-20.278,21.09-59.141,25.071-88.652,19.665c-8.796-1.612-15.746-5.432-22.47-9.126c-5.283-2.903-10.273-5.646-15.808-7.071
					c-10.992-2.834-24.744-1.684-40.873,3.411c-4.022,1.269-7.839,2.931-11.884,4.689c-9.894,4.308-20.141,8.762-32.955,6.955
					c-8.188-1.152-15.658-4.097-22.879-6.946c-8.433-3.325-16.399-6.466-24.705-6.466c-0.029,0-0.059,0-0.088,0
					c-14.857,0.039-29.9,10.27-41.99,18.49C1898.954,734.846,1897.644,735.221,1896.35,735.221z"/>
				<path style="fill:#7D97F4;" d="M2121.31,760.88c-6.793,0-12.322-0.325-15.694-0.591c-12.508-0.984-23.552-5.852-34.23-10.559
					c-10.9-4.803-21.199-9.343-32.09-9.343c-0.091,0-0.183,0-0.278,0.002c-10.694,0.075-20.477,3.732-30.835,7.603
					c-5.365,2.005-10.913,4.078-16.729,5.69c-23.065,6.393-45.653-1.743-62.745-9.547c-3.362-1.534-4.846-5.504-3.31-8.866
					c1.536-3.364,5.512-4.842,8.865-3.308c15.971,7.29,34.831,14.037,53.616,8.825c5.254-1.456,10.289-3.338,15.618-5.331
					c10.995-4.109,22.362-8.357,35.429-8.45c13.779,0.024,26.061,5.28,37.857,10.479c10.1,4.452,19.64,8.657,29.884,9.464
					c24.048,1.887,56.167-0.541,74.194-13.052c3.032-2.109,7.208-1.356,9.312,1.681c2.107,3.037,1.356,7.206-1.679,9.314
					C2169.113,758.344,2140.274,760.88,2121.31,760.88z"/>
			</g>
		</g>
		<g>
			<g>
				
					<ellipse transform="matrix(0.7071 -0.7071 0.7071 0.7071 -742.2075 881.7057)" style="fill:#FFFFFF;" cx="693.209" cy="1336.776" rx="218.115" ry="218.115"/>
				<path style="fill:#91B3FA;" d="M693.208,1559.911c-123.036,0-223.134-100.098-223.134-223.134s100.098-223.134,223.134-223.134
					s223.134,100.098,223.134,223.134S816.243,1559.911,693.208,1559.911z M693.208,1123.681
					c-117.501,0-213.096,95.594-213.096,213.096c0,117.502,95.596,213.096,213.096,213.096s213.096-95.594,213.096-213.096
					C906.304,1219.275,810.708,1123.681,693.208,1123.681z"/>
			</g>
			<path style="fill:#7D97F4;" d="M828.866,1296.01c-4.361-7.852-9.705-15.028-15.948-21.564l-0.029-0.083l-0.08-0.031
				c-16.437-17.161-39.282-29.76-68.307-37.536c-123.013-32.958-216.843,24.022-220.775,26.462
				c-3.492,2.168-4.757,6.537-3.114,10.303c1.646,3.767,5.912,5.718,9.866,4.632c0.147-0.038,3.619-0.958,9.166,0.528
				c10.04,2.69,29.5,14.249,47.005,61.466c20.345,54.876,69.533,118.086,124.18,132.726c27.224,7.294,68.038,5.67,107.871-43.5
				c2.024-2.5,2.406-5.924,1.025-8.785c-0.224-0.6-0.553-1.658-1.022-3.109c-7.867-24.383-19.987-44.925-31.582-63.732
				c11.084,10.87,25.01,22.224,37.115,36.571c1.95,2.31,5.022,3.373,7.985,2.763c2.966-0.61,5.361-2.792,6.241-5.693
				C839.059,1385.472,852.753,1339.019,828.866,1296.01z"/>
			<path style="fill:#FFFFFF;" d="M799.985,1370.546c-58.138-68.919-133.75-101.619-231.123-99.981l-0.059-3.346
				c98.438-1.642,174.913,31.433,233.737,101.17L799.985,1370.546z"/>
		</g>
		<g>
			<g>
				
					<linearGradient id="SVGID_00000144306843499396332490000017979537004535106717_" gradientUnits="userSpaceOnUse" x1="356.9477" y1="1877.613" x2="428.0568" y2="2080.7822" gradientTransform="matrix(1 0 0 1 1641.2726 0)">
					<stop  offset="0" style="stop-color:#FEBBBA"/>
					<stop  offset="1" style="stop-color:#FF928E"/>
				</linearGradient>
				<path style="fill:url(#SVGID_00000144306843499396332490000017979537004535106717_);" d="M2029.787,1986.595
					c-1.094,3.479,11.578,8.776,19.039-5.452c0.261-6.819,4.408-36.032,0.333-41.587c-21.701-29.587-63.776-66.675-63.776-66.675
					c-7.111,7.016-1.253,13.909-1.253,13.909l20.411,21.262c-4.269,7.715-9.477,14.227-11.917,23.559
					c-1.849,7.067-0.718,14.619,2.852,21.051c3.583,6.454,8.471,14.845,13.092,21.411
					C2017.314,1986.502,2029.787,1986.595,2029.787,1986.595z"/>
				
					<linearGradient id="SVGID_00000037681226679743071470000007874213983486356890_" gradientUnits="userSpaceOnUse" x1="411.5749" y1="2007.4176" x2="358.0118" y2="1899.3677" gradientTransform="matrix(1 0 0 1 1641.2726 0)">
					<stop  offset="0" style="stop-color:#FEBBBA"/>
					<stop  offset="1" style="stop-color:#FF928E"/>
				</linearGradient>
				<path style="fill:url(#SVGID_00000037681226679743071470000007874213983486356890_);" d="M2013.469,1921.849l18.6,15.768
					l5.84,15.698l-16.584,18.398c0,0-5.575-31.149-9.72-37.891C2007.46,1927.08,2009.609,1923.82,2013.469,1921.849z"/>
			</g>
			<g>
				
					<linearGradient id="SVGID_00000168800977478953511950000000949496012935217583_" gradientUnits="userSpaceOnUse" x1="4364.835" y1="3111.0383" x2="3911.0989" y2="3604.5762" gradientTransform="matrix(-1 0 0 1 6616.5547 0)">
					<stop  offset="0" style="stop-color:#09005D"/>
					<stop  offset="1" style="stop-color:#1A0F91"/>
				</linearGradient>
				<path style="fill:url(#SVGID_00000168800977478953511950000000949496012935217583_);" d="M2395.146,3147.804
					c0,0,4.699,26.602,7.003,52.935c0.901,10.291-7.033,19.226-17.356,19.657c-35.068,1.46-110.079,4.3-136.996,3.099
					c-4.047-0.18-6.692-4.323-5.195-8.086c1.256-3.153,3.676-5.704,6.76-7.121l123.905-56.946L2395.146,3147.804z"/>
				
					<linearGradient id="SVGID_00000036240280838250415250000004608420740127995559_" gradientUnits="userSpaceOnUse" x1="4217.5586" y1="3147.6938" x2="4257.8618" y2="3147.6938" gradientTransform="matrix(-1 0 0 1 6616.5547 0)">
					<stop  offset="0" style="stop-color:#FEBBBA"/>
					<stop  offset="1" style="stop-color:#FF928E"/>
				</linearGradient>
				<path style="fill:url(#SVGID_00000036240280838250415250000004608420740127995559_);" d="M2398.996,3132.174l-3.775,31.819
					c0,0-21.705,10.104-36.528-1.273l8.988-35.46L2398.996,3132.174z"/>
				
					<linearGradient id="SVGID_00000036248848256481270830000005532664905033535138_" gradientUnits="userSpaceOnUse" x1="4400.5615" y1="2552.8997" x2="4014.4756" y2="3076.1892" gradientTransform="matrix(-1 0 0 1 6616.5547 0)">
					<stop  offset="0" style="stop-color:#09005D"/>
					<stop  offset="1" style="stop-color:#1A0F91"/>
				</linearGradient>
				<path style="fill:url(#SVGID_00000036248848256481270830000005532664905033535138_);" d="M2396.158,2533.96
					c1.631,8.309,8.753,414.66-34.682,596.76c-0.709,2.971,0.798,6.034,3.625,7.189c6.662,2.722,19.723,6.664,35.375,7.189
					c4.847,0.163,9.193-2.987,10.561-7.641c12.416-42.25,71.911-253.934,79.673-456.149c8.672-225.956,0-7.694,0-7.694
					l-5.087-139.672L2396.158,2533.96z"/>
				
					<linearGradient id="SVGID_00000018239318930926259850000009194597038102911113_" gradientUnits="userSpaceOnUse" x1="4263.0454" y1="3017.46" x2="3809.312" y2="3510.9949" gradientTransform="matrix(-1 0 0 1 6616.5547 0)">
					<stop  offset="0" style="stop-color:#09005D"/>
					<stop  offset="1" style="stop-color:#1A0F91"/>
				</linearGradient>
				<path style="fill:url(#SVGID_00000018239318930926259850000009194597038102911113_);" d="M2537.678,3161.682
					c0,0,7.48,13.429,14.722,49.115c1.307,6.445-3.196,12.613-9.741,13.256c-11.579,1.139-29.405,2.603-43.684,2.505
					c-6.583-0.045-11.719-5.777-10.926-12.311c1.581-13.026,6.509-34.396,21.731-51.053L2537.678,3161.682z"/>
				
					<linearGradient id="SVGID_00000082363742250491783010000015577271724542555566_" gradientUnits="userSpaceOnUse" x1="4072.3069" y1="3145.6274" x2="4107.105" y2="3145.6274" gradientTransform="matrix(-1 0 0 1 6616.5547 0)">
					<stop  offset="0" style="stop-color:#FEBBBA"/>
					<stop  offset="1" style="stop-color:#FF928E"/>
				</linearGradient>
				<path style="fill:url(#SVGID_00000082363742250491783010000015577271724542555566_);" d="M2544.248,3120.755l-8.822,48.119
					c0,0-8.722,6.489-25.977,1.785l4.21-51.773L2544.248,3120.755z"/>
				
					<linearGradient id="SVGID_00000179641700770066155350000003763786654531576246_" gradientUnits="userSpaceOnUse" x1="4331.752" y1="2502.1313" x2="3945.666" y2="3025.4209" gradientTransform="matrix(-1 0 0 1 6616.5547 0)">
					<stop  offset="0" style="stop-color:#09005D"/>
					<stop  offset="1" style="stop-color:#1A0F91"/>
				</linearGradient>
				<path style="fill:url(#SVGID_00000179641700770066155350000003763786654531576246_);" d="M2568.079,2546.429
					c35.525,214.395-7.706,529.893-22.286,591.644c-0.892,3.781-3.944,6.677-7.776,7.312c-6.508,1.079-17.222,1.959-27.786-1.109
					c-3.639-1.057-6.196-4.339-6.345-8.127c-1.956-49.923,1.565-356.406-31.537-477.529c-1.677-6.138-5.426-11.491-10.612-15.179
					l-64.247-45.674l-4.925-73.828L2568.079,2546.429z"/>
				<g>
					
						<linearGradient id="SVGID_00000130624756831668991880000008322068534920240524_" gradientUnits="userSpaceOnUse" x1="6900.8076" y1="-1217.2955" x2="6730.1772" y2="-996.4794" gradientTransform="matrix(-1 0 0 1 6616.5547 0)">
						<stop  offset="0" style="stop-color:#FF928E"/>
						<stop  offset="1" style="stop-color:#FE7062"/>
					</linearGradient>
					<path style="fill:url(#SVGID_00000130624756831668991880000008322068534920240524_);" d="M2341.715,2140.194
						c106.461-1.759,223.928,27.953,223.928,27.953c31.734,185.166,5.549,398.741,5.549,398.741
						c-82.419,21.614-175.393-13.214-175.393-13.214c-13.698-77.395-77.612-295.209-77.612-295.209
						c-52.016-6.455-94.867-21.464-130.154-41.305c26.917-31.2,39.606-70.901,45.117-94.369
						C2270.79,2134.489,2308.878,2140.737,2341.715,2140.194z"/>
					
						<linearGradient id="SVGID_00000034773912865294662610000001527312645357910675_" gradientUnits="userSpaceOnUse" x1="417.7257" y1="1856.3405" x2="488.8352" y2="2059.5107" gradientTransform="matrix(1 0 0 1 1641.2726 0)">
						<stop  offset="0" style="stop-color:#FEBBBA"/>
						<stop  offset="1" style="stop-color:#FF928E"/>
					</linearGradient>
					<path style="fill:url(#SVGID_00000034773912865294662610000001527312645357910675_);" d="M2027.248,1983.383
						c10.458-12.631,23.694-6.656,23.694-6.656c15.667,66.178,97.813,119.836,182.206,146.064
						c-5.511,23.468-18.2,63.169-45.117,94.369C2047.973,2138.411,2027.248,1983.383,2027.248,1983.383z"/>
				</g>
				
					<linearGradient id="SVGID_00000137110849821286718520000009246435919848618384_" gradientUnits="userSpaceOnUse" x1="6785.7573" y1="-1306.2002" x2="6615.1265" y2="-1085.3835" gradientTransform="matrix(-1 0 0 1 6616.5547 0)">
					<stop  offset="0" style="stop-color:#FF928E"/>
					<stop  offset="1" style="stop-color:#FE7062"/>
				</linearGradient>
				<path style="fill:url(#SVGID_00000137110849821286718520000009246435919848618384_);" d="M2524.809,2271.233l40.834-103.086
					c0,0,99.44,67.565,115.794,153.231c-18.789,1.384-52.98,6.271-86.446,23.169
					C2587.637,2304.097,2524.809,2271.233,2524.809,2271.233z"/>
				
					<linearGradient id="SVGID_00000085217260961426246450000009192381907356706479_" gradientUnits="userSpaceOnUse" x1="4132.9326" y1="2109.3259" x2="4235.9531" y2="2109.3259" gradientTransform="matrix(-1 0 0 1 6616.5547 0)">
					<stop  offset="0" style="stop-color:#FEBBBA"/>
					<stop  offset="1" style="stop-color:#FF928E"/>
				</linearGradient>
				<path style="fill:url(#SVGID_00000085217260961426246450000009192381907356706479_);" d="M2449.55,2053.764l33.875,97.962
					c0.561,1.622-0.106,3.42-1.609,4.251c-9.234,5.105-42.501,19.862-82.592-5.556c-4.176-2.648-7.019-6.966-7.653-11.871
					l-10.969-84.786H2449.55z"/>
				<g>
					
						<linearGradient id="SVGID_00000155115899513657957540000002352639989422710931_" gradientUnits="userSpaceOnUse" x1="-2541.8916" y1="1547.3365" x2="-2580.3892" y2="1420.3622" gradientTransform="matrix(-0.746 -0.6659 -0.6659 0.746 1490.2194 -803.1727)">
						<stop  offset="0" style="stop-color:#FEBBBA"/>
						<stop  offset="1" style="stop-color:#FF928E"/>
					</linearGradient>
					<path style="fill:url(#SVGID_00000155115899513657957540000002352639989422710931_);" d="M2375.845,1963.049
						c0,0-37.198,70.02-32.43,98.305c4.768,28.284,50.868,26.253,91.125,3.281l28.13-75.606L2375.845,1963.049z"/>
					
						<linearGradient id="SVGID_00000061442597521288560830000000954667648535563686_" gradientUnits="userSpaceOnUse" x1="-2576.6243" y1="1326.1019" x2="-2544.4211" y2="1509.7789" gradientTransform="matrix(-0.746 -0.6659 -0.6659 0.746 1490.2194 -803.1727)">
						<stop  offset="0" style="stop-color:#09005D"/>
						<stop  offset="1" style="stop-color:#1A0F91"/>
					</linearGradient>
					<path style="fill:url(#SVGID_00000061442597521288560830000000954667648535563686_);" d="M2432.761,2027.506
						c-1.636-0.725-2.239-2.727-1.26-4.224c2.981-4.553,8.567-13.841,10.349-21.972c0,0,6.687-4.284-17.02-9.957
						c-23.706-5.675-59.059-14.483-66.49-34.661c-7.245-19.674,11.79-69.15,42.16-29.728c1.155,1.5,3.419,1.532,4.572,0.032
						c4.979-6.48,18.068-19.929,36.24-11.776c17.005,7.63,18.92,20.091,18.687,26.373c-0.068,1.847,1.583,3.284,3.4,2.937
						c8.598-1.639,29.23-3.048,38.861,18.117c7.932,17.434,2.776,27.303-1.918,32.13c-1.522,1.564-0.855,4.139,1.231,4.777
						c5.65,1.73,12.947,6.521,12.217,19.76c-1.01,18.302-21.472,16.689-27.298,15.855c-0.955-0.137-1.917,0.191-2.563,0.906
						c-4.995,5.528-27.502,29.001-51.862,31.83c-2.109,0.245-3.744-1.838-3.053-3.846l10.542-30.644
						c0.49-1.423-0.192-2.984-1.567-3.594L2432.761,2027.506z"/>
					
						<linearGradient id="SVGID_00000135677136726863826080000004856700355070256796_" gradientUnits="userSpaceOnUse" x1="-2581.2456" y1="1546.7449" x2="-2615.8823" y2="1432.5042" gradientTransform="matrix(-0.746 -0.6659 -0.6659 0.746 1490.2194 -803.1727)">
						<stop  offset="0" style="stop-color:#FEBBBA"/>
						<stop  offset="1" style="stop-color:#FF928E"/>
					</linearGradient>
					<path style="fill:url(#SVGID_00000135677136726863826080000004856700355070256796_);" d="M2428.524,2031.855
						c0,0,26.484-18.172,28.42-2.869c1.935,15.302-23.85,22.165-36.621,16.46L2428.524,2031.855z"/>
				</g>
				
					<linearGradient id="SVGID_00000121242355670349552750000013382438450316861846_" gradientUnits="userSpaceOnUse" x1="-2052.0098" y1="2866.8066" x2="-2135.7634" y2="2265.301" gradientTransform="matrix(-1 0 0 1 517.8749 0)">
					<stop  offset="0" style="stop-color:#FEBBBA"/>
					<stop  offset="1" style="stop-color:#FF928E"/>
				</linearGradient>
				<path style="fill:url(#SVGID_00000121242355670349552750000013382438450316861846_);" d="M2594.991,2344.547
					c0,0,34.757,156.798,3.273,244.95c38.597,17.896,31.467,14.522,31.467,14.522s76.357-223.099,51.706-282.642
					C2632.835,2316.222,2608.727,2329.281,2594.991,2344.547z"/>
				
					<linearGradient id="SVGID_00000057110496358500890530000000854744518931120004_" gradientUnits="userSpaceOnUse" x1="-2061.9832" y1="2808.9443" x2="-2128.8186" y2="2328.9419" gradientTransform="matrix(-1 0 0 1 517.8749 0)">
					<stop  offset="0" style="stop-color:#FEBBBA"/>
					<stop  offset="1" style="stop-color:#FF928E"/>
				</linearGradient>
				<path style="fill:url(#SVGID_00000057110496358500890530000000854744518931120004_);" d="M2598.264,2589.497
					c0,0-19.889,25.742-18.298,35.995c1.591,10.253,1.971,14.43,1.971,14.43s9.994-6.835,9.364-15.57
					c-1.389,27.722-10.668,59.24-2.231,57.722c8.436-1.519,52.107-41.773,42.234-84.684
					C2608.899,2581.822,2602.618,2583.514,2598.264,2589.497z"/>
			</g>
		</g>
	</g>
</g>
</svg>
