<?xml version="1.0" encoding="utf-8"?>
<!-- Generator: Adobe Illustrator 27.5.0, SVG Export Plug-In . SVG Version: 6.00 Build 0)  -->
<svg version="1.1" xmlns="http://www.w3.org/2000/svg" xmlns:xlink="http://www.w3.org/1999/xlink" x="0px" y="0px"
	 viewBox="0 0 750 500" style="enable-background:new 0 0 750 500;" xml:space="preserve">
<g id="BACKGROUND">
	<rect x="0.5" style="fill:#192866;" width="750" height="500"/>
	<path style="fill:#1B2F6D;" d="M750.5,0v68.58c-5.44,1.09-10.85,2.12-16.23,3.06c-49.15,8.57-99.08,15.98-147.75,26.97
		c-43.91,9.91-83.83,22.45-129.13,25.64c-47.86,3.37-80.18-4.8-124.05-22.69C223.56,56.8,106.66,86.4,0.5,132.81V0H750.5z"/>
	<path style="opacity:0.06;fill:#FFFFFF;" d="M689.58,117.49c-2.56,22.39,48.05,19.81,59.89,20.46c0.34,0.02,0.68,0.04,1.03,0.05
		v31.62c-2.97,0.12-5.71,0.19-7.98,0.35c-20.47,1.461-41.43,1.8-61.96,0.811c-11.36-0.55-27.37,0.03-37.1-7.061
		c-23.95-17.43,30.23-33.14,11.67-57.47C645.59,93.76,625.52,96,612.04,96c-17.77,0-37.69,2.43-55.03-1.95
		c-12.01-3.04-20.38-7.31-22.51-19.7c-2.43-14.13,4.76-23.75,17.84-29.09c19.62-8,129.63-8.4,198.16-7.78v64.94
		c-10.33-0.54-20.69-1.09-31-0.47C710.35,102.5,691,104.98,689.58,117.49z"/>
	<path style="opacity:0.06;fill:#FFFFFF;" d="M315.5,111.02c-3.11,8.67-16.21,7.13-25.88,7.98c-51.39,4.54-105.38,7.28-156.7,0.75
		c-20.18-2.56-41.61-9.23-33.45-32.53c2.33-6.63,7.11-10.08,1.49-16.81C95.01,63.28,81.6,66,73.38,66C49.1,66,24.79,67.08,0.5,67.6
		V29.55c17.59-0.03,35.03,1.39,52.7,1.46c17.78,0.08,35.49,0.86,53.21,0.99c9.82,0.07,21.66-0.85,30.05,5.5
		c15.7,11.9-0.68,16.59,2.02,29.5c2.97,14.15,40.58,11.39,50.77,12c41.38,2.46,82.8-1.24,124.1,1.15
		C315.7,86.68,317.82,104.53,315.5,111.02z"/>
</g>
<g id="OBJECTS">
	<g>
		<g>
			<path style="fill:#5264D4;" d="M575.422,231.655c12.525,1.193,30.976-12.799,29.766-26.126
				c-5.697-1.544-10.738,0.33-14.138,5.244c6.462-6.515,19.719-23.882,16.404-33.91c-4.14-12.526-15.049,3.171-19.872,8.306
				c4.526-8.439,12.419-25.872,7.149-35.373c-5.831-10.512-10.779-0.396-14.885,4.935c2.194-11.048,6.279-46.105-12.856-47.139
				c-12.34-0.667-13.754,34.725-14.465,43.558c-3.106-4.7-12.338-9.107-16.861-4.19c-5.351,5.816,3.636,22.968,6.613,28.085
				c-5.253-5.764-13.178-6.849-16.538,1.154c-3.99,9.503,7.031,22.431,13.917,26.799c-5.215-1.13-10.568-4.699-14.751,0.117
				c-4.947,5.695-0.697,14.619,3.877,18.719C542.171,233.838,562.427,234.307,575.422,231.655z"/>
			<path style="fill:#3342A7;" d="M579.108,190.13c2.825-6.911,5.888-14.981,5.976-22.542c0.01-0.847-1.166-1.209-1.502-0.351
				c-1.363,3.479-2.108,7.21-3.286,10.759c-1.189,3.583-2.424,7.139-3.896,10.618c-2.35,5.552-5.137,10.822-8.268,15.93
				c0.287-5.575,0.507-11.154,0.644-16.735c0.236-9.611,0.19-19.211-0.122-28.82c-0.31-9.55-1.504-19-2.109-28.525
				c-0.049-0.765-1.225-0.555-1.177,0.207c0.622,9.796,0.218,19.701,0.246,29.514c0.019,6.823-0.046,13.651-0.194,20.476
				c-1.096-1.101-2.336-2.109-3.356-3.227c-1.911-2.094-3.713-4.294-5.34-6.617c-1.63-2.327-3.118-4.769-4.425-7.292
				c-1.199-2.314-2.158-4.791-3.634-6.943c-0.363-0.53-1.02-0.032-1,0.461c0.216,5.382,3.555,11.024,6.423,15.428
				c1.623,2.492,3.419,4.873,5.433,7.063c1.622,1.765,3.549,4.173,5.798,5.159c-0.034,1.257-0.062,2.514-0.102,3.77
				c-0.297,9.429-0.808,18.85-1.527,28.256c-0.16,2.097-0.335,4.193-0.516,6.289c-3.287-2.187-6.456-4.479-9.363-7.18
				c-3.238-3.008-6.139-6.348-9.162-9.566c-0.456-0.485-1.283-0.011-1.003,0.631c3.583,8.207,11.043,15.225,18.792,19.555
				c0.136,0.076,0.272,0.126,0.407,0.164c-0.122,1.319-0.239,2.638-0.369,3.956c-0.228,2.306-0.469,4.611-0.723,6.914
				c-0.263,2.387-0.877,4.969-0.294,7.332c0.352,1.426,2.081,1.499,2.721,0.26c1.113-2.159,1.095-4.85,1.346-7.232
				c0.243-2.304,0.474-4.61,0.691-6.917c0.435-4.614,0.819-9.233,1.152-13.855c0.149-2.075,0.283-4.152,0.411-6.229
				c0.036-0.042,0.074-0.077,0.108-0.125C572.386,204.35,576.159,197.343,579.108,190.13z"/>
		</g>
		<g>
			<path style="fill:#132356;" d="M630.852,217.036c-11.56-0.381-24.077-3.521-30.064-14.951c-5.205-9.937,1.537-16.66,6.594-23.942
				c6.436-9.268-0.566-15.692-0.311-25.626c0.276-10.736,10.552-12.021,11.232-22.58c0.305-4.729-1.829-10.021-0.066-14.59
				c1.979-5.129,7.328-5.813,9.83-10.314c2.976-5.353-1.732-14.083,1.536-18.917c4.356-6.444,10.581-3.694,14.212,1
				c5.364,6.934,3.003,14.769,2.497,22.973c-0.54,8.758,1.568,10.211,7.121,16.77c10.643,12.572-1.4,20.368,0.865,33.545
				c1.167,6.793,8.523,10.687,7.987,18.254c-0.256,3.619-3.536,6.066-4.038,9.343c-0.338,2.204,1.57,3.779,1.656,5.943
				C660.495,208.947,648.786,214.844,630.852,217.036z"/>
			<path style="fill:#3342A7;" d="M636.266,111.034c-0.064-1.365-1.898-1.356-2.083-0.045c-1.294,9.148-1.636,18.474-2.243,27.689
				c-0.598,9.06-1.011,18.134-1.497,27.201c-0.981,18.304-1.877,36.622-2.628,54.936c-0.418,10.197-1.148,20.68,0.042,30.839
				c0.27,2.308,3.83,1.715,3.94-0.446c0.464-9.065,0.127-18.184,0.451-27.263c0.324-9.082,0.787-18.159,1.206-27.236
				c0.839-18.136,1.695-36.272,2.347-54.415C636.172,131.921,636.753,121.404,636.266,111.034z"/>
		</g>
		<g>
			<path style="fill:#5F74DD;" d="M697.199,238.699c9.271,2.743,17.341-0.572,23.383-8.886c8.289-11.405,2.965-21.915-4.08-31.882
				c-8.892-12.58-3.706-25.134-0.463-38.695c2.816-11.776-2.017-28.441-15.64-30.454c-14.932-2.207-23.469,11.466-24.83,24.444
				c-0.738,7.031,1.038,13.527,1.256,20.504c0.222,7.105-2.932,11.537-5.566,17.834C662.315,212.949,677.49,240.02,697.199,238.699z
				"/>
			<path style="fill:#3342A7;" d="M709.338,201.743c-0.094-0.276-0.426-0.347-0.606-0.106c-0.92,1.234-1.253,2.85-1.767,4.289
				c-0.554,1.55-1.23,3.03-2.109,4.424c-1.594,2.527-3.619,3.374-6.084,3.923c-0.42-13.469-1.341-26.917-1.73-40.389
				c-0.231-8.011,0.115-16.044-0.212-24.042c-0.02-0.497-0.789-0.722-0.925-0.166c-1.629,6.68-1.921,13.728-2.031,20.584
				c-0.021,1.312-0.026,2.623-0.025,3.935c-1.041-0.188-2.038-0.439-3.008-1.052c-1.339-0.847-2.472-2.038-3.285-3.392
				c-1.736-2.891-2.277-6.691-2.755-9.977c-0.094-0.646-1.058-0.506-1.106,0.101c-0.334,4.264-0.115,8.525,2.355,12.211
				c1.602,2.39,4.719,4.875,7.815,4.835c0.055,4.762,0.226,9.521,0.428,14.282c0.599,14.071,1.218,28.128,1.207,42.215
				c-0.006,7.998-0.17,15.994-0.475,23.986c-0.088,2.313,3.508,2.472,3.594,0.155c0.499-13.368,0.583-26.75,0.241-40.123
				c3.083-0.448,5.871-1.913,7.74-4.553c1.054-1.489,1.72-3.188,2.204-4.937C709.328,206.055,709.988,203.66,709.338,201.743z"/>
		</g>
	</g>
	<g>
		<rect x="263.587" y="115.306" style="fill:#2A3D9E;" width="15.607" height="127.694"/>
		<rect x="470.026" y="115.306" style="fill:#2A3D9E;" width="15.607" height="127.694"/>
		<path style="fill:#3342A7;" d="M239.467,46.301c0,0,124.147-9.678,269.576,0c0,0,1.419,141.133,0,154.844H239.467
			C239.467,201.145,233.791,130.981,239.467,46.301z"/>
		<path style="fill:#5264D4;" d="M262.536,59.275c0,0,102.749-8.01,223.112,0c0,0,1.174,116.807,0,128.154H262.536
			C262.536,187.429,257.839,129.359,262.536,59.275z"/>
	</g>
	<g>
		<g>
			<path style="fill:#132356;" d="M59.522,117.444c-9.446,8.008-18.005,38.207-19.508,43.273
				c-3.649,12.301-7.299,24.604-10.617,36.999c-1.358,5.074-2.671,10.34-1.848,15.528c2.132,13.442,19.485,14.867,30.308,14.89
				c6.133,0.013,12.393-0.456,18.065-2.79c6.907-2.843,12.267-8.568,13.322-16.115c0.768-5.495-0.338-11.06-1.438-16.498
				c-2.69-13.29-5.38-26.581-8.07-39.871c-2.366-11.687-3.097-24.967-10.909-34.539C65.773,114.581,62.601,114.835,59.522,117.444z"
				/>
			<path style="fill:#3342A7;" d="M79.166,182.538c-1.79,5.508-3.854,10.894-6.99,15.794c-2.599,4.061-5.859,7.682-9.555,10.775
				c0.005-0.223,0.009-0.447,0.014-0.67c0.382-16.494,0.817-32.984,1.302-49.476c0.135-4.57,0.334-9.141,0.412-13.713
				c0.079-4.645,0.493-9.482-0.003-14.105c-0.1-0.932-1.509-1.162-1.711-0.157c-0.778,3.874-0.798,7.957-1.079,11.893
				c-0.287,4.018-0.469,8.039-0.657,12.062c-0.357,7.643-0.664,15.287-0.935,22.934c-0.542-0.516-1.085-1.022-1.54-1.548
				c-1.604-1.854-3.059-3.873-4.375-5.941c-2.556-4.018-4.294-8.461-5.982-12.894c-0.338-0.888-1.813-0.728-1.72,0.309
				c0.452,5.033,2.295,9.689,4.75,14.081c1.224,2.19,2.642,4.224,4.244,6.152c1.21,1.456,2.665,3.557,4.463,4.471
				c-0.521,15.486-0.922,30.974-1.179,46.467c-0.076,4.576-0.142,9.151-0.199,13.727c-0.058,4.627-0.579,9.547,0.028,14.136
				c0.221,1.673,2.9,2.228,3.19,0.292c0.593-3.945,0.29-8.103,0.339-12.087c0.05-4.021,0.107-8.043,0.171-12.064
				c0.104-6.508,0.232-13.014,0.373-19.521c9.636-7.215,17.465-18.557,18.522-30.746C81.151,181.567,79.474,181.593,79.166,182.538z
				"/>
		</g>
		<g>
			<path style="fill:#5264D4;" d="M169.383,214.859c-11.681-8.227-15.435-19.767-13.154-32.508
				c1.275-7.122,6.029-12.074,8.419-18.779c2.618-7.344,0.234-13.156-1.245-20.367c-1.262-6.153-2.339-14.058-0.791-20.224
				c1.436-5.721,7.015-9.556,8.929-14.941c5.297-14.902-11.488-36.82,8.594-48.688c13.307-7.864,22.921,5.723,23.678,15.363
				c0.453,5.767-0.475,11.371-1.11,17.068c-0.916,8.213,2.411,10.516,6.1,17.649c2.204,4.261,4.244,11.113,3.567,15.814
				c-0.835,5.801-6.057,9.343-6.825,15.213c-1.546,11.817,9.984,21.869,5.969,33.923c-2.108,6.327-5.7,9.043-4.338,15.966
				c1.286,6.535,3.971,9.447,0.456,16.152C202.491,216.301,182.18,223.846,169.383,214.859z"/>
			<path style="fill:#3342A7;" d="M189.804,136.172c2.333-11.031,2.718-21.869,1.845-33.042c-0.484-6.194-1.162-12.378-1.501-18.581
				c-0.353-6.473-0.146-12.944-0.038-19.419c0.011-0.665-1.186-0.819-1.373-0.159c-3.081,10.87-1.268,22.493-0.319,33.51
				c0.992,11.52,1.375,22.865-0.915,34.299c-2.211,11.035-4.738,21.94-6.136,33.087c-1.435,11.439-2.03,22.968-2.012,34.47
				c0.021,13.103,0.598,26.211,1.142,39.304c0.136,3.283,6.237,3.254,5.968,0c-1.895-22.967-3.629-46.045-2.126-69.07
				C185.1,158.93,187.382,147.625,189.804,136.172z"/>
			<g>
				<path style="fill:#5F74DD;" d="M116.901,235.283c-15.492-0.29-30.977-6.54-36.337-18.264
					c-5.027-10.994-4.25-26.545,6.316-32.758c-1.484-2.3-3.715-7.019-3.394-9.721c0.732-6.163,7.725-6.16,8.866-8.805
					c2.828-6.56-3.58-22.439,11.54-19.454c1.392-5.498,2.937-18.17,8.839-20.828c10.826-4.876,10.771,9.414,11.06,15.96
					c0.562,12.725,2.898,5.505,10.357,12.874c4.634,4.577,6.614,15.952,1.961,20.766c7.933,6.007,18.864,14.56,10.135,25.388
					c9.676,0.562,9.875,12.07,6.403,18.667C146.746,230.316,131.82,235.563,116.901,235.283z"/>
				<path style="fill:#3342A7;" d="M132.71,182.114c-0.002-0.003-0.244-0.258-0.485-0.454c-0.001-0.023-0.002-0.047-0.003-0.071
					c-0.008-0.215-0.256-0.311-0.412-0.171c-1.469,1.32-2.574,3.162-3.85,4.689c-1.492,1.787-2.99,3.578-4.563,5.294
					c-1.58,1.725-3.188,3.441-4.845,5.091c-0.339,0.337-0.696,0.656-1.051,0.972c0.009-2.039,0.015-4.079,0.002-6.119
					c-0.053-8.65-0.563-17.285-0.623-25.93c-0.029-4.112-0.009-8.223-0.034-12.334c-0.025-4.138,0.246-8.459-0.418-12.552
					c-0.13-0.804-1.432-0.77-1.59,0c-0.796,3.889-0.66,8.036-0.77,11.991c-0.119,4.297-0.147,8.597-0.199,12.895
					c-0.104,8.647-0.577,17.277-0.617,25.93c-0.04,8.735,0.237,17.463-0.208,26.191c-0.064,1.256-0.123,2.511-0.178,3.765
					c-4.01-3.528-7.792-7.095-11.184-11.361c-4.026-5.062-7.729-10.876-10.281-16.828c-0.406-0.946-1.903-0.266-1.638,0.691
					c3.63,13.094,11.182,25.741,22.883,33.256c-0.177,5.548-0.246,11.09-0.153,16.665c0.066,3.963,6.192,3.977,6.166,0
					c-0.058-8.756-0.399-17.447-0.886-26.188c-0.266-4.769-0.303-9.54-0.293-14.311c1.991-0.575,3.239-2.233,4.716-3.801
					c1.973-2.095,3.761-4.309,5.438-6.647c1.64-2.286,3.25-4.699,4.434-7.259c0.325-0.703,0.635-1.48,0.699-2.258
					C132.768,183.239,132.872,182.354,132.71,182.114z"/>
			</g>
		</g>
	</g>
	<g>
		<defs>
			<rect id="SVGID_1_" x="0.5" width="750" height="500"/>
		</defs>
		<clipPath id="SVGID_00000141447895013824214620000006970383585474087090_">
			<use xlink:href="#SVGID_1_"  style="overflow:visible;"/>
		</clipPath>
		<path style="clip-path:url(#SVGID_00000141447895013824214620000006970383585474087090_);fill:#151B4D;" d="M-13.5,280
			c-0.59-5.198-5.407-18.312-0.71-22.108c4.74-3.83,7.066,2.268,8.239,6.118c0.799-2.501,0.406-6.167,0.572-9.157
			c2.942-0.667,5.31,1.286,5.947,4.329c0.011-2.943,1.821-6.122,4.669-5.415c0.681-5.338,3.236-23.732,11.593-22.806
			c4.879,0.54,2.538,14.981,0.627,18.185c4.03-8.368,5.973,4.634,5.698,6.307c1.37-8.086,7.525-4.378,8.18,1.871
			c2.145-4.086,7.985-6.097,10.581-0.832c-0.557-3.69,1.26-7.092,5.202-7.293c-0.798-2.685-0.632-5.539-0.545-8.454
			c4.791-2.522,6.478,3.228,7.814,6.808c3.828-6.945,8.294,0.856,9.469,5.477c3.394-4.775,8.043-4.358,9.193,1.994
			c-0.022-4.702,0.274-11.045,5.436-13.081c3.977-1.568,7.201-0.367,7.17,4.063c6.51-11.411,10.689-8.962,11.652,3.151
			c6.849-9.517,11.592-3.393,14.598,4.005c0.627-7.391,7.655-8.055,13.759-6.567c-1.406-4.538-3.556-14.138,4.723-9.938
			c0.898-3.68,1.279-10.257,5.77-10.724c4.381-0.456,6.05,4.011,6.878,7.455c0.776-4.206,0.809-14.397,6.206-15.401
			c6.073-1.131,4.633,7.844,4.744,11.356c4.372-12.6,8.954,3.304,8.482,9.301c2.323-8.778,12.933-8.659,12.734,1.217
			c-0.928-10.286,11.932-8.994,15.318-1.192c0.177-2.318-2.329-9.64,1.288-12.441c5.418-4.197,8.653,5.486,10.592,8.816
			c2.198-4.698,0.492-20.194,8.761-20.421c8.395-0.23,4.376,15.734,2.795,20.419c4.566-13.606,17.795-5.829,14.501,6.783
			c5.568-7.079,13.43-10.218,18.126,0.686c-0.135-3.651-1.938-11.653,1.957-13.491c5.289-2.496,8.875,6.162,10.842,9.653
			c6.74-12.006,15.482-16.203,15.092,1.169c5.785-9.396,16.48-14.847,15.998-0.71c4.439-7.159,10.917-7.066,12.714,0.204
			c-1.323-5.287,4.939-10.068,7.867-2.042c1.287-11.805,10.806-13.825,10.918-0.133c6.364-9.651,16.621-9.388,11.967,3.49
			c3.313-3.229,9.714-4.276,10.613,1.833c-0.09-2.012-2.057-8.455-0.646-9.89c2.867-2.914,7.505,1.282,8.661,3.885
			c-0.796-3.327,0.38-5.801,3.883-5.875c4.176-0.088,5.116,4.706,6.122,7.888c-0.04-6.028,6.924-11.686,7.783-3.313
			c2.716-7.615,7.614-11.187,8.819-0.663c3.594-5.613,20.737-9.442,14.284,0.144c2.62-11.376,24.303-7.054,14.452,3.171
			c3.166-5.217,12.257-5.835,10.744,2.117c4.847-5.085,8.175-3.369,11.886,1.549c3.599-6.18,11.965-4.764,16.425-0.221
			c-5.173-4.883-3.686-14.937,4.12-8.664c0.345-5.812,6.273-10.246,8.669-2.484c-0.082-4.425,0.783-14.911,7.803-12.495
			c4.815,1.656,3.396,10.365,2.57,14.405c0.803-2.794,5.66-11.54,10.158-9.358c4.439,2.154-0.441,10.255-1.156,13.161
			c2.828-8.385,9.63-3.939,8.813,3.174c8.404-6.067,11.549,0.32,13.912,8.988c-1.135-4.809,2.92-10.751,8.043-4.884
			c-0.854-3.958-3.958-13.129-2.07-16.609c4.415-8.141,7.68,1.015,10.06,4.863c0.689-3.429,2.545-7.822,7.005-6.37
			c5.052,1.645,3.482,12.84,2.249,16.869c0.978-5.643,8.312-7.45,10.611-1.521c1.505-7.39,10.293-16.931,13.966-5.631
			c0.635-6.225-0.785-17.087,8.367-18.233c6.711-0.84,7.258,5.934,7.205,11.371c1.267-1.051,3.148-1.137,4.349-1.941
			c0.808,5.199,0.268,11.618-3.042,15.94c1.626-9.461,13.763-4.201,13.425,4.168c4.356-8.571,13.458-10.294,17.879-0.195
			c-0.163-7.052,7.456-7.591,12.54-5.215c-0.417-3.409-1.947-8.302,1.32-10.735c4.344-3.235,7.55,0.235,8.095,4.645
			c5.403-9.117,12.227-12.688,12.085,0.783c0.847-0.369,2.301-0.295,3.295-0.814c2.181,3.1,1.128,7.749,1.423,11.524
			c3.735-6.367,11.273-6.341,12.03,1.846c3.091-5.694,11.638-7.231,13.138,0.598c8.314-9.381,10.974-1.162,14.55,5.564
			c0.578-2.246,2.324-3.873,3.025-5.924c0.647-1.895,0.471-4.144,1.123-6.162c0.865-2.676-1.526-4.519,2.236-5.269
			c2.29-0.457,4.284,1.732,4.993,3.694c0.831-3.413,0.484-9.996,4.034-11.629c4.591-2.112,7.053,1.626,6.884,5.991
			c0.923-2.336,4.226-7.945,7.942-5.908c4.428,2.427-1.167,14.306-2.552,17.121c2.864-7.849,8.811-0.29,7.732,5.199
			c4.63-7.449,9.058-3.788,12.061,2.617c1.927-2.523,5.1-3.2,7.88-1.796c0.174-4.029-0.725-12.346,4.813-13.355
			c2.772-0.505,5.035,1.145,5.76,3.455c1.191-3.433,3.999-13.722,9.844-11.54c3.509,1.31,2.358,6.933,2.478,10.156
			c7.191-5.02,11.654-9.497,13.784,2.439c2.47,13.842-1.192,29.933-1.275,43.845c-0.043,7.235,0.049,14.473,0.05,21.709
			c-3.119-0.426-7.915-0.329-11.068-0.329H-28.184c-0.402-8.237,0.076-16.397,1.435-24.481C-21.663,280.359-19.586,273.283-13.5,280
			z"/>
	</g>
	<g>
		<path style="fill:#3847AC;" d="M749.5,282.618V500h-750V280.584c64.12-9.235,180.23-21.594,342.45-21.584
			C455.78,259.009,592.3,265.102,749.5,282.618z"/>
		<path style="fill:#2D41A5;" d="M373.74,402.087c123.83-27.811,250.74-37.153,375.76-57.098V500H68.47
			c17.89-6.922,35.89-13.592,53.51-21.044C203.53,444.454,287.12,421.55,373.74,402.087z"/>
		<path style="fill:#3F52B2;" d="M-0.5,280.584c64.12-9.235,180.23-21.594,342.45-21.584c-31.48,5.437-62.81,11.616-93.86,17.371
			C162.51,292.21,78.7,312.637-0.5,345.162V280.584z"/>
	</g>
	<g>
		<path style="fill:#243D96;" d="M219.5,317.5c5.721-0.218,9.686,7.93,15.255,9.548c4.346,1.262,11.098,0.584,15.018,2.982
			c2.892,1.77,4.68,7.484,2.863,10.607c-1.939,3.332-8.632,3.957-11.764,5.851c-5.159,3.121-7.809,7.91-11.851,12.163
			c-5.261,5.536-11.9,10.094-18.914,12.834c-14.771,5.772-31.315,6.856-47.124,6.038c-18.906-0.978-48.731-7.958-49.494-31.513
			c-0.7-21.616,21.657-28.481,39.13-30.547C177.714,312.497,200.506,311.842,219.5,317.5z"/>
		<g>
			<g>
				<g>
					<path style="fill:#5B48B4;" d="M223.968,330.153c-4.034-13.222-6.526-27.181-11.22-40.216
						c-1.943-5.395-6.559-15.097-14.184-11.85c-7.16,3.048-3.531,19.95-2.545,25.403c1.416,7.829,2.451,21.863,9.541,27.116
						C211.031,334.659,218.647,332.37,223.968,330.153z"/>
					<path style="fill:#C76461;" d="M179.553,239.116c0.613,1.022,1.042,2.214,1.235,3.557c0.418,2.913,0.837,5.854,0.613,8.788
						c-0.806,10.605-15.055,15.696-18.298,3.644c-1.379-5.127-1.954-15.852,3.545-18.837
						C171.549,233.608,177.063,234.96,179.553,239.116z"/>
					<path style="fill:#CA6297;" d="M165.5,262.368c13.567-1.714,24.792,14.48,30.11,25.301c2.716,5.526,4.801,11.246,6.778,17.073
						c1.198,3.531,2.221,4.331-1.491,5.494c-11.527,3.612-26.645,3.541-38.583,2.839c0.071-5.907-1.83-11.922-1.97-17.933
						c-0.165-7.097-0.78-14.403-0.317-21.504c0.254-3.885,0.784-10.372,4.846-12.193C165.522,261.429,164.897,261.726,165.5,262.368
						z"/>
					<path style="fill:#62A2C5;" d="M223.647,313.126c-22.381-9.309-36.949-35.989-61.909-39.958
						c-10.319-1.641-17.888,2.66-24.476,10.308c-9.814,11.394-16.262,22.731-18.334,37.67c-1.481,10.682-2.425,23.819,7.187,31.321
						c11.025,8.605,30.041,10.491,43.536,11.048c14.229,0.587,28.042-0.335,41.763-4.127c8.365-2.312,12.977-4.788,17.573-12.257
						C234.969,337.412,235.991,318.137,223.647,313.126z"/>
				</g>
				<path style="fill:#EEA886;" d="M184,246c-3.485,1.757-8.955,1.526-12.924,1.576c-0.248,6.448-0.042,16.046-2.601,21.991
					c-2.002,4.651-2.372,3.148-8.17,2.907c-4.284-0.178-9.85,0.813-11.803-2.968c-2.417-4.681,0.565-16.542,1.472-21.495
					c2.055-11.217,9.511-24.061,22.663-17.4C178.096,233.376,182.558,240.281,184,246z"/>
			</g>
			<g>
				<rect x="244.406" y="302.346" style="fill:#62A2C5;" width="1.682" height="20.523"/>
				<polygon style="fill:#DC5D4C;" points="252.481,315.131 252.342,321.197 252.283,323.736 251.977,337 238.519,337 
					238.376,330.804 238.297,327.362 238.014,315.131 				"/>
				<rect x="236.5" y="313.112" style="fill:#FFFFFF;" width="18" height="3.196"/>
				<path style="fill:#FFFFFF;" d="M252.342,321.197l-0.059,2.539c-0.291,0.232-0.582,0.437-0.853,0.612
					c-2.121,1.361-4.626,1.953-6.976,2.789c-2.163,0.769-4.145,1.894-5.846,3.449c-0.079,0.072-0.156,0.145-0.232,0.219
					l-0.079-3.442c1.061-0.759,2.204-1.398,3.41-1.911c2.409-1.023,5.03-1.339,7.459-2.295c0.991-0.389,1.985-0.934,2.801-1.622
					C252.094,321.427,252.219,321.315,252.342,321.197z"/>
				<rect x="239.023" y="310.084" style="fill:#FFFFFF;" width="12.953" height="5.047"/>
			</g>
		</g>
	</g>
	<g>
		<path style="fill:#243D96;" d="M360.5,366c15.712-1.953,18.525,28.31,16.399,38.048c-1.56,7.144-5.241,16.263-11.4,20.599
			c-8.793,6.189-23.937,4.343-33.962,4.353c-12.761,0.013-25.517-0.5-38.314-0.5c-14.382,0-27.224-1.929-41.224-4.487
			c-9.776-1.786-17.527-4.058-20.108-14.504c-2.647-10.713-1.699-25.808,8.384-32.56c9.014-6.035,21.461-7.351,31.987-8.098
			c16.219-1.152,32.194-0.574,48.399,0.051c8.845,0.341,17.306,0.538,25.947-0.317C350.95,368.156,356.23,366.631,360.5,366z"/>
		<g>
			<path style="fill:#5B48B4;" d="M290.623,361.834c-16.704,0.061-32.73,2.684-49.271,3.227c-1.803,9.408-8.994,36.417-2.545,44.839
				c9.421,12.304,120.179,16.236,129.542,5.926c7.586-8.353,2.1-41.7,1.543-52.329C349.239,362.621,309.824,356.77,290.623,361.834z
				"/>
			<g>
				<path style="fill:#CA6297;" d="M299.367,375.286c-10.961-4.426-33.354-8.527-37.327,8.474
					c-4.5,19.259,25.318,20.461,35.702,21.608c16.217,1.792,34.594,0.095,48.969-9.368c3.812-2.51,9.661-8.348,8.68-14.07
					c-1.122-6.544-10.528-10.058-15.449-11.119c-8.469-1.826-17.943-0.471-26.439,0.362
					C309.173,371.599,301.584,371.709,299.367,375.286z"/>
				<path style="fill:#D85A4C;" d="M302.229,300.017c0,6.572-1.062,13.183-0.704,19.727c2.712,0.266,5.438,0.578,8.211,0.573
					c0.926-0.002,3.034,0.42,3.792-0.129c0.858-0.621,0.404-2.895,0.404-3.888c0-3.266-0.002-6.532,0-9.798
					c0.001-1.725,0.539-3.404-0.837-4.104c-0.606-0.308-2.01-0.178-2.746-0.39c-1.206-0.346-2.067-0.789-3.334-0.896
					c-1.591-0.133-3.156,0.022-4.749-0.188C302.629,300.904,302.537,301.11,302.229,300.017z"/>
				<path style="fill:#201831;" d="M306.431,278.114c-4.962-0.09-17.552,3.421-12.829,10.658
					c-3.841,2.349-4.353,13.781,0.828,10.039c-1.238,2.484-1.66,9.692,2.437,9.267c-1.179,6.063,3.441,6.978,8.385,7.461
					c4.864,0.476,13.837,1.014,14.255-5.656c0.931,1.741,3.003,1.387,4.284,0.233c2.186-1.971,1.547-4.542,0.23-6.697
					c3.836,0.486,2.951-5.061,1.541-7.116c4.993,0.651,2.436-8.376,1.398-10.72c-1.817-4.103-4.116-8.16-8.833-9.26
					C315.033,275.603,309.191,276.037,306.431,278.114z"/>
				<path style="fill:#FFFFFF;" d="M327.236,320.25c-0.564-0.178-1.14-0.324-1.709-0.458c-8.237-1.941-16.809-2.366-25.217-1.505
					c-5.778,0.592-12.022,1.959-15.156,7.391c-1.712,2.968-1.653,6.614-1.526,9.922c0.16,4.179-0.139,8.339-0.698,12.48
					c-1.126,8.342-3.206,16.533-4.072,24.914c-0.235,2.272-0.377,4.586,0.074,6.826c0.74,3.676,3.049,6.435,6.89,6.813
					c16.147,1.589,25.931,1.813,41.901-1.681c3.413-0.746,5.676-1.625,5.828-5.439c0.328-8.254,0.74-16.513,1.03-24.765
					c0.3-8.516-0.854-17.111-1.64-25.573c-0.233-2.517-0.563-5.25-2.331-7.042C329.69,321.201,328.494,320.646,327.236,320.25z"/>
				<path style="fill:#FFFFFF;" d="M327.237,320.778c11.867,1.651,16.503,24.235,18.718,33.793c1.562,6.74,5.492,22.113-5.49,23.08
					c-10.035,0.884-12.424-19.828-13.685-26.788C325.677,344.773,320.576,325.66,327.237,320.778z"/>
				<path style="fill:#FFFFFF;" d="M295.797,319.454c-11.807-1.195-22.101,20.765-26.7,29.997
					c-3.243,6.51-10.994,21.271-0.713,24.927c9.394,3.341,17.049-17.25,20.06-24.059
					C291.078,344.362,300.92,326.063,295.797,319.454z"/>
			</g>
		</g>
	</g>
	<g>
		<path style="fill:#243D96;" d="M455.5,299.5c9.299-0.323,14.376-0.139,18.625,8.748c4.837,10.12,13.179,20.125,16.385,30.724
			c1.995,6.595,2.721,16.522-4.576,20.05c-5.331,2.577-12.935,0.733-18.591,0.452c-8.109-0.403-16.221,0.261-24.297,0.537
			c-23.924,0.82-51.054,4.626-74.556-0.376c-6.374-1.357-9.057-5.287-8.391-11.698c0.479-4.605,2.738-7.982,3.398-12.48
			c0.649-4.417,0.325-8.981,1.603-13.322c3.987-13.545,18.579-16.175,30.963-18.195c10.872-1.773,23.35-1.451,34.435-1.928
			C436.984,301.734,444.732,299.334,455.5,299.5z"/>
		<g>
			<g>
				<path style="fill:#5264D4;" d="M372.541,355.203c7.66,0.384,15.52-1.11,23.25-1.106c12.648,0.008,25.184,0.726,37.816,1.134
					c16.856,0.545,34.307-1.296,51.102-2.324c1.188-7.98-3.823-17.282-6.174-24.713c-2.56-8.092-3.255-25.958-11.462-30.374
					c-4.875-2.623-16.563-1.078-21.766-1.341c-12.363-0.624-24.65-0.318-36.983,0.151c-7.62,0.29-17.154-0.031-24.376,2.75
					c-5.143,1.981-4.681,4.789-6.694,10.396c-3.585,9.984-5.92,20.057-8.03,30.499c-0.938,4.642-2.864,10.083-2.128,14.843
					C368.533,355.409,369.938,355.886,372.541,355.203z"/>
				<g>
					<path style="fill:#5B48B4;" d="M415.129,321.342c-4.027-3.708-9.871-5.031-15.249-3.745c-8.766,2.096-5.748,15.95-1.978,21.15
						c2.509,3.462,6.334,5.793,10.363,7.223c10.633,3.776,23.517,4.375,34.376,1.347c4.456-1.242,8.499-2.915,11.661-6.371
						c2.921-3.193,4.564-7.297,5.18-11.546c0.732-5.053,0.599-11.056-5.094-12.893c-4.135-1.334-9.033-0.287-12.985,1.207
						c-4.189,1.584-8.292,2.836-12.737,3.526c-3.009,0.467-5.618,0.598-8.637,0.405c-0.835-0.053-1.769,0.116-2.589-0.052
						C416.606,321.422,415.97,320.85,415.129,321.342z"/>
					<g>
						<path style="fill:#62A2C5;" d="M409.714,278.597c-9.086,1.99-10.338,16.964-12.317,23.498c-1.18,3.895-9.2,21.76-0.709,22.397
							c2.784,0.209,4.843-1.341,6.187-3.425c3.657-5.668,4.616-14.221,6.171-20.587
							C409.808,297.363,417.089,280.674,409.714,278.597z"/>
						<path style="fill:#62A2C5;" d="M442.314,279.703c9.65-0.181,13.146,12.831,14.242,20.606
							c0.58,4.118,4.711,21.404-3.738,21.662c-2.597,0.079-3.707-2.141-4.367-4.44c-1.55-5.407-1.88-11.604-2.827-17.161
							C444.531,293.956,444.641,286.846,442.314,279.703z"/>
						<g>
							<path style="fill:#FFFFFF;" d="M450.386,328.772c0,0.174-0.008,0.348-0.017,0.522c-0.05,0.854-0.182,1.741-0.415,2.596
								c-0.439,1.617-1.26,3.118-2.654,4.071c-1.94,1.327-4.519,1.982-6.775,2.48c-0.257,0.058-0.514,0.116-0.78,0.166
								c-0.489,0.108-0.987,0.207-1.484,0.307c-3.201,0.63-6.46,1.095-9.71,1.086h-0.34c-0.721,0-1.443,0-2.164,0.009
								c-3.881,0-7.737-0.033-11.568-0.796c-0.332-0.066-0.68-0.124-1.053-0.191c-0.439-0.075-0.912-0.141-1.401-0.216
								c-2.977-0.464-6.526-1.078-8.309-3.093c-0.647-0.73-0.954-1.692-1.111-2.703c-0.1-0.589-0.133-1.195-0.149-1.783
								c-0.025-0.589-0.033-1.161-0.05-1.675c-0.1-3.259,0.166-6.385,0.531-9.528c0.075-0.663,0.158-1.327,0.241-1.999
								c0.116-1.011,0.249-2.031,0.365-3.06c0.381-3.267,0.547-6.559,0.497-9.851c-0.008-0.771-0.025-1.542-0.066-2.305
								c-0.025-0.771-0.066-1.534-0.124-2.297c-0.241-3.284-0.68-6.634-0.448-9.885c0.017-0.373,0.05-0.738,0.1-1.103v-0.008
								c0.116-0.987,0.307-1.965,0.589-2.927c1.02-3.474,3.392-7.081,6.651-8.773c0.846-0.44,1.717-0.829,2.596-1.186
								c0.439-0.174,0.887-0.34,1.335-0.489c2.562-0.896,5.241-1.443,7.961-1.692c1.103-0.1,2.222-0.158,3.334-0.166
								c0.497,0,1.003,0.009,1.509,0.017c2.919,0.083,5.838,0.473,8.599,1.128c0.589,0.125,1.178,0.274,1.75,0.44
								c0.166,0.033,0.323,0.083,0.481,0.124c3.193,0.912,6.336,2.281,7.986,5.332c1.053,1.94,1.484,4.154,1.808,6.344
								c0.066,0.448,0.124,0.896,0.174,1.335c0.083,0.664,0.149,1.318,0.207,1.974c0.34,3.823,0.332,7.629,0.448,11.485
								c0,0.232,0.008,0.464,0.017,0.697c0.016,0.547,0.041,1.103,0.075,1.65c0.241,4.32,0.804,8.616,1.144,12.928
								c0.033,0.348,0.058,0.696,0.083,1.045c0.033,0.498,0.066,0.995,0.091,1.492C450.469,323.108,450.427,325.953,450.386,328.772
								z"/>
							<path style="fill:#F1F1F1;" d="M445.933,330.43c-2.04,0.44-4.088,0.796-6.145,1.112c-0.008-3.392-0.058-6.783-0.141-10.175
								c3.574-0.232,7.148-0.581,10.689-1.095c-0.025-0.497-0.058-0.995-0.091-1.492c-0.025-0.348-0.05-0.697-0.083-1.045
								c-3.524,0.439-7.04,0.837-10.581,1.144c-0.141-4.387-0.348-8.782-0.614-13.168c1.352-0.092,2.703-0.207,4.047-0.34
								c1.949-0.183,3.972-0.34,6.004-0.564c-0.033-0.547-0.058-1.103-0.075-1.65c-0.008-0.232-0.017-0.464-0.017-0.697
								c-2.239,0.332-4.47,0.68-6.692,0.879c-1.128,0.1-2.264,0.183-3.392,0.266c-0.249-3.865-0.564-7.663-0.813-11.427
								c3.483-0.249,7.016-0.614,10.449-1.203c-0.058-0.655-0.124-1.31-0.207-1.974c-0.978,0.191-1.965,0.365-2.952,0.514
								c-2.455,0.373-4.926,0.663-7.397,0.887c-0.29-4.867-0.423-9.694-0.099-14.537c0.265-3.939,0.821-7.886,1.849-11.9
								c0.05-0.199-0.241-0.34-0.348-0.141c-1.866,3.607-2.828,7.538-3.251,11.601c-0.522,4.942-0.24,10.084,0.199,15.118
								c-2.305,0.182-4.619,0.323-6.932,0.389c-0.937,0.033-1.882,0.041-2.819,0.05c0.042-5.573,0.307-11.137,0.954-16.684
								c0.39-3.342,0.912-6.675,1.6-10.001c0.083-0.39-0.464-0.539-0.597-0.158c-1.161,3.309-1.965,6.7-2.513,10.142
								c-0.887,5.49-1.128,11.104-1.12,16.71c-3.79,0-7.571-0.149-11.344-0.432c0.008-1.302,0.025-2.595,0.083-3.897
								c0.158-3.549,0.556-7.049,1.086-10.523c0.506-3.409,1.144-6.808,1.791-10.225c0.083-0.407-0.489-0.572-0.622-0.166
								c-1.161,3.583-1.965,7.215-2.504,10.88c-0.68,4.569-0.954,9.188-1.028,13.823c-2.936-0.24-5.871-0.555-8.807-0.929
								c-0.05,0.365-0.083,0.73-0.1,1.103c2.952,0.539,5.913,0.97,8.89,1.286c-0.025,3.881,0.083,7.762,0.207,11.643
								c0.008,0.033,0.008,0.066,0.008,0.108c-0.05-0.009-0.108-0.009-0.158-0.009c-2.786-0.191-5.581-0.547-8.375-0.845
								c0.042,0.763,0.058,1.534,0.066,2.305c2.795,0.439,5.647,0.713,8.516,0.879c0.108,4.287,0.124,8.574,0.075,12.861
								c-3.151-0.249-6.302-0.539-9.453-0.829c-0.083,0.672-0.166,1.335-0.241,1.999c3.184,0.564,6.41,0.954,9.652,1.219
								c-0.066,3.732-0.174,7.463-0.315,11.187c-3.276-0.298-6.551-0.705-9.818-1.203c0.016,0.589,0.05,1.194,0.149,1.783
								c3.159,0.647,6.377,1.111,9.603,1.418c-0.058,1.459-0.116,2.919-0.182,4.378c0.489,0.075,0.962,0.141,1.401,0.216
								c0.066-1.493,0.124-2.985,0.174-4.478c4.063,0.332,8.143,0.415,12.182,0.299c0.075,1.725,0.157,3.449,0.265,5.166
								C426.769,340,427.49,340,428.212,340c0-1.75-0.017-3.499-0.058-5.249c0.539-0.025,1.086-0.049,1.625-0.083
								c2.737-0.166,5.606-0.398,8.516-0.738c0,1.659-0.017,3.325-0.033,4.984c0.498-0.099,0.995-0.199,1.484-0.307
								c0.025-1.617,0.041-3.242,0.041-4.86c3.4-0.439,6.833-1.036,10.167-1.857c0.232-0.854,0.365-1.742,0.415-2.596
								C448.901,329.717,447.425,330.107,445.933,330.43z M425.417,319.468c-3.823-0.042-7.621-0.24-11.419-0.522
								c0.042-4.288,0.025-8.583-0.099-12.879c3.823,0.174,7.637,0.183,11.303,0.149
								C425.318,310.612,425.367,315.031,425.417,319.468z M413.492,292.036c3.773,0.373,7.563,0.564,11.369,0.589
								c0.033,3.698,0.166,7.389,0.282,11.037c0,0.132,0,0.274,0.008,0.406c-3.773-0.008-7.555-0.108-11.319-0.332
								C413.7,299.84,413.517,295.942,413.492,292.036z M413.675,332.545c0.124-3.732,0.232-7.463,0.29-11.195
								c3.839,0.282,7.679,0.389,11.485,0.406c0.05,3.707,0.124,7.414,0.257,11.12C421.669,332.993,417.664,332.86,413.675,332.545z
								 M426.512,292.608c0.688-0.008,1.368,0,2.057-0.017c2.538-0.058,5.183-0.149,7.861-0.315
								c0.282,3.068,0.597,6.079,0.796,8.956c0.058,0.821,0.108,1.642,0.158,2.463c-3.358,0.215-6.725,0.34-10.084,0.373
								c-0.182,0-0.356-0.008-0.539,0C426.611,300.246,426.512,296.423,426.512,292.608z M426.852,306.208
								c0.149-0.008,0.298-0.008,0.448-0.008c3.408-0.033,6.817-0.174,10.216-0.39c0.257,4.395,0.448,8.798,0.572,13.202
								c-3.093,0.241-6.195,0.415-9.329,0.456c-0.415,0.008-0.821,0-1.227,0C427.299,315.048,427.051,310.628,426.852,306.208z
								 M429.024,332.736c-0.307,0.017-0.614,0.017-0.921,0.033c-0.108-3.665-0.265-7.339-0.456-11.013c0.373,0,0.738,0,1.111-0.008
								c3.101-0.033,6.244-0.116,9.395-0.29c0.083,3.441,0.124,6.875,0.133,10.316C435.21,332.214,432.126,332.537,429.024,332.736z
								"/>
						</g>
						<path style="fill:#201831;" d="M438.355,243.271c-5.514-1.77-11.483,0.519-15.512,4.371
							c-6.245,5.971-5.41,16.11-10.064,22.988c-2.108,3.115-9.479,8.955-7.426,13.562c1.172,2.629,4.193,0.982,6.021,0.115
							c-0.18,2.413-3.434,6.701-0.848,8.986c1.399,1.236,2.077-0.302,2.868-1.347c0.011,1.157,0.42,2.599,1.628,3.112
							c1.716,0.728,2.73-1.06,3.656-2.085c0.328,2.058,2.322,3.863,3.594,1.17c0.277,1.024,0.85,1.48,2.011,1.466
							c2.38-0.029,2.358-1.928,3.636-3.222c0.462,2.834,3.94,2.798,5.316,0.685c0.937-1.44,1.093-3.603,1.456-5.192
							c0.52,1.379,1.045,2.547,2.755,2.596c2.411,0.069,2.657-2.508,3.223-4.252c1.938,3.233,5.391,1.412,5.911-1.91
							c0.911-5.813-0.218-11.955,0.315-17.809c0.516-5.673,0.949-11.285-1.512-16.621c-1.255-2.721-3.353-5.154-6.128-6.284
							C438.958,243.477,438.657,243.368,438.355,243.271z"/>
					</g>
				</g>
			</g>
			<g>
				<path style="fill:#FFFFFF;" d="M374.286,301.087c-3.14,0.439-5.293-5.494-1.198-5.386c0.034-1.164-0.623-2.226,0.21-3.316
					c1.004-1.313,2.49-1.717,3.743-0.704c0.122-2.117,0.228-5.607,2.942-6.098c1.172-0.212,2.274,0.542,2.934,1.408
					c0.858,1.126,0.749,2.225,1.11,3.503c0.299-0.988,1.126-2.008,2.255-1.179c1.191,0.874,0.821,3.125,0.802,4.334
					c2.1-1.948,3.948,0.747,2.953,2.849c1.246-0.508,1.622,0.845,1.404,1.904c-0.317,1.539-1.796,2.518-3.21,2.926
					c-2.642,0.761-5.665,0.391-8.39,0.392c-1.174,0.001-2.275-0.068-3.429-0.277C375.688,301.312,374.894,300.993,374.286,301.087z"
					/>
				<g>
					<polygon style="fill:#DC5D4C;" points="391.278,299.349 388.749,318 374.207,318 371.678,299.349 					"/>
					<path style="fill:#F49389;" d="M379.019,318h-1.612c-0.262-3.117-0.515-6.234-0.806-9.348
						c-0.291-3.101-0.575-6.202-0.882-9.304h1.369c0.357,2.994,0.705,5.994,1.008,8.991
						C378.418,311.557,378.744,314.776,379.019,318z"/>
					<path style="fill:#F49389;" d="M385.632,299.349c-0.032,3.133-0.07,6.269-0.098,9.402c-0.025,3.082-0.029,6.164-0.035,9.25
						h-1.619c0.006-3.187,0.047-6.376,0.095-9.566c0.041-3.029,0.107-6.057,0.205-9.086H385.632z"/>
				</g>
			</g>
		</g>
	</g>
	<g>
		<path style="fill:#243D96;" d="M605.5,372.5c7.52,1.612,6.625,19.243,4.508,24.533c-4.482,11.199-14.052,13.355-25.089,13.472
			c-13.669,0.146-27.247-1.031-40.878-1.517c-10.311-0.367-19.442-2.331-29.567-3.637c-12.681-1.636-32.146,13.871-39.686-3.092
			c-2.389-5.373-1.884-10.447,1.506-15.278c2.223-3.168,4.996-5.387,8.63-6.993c5.909-2.612,12.963-6.375,19.04-8.337
			c7.766-2.508,19.572-2.645,27.726-2.661c12.117-0.024,24.234,0.01,36.351,0.01c6.525,0,12.959-0.263,19.438-0.526
			C591.36,368.316,599.238,366.827,605.5,372.5z"/>
		<g>
			<g>
				<path style="fill:#201831;" d="M508.315,368.153c4.034-13.222,6.526-27.181,11.22-40.216c1.943-5.395,6.559-15.097,14.184-11.85
					c7.16,3.048,3.531,19.95,2.545,25.403c-1.416,7.829-2.451,21.863-9.541,27.116C521.253,372.659,513.636,370.37,508.315,368.153z
					"/>
				<path style="fill:#C76461;" d="M552.73,274.116c-0.612,1.022-1.042,2.214-1.235,3.557c-0.418,2.913-0.836,5.854-0.613,8.788
					c0.806,10.605,15.055,15.696,18.297,3.644c1.379-5.127,1.954-15.852-3.545-18.837
					C560.735,268.608,555.221,269.96,552.73,274.116z"/>
				<path style="fill:#5B48B4;" d="M566.784,300.368c-13.567-1.714-24.792,14.48-30.11,25.301
					c-2.716,5.526-4.801,11.246-6.778,17.073c-1.198,3.531-2.221,4.331,1.491,5.494c11.527,3.612,26.645,3.541,38.583,2.839
					c-0.071-5.907,1.83-11.922,1.97-17.933c0.165-7.097,0.78-14.403,0.317-21.504c-0.254-3.885-0.784-10.372-4.846-12.193
					C566.762,299.429,567.387,299.726,566.784,300.368z"/>
				<path style="fill:#CA6297;" d="M508.637,351.126c22.381-9.309,36.949-35.989,61.909-39.958
					c10.319-1.641,17.888,2.66,24.476,10.308c9.815,11.394,16.262,22.731,18.334,37.67c1.482,10.682,2.425,23.819-7.187,31.321
					c-11.025,8.605-30.041,10.491-43.536,11.048c-14.229,0.587-28.042-0.335-41.763-4.127c-8.365-2.312-12.977-4.788-17.573-12.257
					C497.315,375.412,496.293,356.137,508.637,351.126z"/>
				<path style="fill:#EEA886;" d="M573.851,266.958c-6.501-1.636-15.17-5.249-22.1-3.484c-3.317,0.845-6.84,3.948-2.413,6.077
					c-5.686-0.52-5.431,6.555-2.941,9.802c2.869,3.742,7.839,4.279,11.564,6.684c15.749,10.168-11.886,30.659-3.718,43.74
					c3.09,4.948,7.136,0.301,10.26-1.681c-0.305,3.563,4.484,5.594,7.483,4.985c5.573-1.132,5.844-8.841,6.426-13.41
					c1.939,1.58,2.139,4.936,4.421,6.355c3.08,1.915,7.751,0.498,8.795-2.969c2.464-8.185-6.734-19.028-8.482-26.835
					C581.361,288.257,584.45,269.754,573.851,266.958z"/>
			</g>
			<g>
				<path style="fill:#FFFFFF;" d="M479.286,380.087c-3.14,0.439-5.293-5.494-1.198-5.386c0.034-1.164-0.623-2.226,0.21-3.316
					c1.004-1.313,2.49-1.717,3.743-0.704c0.122-2.117,0.228-5.607,2.942-6.098c1.172-0.212,2.274,0.542,2.934,1.408
					c0.858,1.126,0.749,2.225,1.11,3.503c0.299-0.988,1.126-2.008,2.255-1.179c1.191,0.874,0.82,3.125,0.802,4.334
					c2.1-1.948,3.948,0.747,2.953,2.849c1.246-0.508,1.622,0.845,1.404,1.904c-0.317,1.539-1.796,2.518-3.21,2.926
					c-2.642,0.761-5.665,0.391-8.39,0.392c-1.174,0.001-2.275-0.068-3.429-0.277C480.688,380.312,479.894,379.993,479.286,380.087z"
					/>
				<g>
					<polygon style="fill:#DC5D4C;" points="496.278,378.349 493.749,397 479.207,397 476.678,378.349 					"/>
					<path style="fill:#F49389;" d="M484.019,397h-1.612c-0.262-3.117-0.515-6.234-0.806-9.348
						c-0.291-3.101-0.575-6.202-0.882-9.304h1.369c0.357,2.994,0.705,5.994,1.008,8.991
						C483.418,390.557,483.744,393.776,484.019,397z"/>
					<path style="fill:#F49389;" d="M490.632,378.349c-0.032,3.133-0.07,6.269-0.098,9.402c-0.025,3.082-0.029,6.164-0.035,9.25
						h-1.619c0.006-3.187,0.047-6.376,0.095-9.566c0.041-3.029,0.107-6.057,0.205-9.086H490.632z"/>
				</g>
			</g>
		</g>
	</g>
	<g>
		<defs>
			<rect id="SVGID_00000008858163621511134180000003114718238865973161_" x="0.5" width="750" height="500"/>
		</defs>
		<clipPath id="SVGID_00000138545183214184001350000016186924554665560212_">
			<use xlink:href="#SVGID_00000008858163621511134180000003114718238865973161_"  style="overflow:visible;"/>
		</clipPath>
		<path style="clip-path:url(#SVGID_00000138545183214184001350000016186924554665560212_);fill:#132356;" d="M-14.363,417.833
			c0.058-12.114-4.225-65.919,15.749-66.074c14.263-0.111,11.798,36.982,8.1,46.151c3.068-7.928,11.295-29.135,23.425-25.226
			c12.066,3.888,2.465,33.54-0.996,41.789c9.61-8.297,45.303-44.717,58.514-26.591c8.443,11.586-17.052,24.165-24.843,30.092
			c24.278-9.137,20.193,9.982,13.529,26.927c10.899-18.676,16.57,8.48,16.32,17.849c6.295-6.329,24.923-10.74,23.655,4.121
			c3.264-11.024-0.044-42.167,19.312-38.342c0.837,4.004,3.089,8.527,3.304,12.544c1.058-7.317,6.67-33.411,20.24-26.208
			c12.041,6.392-0.403,41.224-4.037,50.575c16.924-18.674,18.795,7.153,15.774,20.092c8.285-6.371,22.964-7.253,20.705,6.848
			c15.869-23.515,28.318,11.862,21.938,27.327c-79.161,3.051-160.688-14.92-239.457-4.617c-0.982-18.877-0.422-38.081,1.351-56.877
			C-21.033,450.302-11.817,422.741-14.363,417.833z"/>
		<path style="clip-path:url(#SVGID_00000138545183214184001350000016186924554665560212_);fill:#132356;" d="M614.27,531.827
			c-21.626,0.768-97.962-10.722-91.368-44.755c3.54-18.27,23.109-3.711,33.276,2.888c-2.059-8.569-2.437-21.285,0.896-30.015
			c11.735-2.763,16.847,11.943,19.6,20.538c0.989-11.943-3.763-58.03,11.95-62.457c14.303-4.03,16.083,42.282,16.326,50.37
			c-0.116-20.372,17.121-20.55,24.58-3.323c-0.09-10.022,2.114-28.993,17.082-21.89c0.825-14.002-4.361-40.808,9.735-50.857
			c14.783-10.538,20.432,5.851,21.653,19.083c1.147-9.33,3.548-41.595,21.781-31.318c13.605,7.669,14.061,50.54,13.911,62.771
			c1.442-8.899-2.292-37.482,13.74-29.689c0.5-9.834-4.71-32.277,5.644-38.162c11.914-6.772,14.514,7.145,18.353,15.503
			c7.5-28.078,22.85-29.236,27.574,0.92c4.267,27.242,5.339,55.725,4.655,83.231c-0.236,9.504,2.17,41.453-7.044,49.171
			c-5.366,4.494-18.769,2-25.913,1.992c-19.983-0.024-39.835,1.566-59.782,1.529C668.869,527.316,641.658,521.187,614.27,531.827z"
			/>
	</g>
	<g>
		<defs>
			<rect id="SVGID_00000162351936457670955640000013241818777000340117_" x="0.5" width="750" height="500"/>
		</defs>
		<clipPath id="SVGID_00000145034809671783580300000012950085896821545633_">
			<use xlink:href="#SVGID_00000162351936457670955640000013241818777000340117_"  style="overflow:visible;"/>
		</clipPath>
		
			<linearGradient id="SVGID_00000057836142958470240990000014269564181398461614_" gradientUnits="userSpaceOnUse" x1="331.847" y1="55.3263" x2="330.4976" y2="551.8968">
			<stop  offset="0.0065" style="stop-color:#FFFFFF;stop-opacity:0.3"/>
			<stop  offset="1" style="stop-color:#FFFFFF;stop-opacity:0"/>
		</linearGradient>
		
			<path style="clip-path:url(#SVGID_00000145034809671783580300000012950085896821545633_);fill:url(#SVGID_00000057836142958470240990000014269564181398461614_);" d="
			M263.5,59c0,0,98-8,222,0l175,492H0.5L263.5,59z"/>
	</g>
</g>
</svg>
